M48
;GenerationSoftware,Autodesk,EAGLE,9.6.2*%
;CreationDate,2021-03-19T10:26:59Z*%
FMAT,2
ICI,OFF
METRIC,TZ,000.000
T3C0.600
T2C0.800
T1C1.016
%
G90
M71
T1
X49371Y4763
X80721Y58699
X80721Y63221
X74219Y58699
X74219Y63221
X93193Y22968
X88671Y22968
X93193Y16466
X88671Y16466
X25876Y20161
X25876Y17621
X25876Y15081
X25876Y12541
X25876Y10001
X25876Y7461
X97949Y13652
X97949Y16192
X97949Y18733
X97949Y21273
X97949Y23812
X97949Y26352
X52229Y54292
X54769Y54292
X99377Y8890
X96837Y8890
X94297Y8890
X91757Y8890
X89217Y8890
X56197Y4763
X58737Y4763
X65405Y4763
X67945Y4763
X81756Y1429
X81756Y3969
X81756Y6509
X81756Y9049
X81756Y11589
X81756Y14129
X74136Y12700
X74136Y10160
X74136Y7620
X74136Y5080
X74136Y2540
X46831Y4763
T2
X77631Y29280
X75091Y29280
T3
X56915Y24203
X37475Y50194
X24789Y56704
X97921Y59509
X94139Y55562
X67151Y57938
X96202Y53657
X81607Y55331
X71279Y55316
X91440Y28920
X77788Y10954
X90126Y28264
X79693Y56832
X78105Y48419
X76041Y42317
X23177Y59287
X72650Y50784
X86519Y10954
X84614Y14764
X84598Y22384
X84614Y35084
X70667Y43251
X86980Y21431
X91757Y2699
X91757Y6985
X79233Y22318
X91440Y53975
X79375Y40640
X79417Y47295
X86346Y62296
X86360Y55721
X82063Y22362
X82074Y37624
X83185Y43021
X95409Y50470
X83377Y21273
X83388Y36989
X84614Y42545
X90232Y50105
X80426Y21322
X80645Y39370
X80645Y45879
X100489Y50324
X48295Y29889
X68271Y26301
X89852Y1270
X41116Y25559
X46481Y23496
X50879Y46398
X45618Y46526
X30342Y53816
X35107Y49758
X22827Y43975
X22827Y42070
X22827Y40165
X22827Y38260
X22827Y27147
X22827Y25401
X22827Y23655
X74295Y44926
X74136Y49054
X85725Y29369
X55562Y28734
X46672Y33655
X47307Y36513
X44609Y36513
X56515Y46514
X105251Y28892
X44609Y40481
X64724Y27969
X48510Y38735
X44609Y38735
X48101Y53499
X74295Y-1587
X102516Y56652
X76894Y38080
X76874Y40794
X72342Y48480
X58326Y52709
X35993Y53953
X30267Y30136
X76311Y49562
X76595Y56644
X51752Y59055
X57626Y60642
X41275Y51117
X50800Y23812
X50800Y16034
X62230Y11112
X68104Y11112
X71438Y3651
M30