G04 EAGLE Gerber X2 export*
%TF.Part,Single*%
%TF.FileFunction,Paste,Top*%
%TF.FilePolarity,Positive*%
%TF.GenerationSoftware,Autodesk,EAGLE,9.6.2*%
%TF.CreationDate,2021-03-19T10:26:59Z*%
G75*
%MOMM*%
%FSLAX34Y34*%
%LPD*%
%INPaste Top*%
%AMOC8*
5,1,8,0,0,1.08239X$1,22.5*%
G01*
%ADD10R,0.900000X1.500000*%
%ADD11R,1.500000X0.900000*%
%ADD12R,6.000000X6.000000*%
%ADD13R,1.803000X1.600000*%
%ADD14R,1.600000X1.803000*%
%ADD15R,1.000000X1.400000*%
%ADD16R,1.400000X1.000000*%
%ADD17R,1.200000X1.000000*%
%ADD18R,1.168400X1.600200*%
%ADD19R,1.050000X2.200000*%
%ADD20R,1.000000X1.050000*%
%ADD21R,3.600000X1.200000*%
%ADD22R,1.800000X1.600000*%
%ADD23R,2.700000X1.600000*%
%ADD24R,2.200000X1.050000*%
%ADD25R,1.050000X1.000000*%
%ADD26R,1.600000X1.800000*%
%ADD27R,1.600000X2.700000*%


D10*
X1042300Y485363D03*
X1029600Y485363D03*
X1016900Y485363D03*
X1004200Y485363D03*
X991500Y485363D03*
X978800Y485363D03*
X966100Y485363D03*
X953400Y485363D03*
X940700Y485363D03*
X928000Y485363D03*
X915300Y485363D03*
X902600Y485363D03*
X889900Y485363D03*
X877200Y485363D03*
D11*
X862300Y452513D03*
X862300Y439813D03*
X862300Y427113D03*
X862300Y414413D03*
X862300Y401713D03*
X862300Y389013D03*
X862300Y376313D03*
X862300Y363613D03*
X862300Y350913D03*
X862300Y338213D03*
D10*
X877200Y305363D03*
X889900Y305363D03*
X902600Y305363D03*
X915300Y305363D03*
X928000Y305363D03*
X940700Y305363D03*
X953400Y305363D03*
X966100Y305363D03*
X978800Y305363D03*
X991500Y305363D03*
X1004200Y305363D03*
X1016900Y305363D03*
X1029600Y305363D03*
X1042300Y305363D03*
D12*
X965300Y395363D03*
D13*
X714375Y589030D03*
X714375Y617470D03*
X444500Y600143D03*
X444500Y628583D03*
D14*
X409643Y549275D03*
X438083Y549275D03*
D15*
X325942Y560396D03*
X335442Y538396D03*
X316442Y538396D03*
D13*
X690563Y600143D03*
X690563Y628583D03*
D16*
X268400Y625475D03*
X290400Y634975D03*
X290400Y615975D03*
D14*
X319020Y595313D03*
X290580Y595313D03*
D13*
X266877Y594976D03*
X266877Y566536D03*
D16*
X646225Y617513D03*
X646225Y598513D03*
X668225Y608013D03*
D15*
X316645Y516416D03*
X326145Y494416D03*
X307145Y494416D03*
D17*
X337663Y612775D03*
X357663Y602775D03*
X357663Y622775D03*
D18*
X251460Y288925D03*
X266700Y288925D03*
X281940Y288925D03*
D19*
X257293Y510251D03*
X229793Y510251D03*
D20*
X243543Y495001D03*
D21*
X411550Y325288D03*
X411550Y345288D03*
X261550Y325288D03*
X411550Y365288D03*
X411550Y385288D03*
X411550Y405288D03*
X411550Y425288D03*
X411550Y445288D03*
X411550Y465288D03*
X261550Y345288D03*
X261550Y365288D03*
X261550Y385288D03*
X261550Y405288D03*
X261550Y425288D03*
X261550Y445288D03*
X261550Y465288D03*
D22*
X769190Y361091D03*
X769190Y333091D03*
D23*
X802858Y343994D03*
X802858Y315994D03*
D24*
X719138Y294225D03*
X719138Y321725D03*
D25*
X703888Y307975D03*
D21*
X525075Y447825D03*
X525075Y427825D03*
X675075Y447825D03*
X525075Y407825D03*
X525075Y387825D03*
X525075Y367825D03*
X525075Y347825D03*
X525075Y327825D03*
X525075Y307825D03*
X675075Y427825D03*
X675075Y407825D03*
X675075Y387825D03*
X675075Y367825D03*
X675075Y347825D03*
X675075Y327825D03*
X675075Y307825D03*
D26*
X570200Y263525D03*
X598200Y263525D03*
D27*
X508288Y261938D03*
X536288Y261938D03*
D14*
X941455Y625475D03*
X969895Y625475D03*
X1027045Y625475D03*
X998605Y625475D03*
X1000193Y595313D03*
X1028633Y595313D03*
X915920Y557213D03*
X887480Y557213D03*
D13*
X724041Y382410D03*
X724041Y353970D03*
D26*
X560675Y82550D03*
X588675Y82550D03*
D14*
X558868Y133350D03*
X587308Y133350D03*
D26*
X652750Y82550D03*
X680750Y82550D03*
D14*
X652530Y133350D03*
X680970Y133350D03*
D26*
X463838Y80963D03*
X491838Y80963D03*
D14*
X463618Y133350D03*
X492058Y133350D03*
D22*
X871538Y12988D03*
X871538Y40988D03*
M02*
