G04 EAGLE Gerber X2 export*
%TF.Part,Single*%
%TF.FileFunction,Legend,Bot,1*%
%TF.FilePolarity,Positive*%
%TF.GenerationSoftware,Autodesk,EAGLE,9.6.2*%
%TF.CreationDate,2021-03-19T10:26:59Z*%
G75*
%MOMM*%
%FSLAX34Y34*%
%LPD*%
%INSilkscreen Bottom*%
%AMOC8*
5,1,8,0,0,1.08239X$1,22.5*%
G01*
%ADD10C,0.152400*%
%ADD11C,0.076200*%
%ADD12C,0.101600*%
%ADD13C,0.177800*%


D10*
X170744Y187899D02*
X170626Y187897D01*
X170508Y187891D01*
X170390Y187882D01*
X170273Y187868D01*
X170156Y187851D01*
X170039Y187830D01*
X169924Y187805D01*
X169809Y187776D01*
X169695Y187743D01*
X169583Y187707D01*
X169472Y187667D01*
X169362Y187624D01*
X169253Y187577D01*
X169146Y187527D01*
X169041Y187472D01*
X168938Y187415D01*
X168837Y187354D01*
X168737Y187290D01*
X168640Y187223D01*
X168545Y187153D01*
X168453Y187079D01*
X168362Y187003D01*
X168275Y186923D01*
X168190Y186841D01*
X168108Y186756D01*
X168028Y186669D01*
X167952Y186578D01*
X167878Y186486D01*
X167808Y186391D01*
X167741Y186294D01*
X167677Y186194D01*
X167616Y186093D01*
X167559Y185990D01*
X167504Y185885D01*
X167454Y185778D01*
X167407Y185669D01*
X167364Y185559D01*
X167324Y185448D01*
X167288Y185336D01*
X167255Y185222D01*
X167226Y185107D01*
X167201Y184992D01*
X167180Y184875D01*
X167163Y184758D01*
X167149Y184641D01*
X167140Y184523D01*
X167134Y184405D01*
X167132Y184287D01*
X167134Y184104D01*
X167141Y183922D01*
X167152Y183740D01*
X167167Y183558D01*
X167187Y183376D01*
X167210Y183195D01*
X167239Y183015D01*
X167271Y182835D01*
X167308Y182656D01*
X167349Y182479D01*
X167395Y182302D01*
X167444Y182126D01*
X167498Y181952D01*
X167556Y181778D01*
X167618Y181607D01*
X167684Y181437D01*
X167755Y181268D01*
X167829Y181101D01*
X167907Y180936D01*
X167989Y180773D01*
X168075Y180612D01*
X168165Y180453D01*
X168259Y180296D01*
X168356Y180142D01*
X168457Y179990D01*
X168562Y179840D01*
X168670Y179693D01*
X168781Y179549D01*
X168896Y179407D01*
X169015Y179268D01*
X169137Y179132D01*
X169262Y178999D01*
X169390Y178869D01*
X179776Y179320D02*
X179894Y179322D01*
X180012Y179328D01*
X180130Y179337D01*
X180247Y179351D01*
X180364Y179368D01*
X180481Y179389D01*
X180596Y179414D01*
X180711Y179443D01*
X180825Y179476D01*
X180937Y179512D01*
X181048Y179552D01*
X181158Y179595D01*
X181267Y179642D01*
X181374Y179692D01*
X181479Y179747D01*
X181582Y179804D01*
X181683Y179865D01*
X181783Y179929D01*
X181880Y179996D01*
X181975Y180066D01*
X182067Y180140D01*
X182158Y180216D01*
X182245Y180296D01*
X182330Y180378D01*
X182412Y180463D01*
X182492Y180550D01*
X182568Y180641D01*
X182642Y180733D01*
X182712Y180828D01*
X182779Y180925D01*
X182843Y181025D01*
X182904Y181126D01*
X182962Y181229D01*
X183016Y181334D01*
X183066Y181441D01*
X183113Y181550D01*
X183157Y181660D01*
X183196Y181771D01*
X183232Y181884D01*
X183265Y181997D01*
X183294Y182112D01*
X183319Y182227D01*
X183340Y182344D01*
X183357Y182461D01*
X183371Y182578D01*
X183380Y182696D01*
X183386Y182814D01*
X183388Y182932D01*
X183386Y183093D01*
X183380Y183255D01*
X183371Y183416D01*
X183357Y183577D01*
X183340Y183737D01*
X183319Y183897D01*
X183294Y184057D01*
X183265Y184216D01*
X183233Y184374D01*
X183197Y184531D01*
X183157Y184687D01*
X183113Y184843D01*
X183065Y184997D01*
X183014Y185150D01*
X182960Y185302D01*
X182901Y185453D01*
X182840Y185602D01*
X182774Y185749D01*
X182705Y185895D01*
X182633Y186040D01*
X182557Y186182D01*
X182478Y186323D01*
X182396Y186462D01*
X182310Y186598D01*
X182221Y186733D01*
X182129Y186866D01*
X182033Y186996D01*
X176615Y181126D02*
X176677Y181025D01*
X176742Y180925D01*
X176811Y180828D01*
X176883Y180733D01*
X176957Y180640D01*
X177035Y180550D01*
X177116Y180462D01*
X177199Y180377D01*
X177285Y180295D01*
X177374Y180216D01*
X177465Y180139D01*
X177559Y180066D01*
X177655Y179995D01*
X177753Y179928D01*
X177853Y179864D01*
X177956Y179803D01*
X178060Y179746D01*
X178166Y179692D01*
X178274Y179642D01*
X178383Y179595D01*
X178494Y179551D01*
X178606Y179511D01*
X178720Y179475D01*
X178834Y179443D01*
X178950Y179414D01*
X179066Y179389D01*
X179183Y179368D01*
X179301Y179351D01*
X179419Y179337D01*
X179538Y179328D01*
X179657Y179322D01*
X179776Y179320D01*
X173905Y186093D02*
X173843Y186194D01*
X173778Y186294D01*
X173709Y186391D01*
X173637Y186486D01*
X173563Y186579D01*
X173485Y186669D01*
X173404Y186757D01*
X173321Y186842D01*
X173235Y186924D01*
X173146Y187003D01*
X173055Y187080D01*
X172961Y187153D01*
X172865Y187224D01*
X172767Y187291D01*
X172667Y187355D01*
X172564Y187416D01*
X172460Y187473D01*
X172354Y187527D01*
X172246Y187577D01*
X172137Y187624D01*
X172026Y187668D01*
X171914Y187708D01*
X171800Y187744D01*
X171686Y187776D01*
X171570Y187805D01*
X171454Y187830D01*
X171337Y187851D01*
X171219Y187868D01*
X171101Y187882D01*
X170982Y187891D01*
X170863Y187897D01*
X170744Y187899D01*
X173905Y186093D02*
X176615Y181126D01*
X183388Y194360D02*
X167132Y194360D01*
X177969Y194360D02*
X177969Y198876D01*
X177967Y198977D01*
X177961Y199078D01*
X177952Y199179D01*
X177939Y199280D01*
X177922Y199380D01*
X177901Y199479D01*
X177877Y199577D01*
X177849Y199674D01*
X177817Y199771D01*
X177782Y199866D01*
X177743Y199959D01*
X177701Y200051D01*
X177655Y200142D01*
X177606Y200231D01*
X177554Y200317D01*
X177498Y200402D01*
X177440Y200485D01*
X177378Y200565D01*
X177313Y200643D01*
X177246Y200719D01*
X177176Y200792D01*
X177103Y200862D01*
X177027Y200929D01*
X176949Y200994D01*
X176869Y201056D01*
X176786Y201114D01*
X176701Y201170D01*
X176615Y201222D01*
X176526Y201271D01*
X176435Y201317D01*
X176343Y201359D01*
X176250Y201398D01*
X176155Y201433D01*
X176058Y201465D01*
X175961Y201493D01*
X175863Y201517D01*
X175764Y201538D01*
X175664Y201555D01*
X175563Y201568D01*
X175462Y201577D01*
X175361Y201583D01*
X175260Y201585D01*
X167132Y201585D01*
X170744Y208429D02*
X174357Y208429D01*
X174476Y208431D01*
X174596Y208437D01*
X174715Y208447D01*
X174833Y208461D01*
X174952Y208478D01*
X175069Y208500D01*
X175186Y208525D01*
X175301Y208555D01*
X175416Y208588D01*
X175530Y208625D01*
X175642Y208665D01*
X175753Y208710D01*
X175862Y208758D01*
X175970Y208809D01*
X176076Y208864D01*
X176180Y208923D01*
X176282Y208985D01*
X176382Y209050D01*
X176480Y209119D01*
X176576Y209191D01*
X176669Y209266D01*
X176759Y209343D01*
X176847Y209424D01*
X176932Y209508D01*
X177014Y209595D01*
X177094Y209684D01*
X177170Y209776D01*
X177244Y209870D01*
X177314Y209967D01*
X177381Y210065D01*
X177445Y210166D01*
X177505Y210270D01*
X177562Y210375D01*
X177615Y210482D01*
X177665Y210590D01*
X177711Y210700D01*
X177753Y210812D01*
X177792Y210925D01*
X177827Y211039D01*
X177858Y211154D01*
X177886Y211271D01*
X177909Y211388D01*
X177929Y211505D01*
X177945Y211624D01*
X177957Y211743D01*
X177965Y211862D01*
X177969Y211981D01*
X177969Y212101D01*
X177965Y212220D01*
X177957Y212339D01*
X177945Y212458D01*
X177929Y212577D01*
X177909Y212694D01*
X177886Y212811D01*
X177858Y212928D01*
X177827Y213043D01*
X177792Y213157D01*
X177753Y213270D01*
X177711Y213382D01*
X177665Y213492D01*
X177615Y213600D01*
X177562Y213707D01*
X177505Y213812D01*
X177445Y213916D01*
X177381Y214017D01*
X177314Y214115D01*
X177244Y214212D01*
X177170Y214306D01*
X177094Y214398D01*
X177014Y214487D01*
X176932Y214574D01*
X176847Y214658D01*
X176759Y214739D01*
X176669Y214816D01*
X176576Y214891D01*
X176480Y214963D01*
X176382Y215032D01*
X176282Y215097D01*
X176180Y215159D01*
X176076Y215218D01*
X175970Y215273D01*
X175862Y215324D01*
X175753Y215372D01*
X175642Y215417D01*
X175530Y215457D01*
X175416Y215494D01*
X175301Y215527D01*
X175186Y215557D01*
X175069Y215582D01*
X174952Y215604D01*
X174833Y215621D01*
X174715Y215635D01*
X174596Y215645D01*
X174476Y215651D01*
X174357Y215653D01*
X170744Y215653D01*
X170625Y215651D01*
X170505Y215645D01*
X170386Y215635D01*
X170268Y215621D01*
X170149Y215604D01*
X170032Y215582D01*
X169915Y215557D01*
X169800Y215527D01*
X169685Y215494D01*
X169571Y215457D01*
X169459Y215417D01*
X169348Y215372D01*
X169239Y215324D01*
X169131Y215273D01*
X169025Y215218D01*
X168921Y215159D01*
X168819Y215097D01*
X168719Y215032D01*
X168621Y214963D01*
X168525Y214891D01*
X168432Y214816D01*
X168342Y214739D01*
X168254Y214658D01*
X168169Y214574D01*
X168087Y214487D01*
X168007Y214398D01*
X167931Y214306D01*
X167857Y214212D01*
X167787Y214115D01*
X167720Y214017D01*
X167656Y213916D01*
X167596Y213812D01*
X167539Y213707D01*
X167486Y213600D01*
X167436Y213492D01*
X167390Y213382D01*
X167348Y213270D01*
X167309Y213157D01*
X167274Y213043D01*
X167243Y212928D01*
X167215Y212811D01*
X167192Y212694D01*
X167172Y212577D01*
X167156Y212458D01*
X167144Y212339D01*
X167136Y212220D01*
X167132Y212101D01*
X167132Y211981D01*
X167136Y211862D01*
X167144Y211743D01*
X167156Y211624D01*
X167172Y211505D01*
X167192Y211388D01*
X167215Y211271D01*
X167243Y211154D01*
X167274Y211039D01*
X167309Y210925D01*
X167348Y210812D01*
X167390Y210700D01*
X167436Y210590D01*
X167486Y210482D01*
X167539Y210375D01*
X167596Y210270D01*
X167656Y210166D01*
X167720Y210065D01*
X167787Y209967D01*
X167857Y209870D01*
X167931Y209776D01*
X168007Y209684D01*
X168087Y209595D01*
X168169Y209508D01*
X168254Y209424D01*
X168342Y209343D01*
X168432Y209266D01*
X168525Y209191D01*
X168621Y209119D01*
X168719Y209050D01*
X168819Y208985D01*
X168921Y208923D01*
X169025Y208864D01*
X169131Y208809D01*
X169239Y208758D01*
X169348Y208710D01*
X169459Y208665D01*
X169571Y208625D01*
X169685Y208588D01*
X169800Y208555D01*
X169915Y208525D01*
X170032Y208500D01*
X170149Y208478D01*
X170268Y208461D01*
X170386Y208447D01*
X170505Y208437D01*
X170625Y208431D01*
X170744Y208429D01*
X167132Y222582D02*
X177969Y222582D01*
X177969Y228000D01*
X176163Y228000D01*
X177969Y231620D02*
X177969Y237039D01*
X183388Y233426D02*
X169841Y233426D01*
X169841Y233427D02*
X169740Y233429D01*
X169639Y233435D01*
X169538Y233444D01*
X169437Y233457D01*
X169337Y233474D01*
X169238Y233495D01*
X169140Y233519D01*
X169043Y233547D01*
X168946Y233579D01*
X168851Y233614D01*
X168758Y233653D01*
X168666Y233695D01*
X168575Y233741D01*
X168487Y233790D01*
X168400Y233842D01*
X168315Y233898D01*
X168232Y233956D01*
X168152Y234018D01*
X168074Y234083D01*
X167998Y234150D01*
X167925Y234220D01*
X167855Y234293D01*
X167788Y234369D01*
X167723Y234447D01*
X167661Y234527D01*
X167603Y234610D01*
X167547Y234695D01*
X167495Y234782D01*
X167446Y234870D01*
X167400Y234961D01*
X167358Y235053D01*
X167319Y235146D01*
X167284Y235241D01*
X167252Y235338D01*
X167224Y235435D01*
X167200Y235533D01*
X167179Y235632D01*
X167162Y235732D01*
X167149Y235833D01*
X167140Y235934D01*
X167134Y236035D01*
X167132Y236136D01*
X167132Y237039D01*
X167132Y256190D02*
X167134Y256308D01*
X167140Y256426D01*
X167149Y256544D01*
X167163Y256661D01*
X167180Y256778D01*
X167201Y256895D01*
X167226Y257010D01*
X167255Y257125D01*
X167288Y257239D01*
X167324Y257351D01*
X167364Y257462D01*
X167407Y257572D01*
X167454Y257681D01*
X167504Y257788D01*
X167559Y257893D01*
X167616Y257996D01*
X167677Y258097D01*
X167741Y258197D01*
X167808Y258294D01*
X167878Y258389D01*
X167952Y258481D01*
X168028Y258572D01*
X168108Y258659D01*
X168190Y258744D01*
X168275Y258826D01*
X168362Y258906D01*
X168453Y258982D01*
X168545Y259056D01*
X168640Y259126D01*
X168737Y259193D01*
X168837Y259257D01*
X168938Y259318D01*
X169041Y259375D01*
X169146Y259430D01*
X169253Y259480D01*
X169362Y259527D01*
X169472Y259570D01*
X169583Y259610D01*
X169695Y259646D01*
X169809Y259679D01*
X169924Y259708D01*
X170039Y259733D01*
X170156Y259754D01*
X170273Y259771D01*
X170390Y259785D01*
X170508Y259794D01*
X170626Y259800D01*
X170744Y259802D01*
X167132Y256190D02*
X167134Y256007D01*
X167141Y255825D01*
X167152Y255643D01*
X167167Y255461D01*
X167187Y255279D01*
X167210Y255098D01*
X167239Y254918D01*
X167271Y254738D01*
X167308Y254559D01*
X167349Y254382D01*
X167395Y254205D01*
X167444Y254029D01*
X167498Y253855D01*
X167556Y253681D01*
X167618Y253510D01*
X167684Y253340D01*
X167755Y253171D01*
X167829Y253004D01*
X167907Y252839D01*
X167989Y252676D01*
X168075Y252515D01*
X168165Y252356D01*
X168259Y252199D01*
X168356Y252045D01*
X168457Y251893D01*
X168562Y251743D01*
X168670Y251596D01*
X168781Y251452D01*
X168896Y251310D01*
X169015Y251171D01*
X169137Y251035D01*
X169262Y250902D01*
X169390Y250772D01*
X179776Y251224D02*
X179894Y251226D01*
X180012Y251232D01*
X180130Y251241D01*
X180247Y251255D01*
X180364Y251272D01*
X180481Y251293D01*
X180596Y251318D01*
X180711Y251347D01*
X180825Y251380D01*
X180937Y251416D01*
X181048Y251456D01*
X181158Y251499D01*
X181267Y251546D01*
X181374Y251596D01*
X181479Y251651D01*
X181582Y251708D01*
X181683Y251769D01*
X181783Y251833D01*
X181880Y251900D01*
X181975Y251970D01*
X182067Y252044D01*
X182158Y252120D01*
X182245Y252200D01*
X182330Y252282D01*
X182412Y252367D01*
X182492Y252454D01*
X182568Y252545D01*
X182642Y252637D01*
X182712Y252732D01*
X182779Y252829D01*
X182843Y252929D01*
X182904Y253030D01*
X182962Y253133D01*
X183016Y253238D01*
X183066Y253345D01*
X183113Y253454D01*
X183157Y253564D01*
X183196Y253675D01*
X183232Y253788D01*
X183265Y253901D01*
X183294Y254016D01*
X183319Y254131D01*
X183340Y254248D01*
X183357Y254365D01*
X183371Y254482D01*
X183380Y254600D01*
X183386Y254718D01*
X183388Y254836D01*
X183386Y254997D01*
X183380Y255159D01*
X183371Y255320D01*
X183357Y255481D01*
X183340Y255641D01*
X183319Y255801D01*
X183294Y255961D01*
X183265Y256120D01*
X183233Y256278D01*
X183197Y256435D01*
X183157Y256591D01*
X183113Y256747D01*
X183065Y256901D01*
X183014Y257054D01*
X182960Y257206D01*
X182901Y257357D01*
X182840Y257506D01*
X182774Y257653D01*
X182705Y257799D01*
X182633Y257944D01*
X182557Y258086D01*
X182478Y258227D01*
X182396Y258366D01*
X182310Y258502D01*
X182221Y258637D01*
X182129Y258770D01*
X182033Y258900D01*
X176615Y253029D02*
X176677Y252928D01*
X176742Y252828D01*
X176811Y252731D01*
X176883Y252636D01*
X176957Y252543D01*
X177035Y252453D01*
X177116Y252365D01*
X177199Y252280D01*
X177285Y252198D01*
X177374Y252119D01*
X177465Y252042D01*
X177559Y251969D01*
X177655Y251898D01*
X177753Y251831D01*
X177853Y251767D01*
X177956Y251706D01*
X178060Y251649D01*
X178166Y251595D01*
X178274Y251545D01*
X178383Y251498D01*
X178494Y251454D01*
X178606Y251414D01*
X178720Y251378D01*
X178834Y251346D01*
X178950Y251317D01*
X179066Y251292D01*
X179183Y251271D01*
X179301Y251254D01*
X179419Y251240D01*
X179538Y251231D01*
X179657Y251225D01*
X179776Y251223D01*
X173905Y257997D02*
X173843Y258098D01*
X173778Y258198D01*
X173709Y258295D01*
X173637Y258390D01*
X173563Y258483D01*
X173485Y258573D01*
X173404Y258661D01*
X173321Y258746D01*
X173235Y258828D01*
X173146Y258907D01*
X173055Y258984D01*
X172961Y259057D01*
X172865Y259128D01*
X172767Y259195D01*
X172667Y259259D01*
X172564Y259320D01*
X172460Y259377D01*
X172354Y259431D01*
X172246Y259481D01*
X172137Y259528D01*
X172026Y259572D01*
X171914Y259612D01*
X171800Y259648D01*
X171686Y259680D01*
X171570Y259709D01*
X171454Y259734D01*
X171337Y259755D01*
X171219Y259772D01*
X171101Y259786D01*
X170982Y259795D01*
X170863Y259801D01*
X170744Y259803D01*
X173905Y257997D02*
X176615Y253030D01*
X170744Y269757D02*
X183388Y269757D01*
X170744Y269756D02*
X170626Y269754D01*
X170508Y269748D01*
X170390Y269739D01*
X170273Y269725D01*
X170156Y269708D01*
X170039Y269687D01*
X169924Y269662D01*
X169809Y269633D01*
X169695Y269600D01*
X169583Y269564D01*
X169472Y269524D01*
X169362Y269481D01*
X169253Y269434D01*
X169146Y269384D01*
X169041Y269329D01*
X168938Y269272D01*
X168837Y269211D01*
X168737Y269147D01*
X168640Y269080D01*
X168545Y269010D01*
X168453Y268936D01*
X168362Y268860D01*
X168275Y268780D01*
X168190Y268698D01*
X168108Y268613D01*
X168028Y268526D01*
X167952Y268435D01*
X167878Y268343D01*
X167808Y268248D01*
X167741Y268151D01*
X167677Y268051D01*
X167616Y267950D01*
X167559Y267847D01*
X167504Y267742D01*
X167454Y267635D01*
X167407Y267526D01*
X167364Y267416D01*
X167324Y267305D01*
X167288Y267193D01*
X167255Y267079D01*
X167226Y266964D01*
X167201Y266849D01*
X167180Y266732D01*
X167163Y266615D01*
X167149Y266498D01*
X167140Y266380D01*
X167134Y266262D01*
X167132Y266144D01*
X167132Y264338D01*
X181582Y276824D02*
X183388Y276824D01*
X183388Y285855D01*
X167132Y281339D01*
X167132Y300618D02*
X177969Y300618D01*
X182485Y300166D02*
X183388Y300166D01*
X183388Y301069D01*
X182485Y301069D01*
X182485Y300166D01*
X180679Y307793D02*
X167132Y307793D01*
X180679Y307793D02*
X180783Y307795D01*
X180886Y307801D01*
X180990Y307811D01*
X181093Y307825D01*
X181195Y307843D01*
X181296Y307864D01*
X181397Y307890D01*
X181496Y307919D01*
X181595Y307952D01*
X181692Y307989D01*
X181787Y308030D01*
X181881Y308074D01*
X181973Y308122D01*
X182063Y308173D01*
X182152Y308228D01*
X182238Y308286D01*
X182321Y308348D01*
X182403Y308412D01*
X182481Y308480D01*
X182557Y308550D01*
X182631Y308623D01*
X182701Y308700D01*
X182769Y308778D01*
X182833Y308860D01*
X182895Y308943D01*
X182953Y309029D01*
X183008Y309118D01*
X183059Y309208D01*
X183107Y309300D01*
X183151Y309394D01*
X183192Y309489D01*
X183229Y309586D01*
X183262Y309685D01*
X183291Y309784D01*
X183317Y309885D01*
X183338Y309986D01*
X183356Y310088D01*
X183370Y310191D01*
X183380Y310295D01*
X183386Y310398D01*
X183388Y310502D01*
X183388Y311405D01*
X177969Y311405D02*
X177969Y305987D01*
X183388Y324760D02*
X171648Y324760D01*
X171648Y324759D02*
X171515Y324761D01*
X171383Y324767D01*
X171251Y324777D01*
X171119Y324790D01*
X170987Y324808D01*
X170857Y324829D01*
X170726Y324854D01*
X170597Y324883D01*
X170469Y324916D01*
X170341Y324952D01*
X170215Y324992D01*
X170090Y325036D01*
X169966Y325084D01*
X169844Y325135D01*
X169723Y325190D01*
X169604Y325248D01*
X169486Y325310D01*
X169371Y325375D01*
X169257Y325444D01*
X169146Y325515D01*
X169037Y325591D01*
X168930Y325669D01*
X168825Y325750D01*
X168723Y325835D01*
X168623Y325922D01*
X168526Y326012D01*
X168431Y326105D01*
X168340Y326201D01*
X168251Y326299D01*
X168165Y326400D01*
X168082Y326504D01*
X168002Y326610D01*
X167926Y326718D01*
X167852Y326828D01*
X167782Y326941D01*
X167715Y327055D01*
X167652Y327172D01*
X167592Y327290D01*
X167535Y327410D01*
X167482Y327532D01*
X167433Y327655D01*
X167387Y327779D01*
X167345Y327905D01*
X167307Y328032D01*
X167272Y328160D01*
X167241Y328289D01*
X167214Y328418D01*
X167191Y328549D01*
X167171Y328680D01*
X167156Y328812D01*
X167144Y328944D01*
X167136Y329076D01*
X167132Y329209D01*
X167132Y329341D01*
X167136Y329474D01*
X167144Y329606D01*
X167156Y329738D01*
X167171Y329870D01*
X167191Y330001D01*
X167214Y330132D01*
X167241Y330261D01*
X167272Y330390D01*
X167307Y330518D01*
X167345Y330645D01*
X167387Y330771D01*
X167433Y330895D01*
X167482Y331018D01*
X167535Y331140D01*
X167592Y331260D01*
X167652Y331378D01*
X167715Y331495D01*
X167782Y331609D01*
X167852Y331722D01*
X167926Y331832D01*
X168002Y331940D01*
X168082Y332046D01*
X168165Y332150D01*
X168251Y332251D01*
X168340Y332349D01*
X168431Y332445D01*
X168526Y332538D01*
X168623Y332628D01*
X168723Y332715D01*
X168825Y332800D01*
X168930Y332881D01*
X169037Y332959D01*
X169146Y333035D01*
X169257Y333106D01*
X169371Y333175D01*
X169486Y333240D01*
X169604Y333302D01*
X169723Y333360D01*
X169844Y333415D01*
X169966Y333466D01*
X170090Y333514D01*
X170215Y333558D01*
X170341Y333598D01*
X170469Y333634D01*
X170597Y333667D01*
X170726Y333696D01*
X170857Y333721D01*
X170987Y333742D01*
X171119Y333760D01*
X171251Y333773D01*
X171383Y333783D01*
X171515Y333789D01*
X171648Y333791D01*
X183388Y333791D01*
X183388Y344524D02*
X170744Y340912D01*
X170744Y349943D01*
X174357Y347234D02*
X167132Y347234D01*
X169841Y365262D02*
X177969Y365262D01*
X169841Y365262D02*
X169740Y365264D01*
X169639Y365270D01*
X169538Y365279D01*
X169437Y365292D01*
X169337Y365309D01*
X169238Y365330D01*
X169140Y365354D01*
X169043Y365382D01*
X168946Y365414D01*
X168851Y365449D01*
X168758Y365488D01*
X168666Y365530D01*
X168575Y365576D01*
X168487Y365625D01*
X168400Y365677D01*
X168315Y365733D01*
X168232Y365791D01*
X168152Y365853D01*
X168074Y365918D01*
X167998Y365985D01*
X167925Y366055D01*
X167855Y366128D01*
X167788Y366204D01*
X167723Y366282D01*
X167661Y366362D01*
X167603Y366445D01*
X167547Y366530D01*
X167495Y366617D01*
X167446Y366705D01*
X167400Y366796D01*
X167358Y366888D01*
X167319Y366981D01*
X167284Y367076D01*
X167252Y367173D01*
X167224Y367270D01*
X167200Y367368D01*
X167179Y367467D01*
X167162Y367567D01*
X167149Y367668D01*
X167140Y367769D01*
X167134Y367870D01*
X167132Y367971D01*
X167132Y372487D01*
X177969Y372487D01*
X173454Y380684D02*
X171648Y385200D01*
X173454Y380684D02*
X173491Y380596D01*
X173532Y380510D01*
X173576Y380425D01*
X173624Y380342D01*
X173675Y380262D01*
X173729Y380183D01*
X173787Y380107D01*
X173847Y380033D01*
X173911Y379961D01*
X173977Y379893D01*
X174047Y379827D01*
X174118Y379764D01*
X174193Y379703D01*
X174269Y379646D01*
X174348Y379593D01*
X174429Y379542D01*
X174512Y379495D01*
X174597Y379451D01*
X174684Y379411D01*
X174772Y379374D01*
X174862Y379341D01*
X174953Y379311D01*
X175045Y379286D01*
X175138Y379264D01*
X175232Y379246D01*
X175326Y379231D01*
X175421Y379221D01*
X175517Y379215D01*
X175612Y379212D01*
X175708Y379213D01*
X175803Y379219D01*
X175899Y379228D01*
X175993Y379241D01*
X176087Y379257D01*
X176181Y379278D01*
X176273Y379303D01*
X176364Y379331D01*
X176454Y379363D01*
X176543Y379398D01*
X176630Y379437D01*
X176716Y379480D01*
X176800Y379526D01*
X176881Y379576D01*
X176961Y379628D01*
X177039Y379684D01*
X177114Y379744D01*
X177186Y379806D01*
X177256Y379871D01*
X177324Y379939D01*
X177388Y380009D01*
X177450Y380082D01*
X177508Y380158D01*
X177564Y380236D01*
X177616Y380316D01*
X177665Y380398D01*
X177710Y380482D01*
X177752Y380568D01*
X177791Y380655D01*
X177826Y380744D01*
X177857Y380835D01*
X177884Y380926D01*
X177908Y381019D01*
X177928Y381112D01*
X177944Y381206D01*
X177956Y381301D01*
X177965Y381396D01*
X177969Y381492D01*
X177970Y381587D01*
X177963Y381834D01*
X177951Y382080D01*
X177933Y382326D01*
X177908Y382572D01*
X177878Y382816D01*
X177842Y383060D01*
X177801Y383303D01*
X177753Y383545D01*
X177699Y383786D01*
X177640Y384025D01*
X177575Y384263D01*
X177504Y384499D01*
X177428Y384734D01*
X177346Y384967D01*
X177258Y385197D01*
X177165Y385425D01*
X177067Y385652D01*
X171647Y385200D02*
X171610Y385288D01*
X171569Y385374D01*
X171525Y385459D01*
X171477Y385542D01*
X171426Y385622D01*
X171372Y385701D01*
X171314Y385777D01*
X171254Y385851D01*
X171190Y385923D01*
X171124Y385991D01*
X171054Y386057D01*
X170983Y386120D01*
X170908Y386181D01*
X170832Y386238D01*
X170753Y386291D01*
X170672Y386342D01*
X170589Y386389D01*
X170504Y386433D01*
X170417Y386473D01*
X170329Y386510D01*
X170239Y386543D01*
X170148Y386573D01*
X170056Y386598D01*
X169963Y386620D01*
X169869Y386638D01*
X169775Y386653D01*
X169680Y386663D01*
X169584Y386669D01*
X169489Y386672D01*
X169393Y386671D01*
X169298Y386665D01*
X169202Y386656D01*
X169108Y386643D01*
X169014Y386627D01*
X168920Y386606D01*
X168828Y386581D01*
X168737Y386553D01*
X168647Y386521D01*
X168558Y386486D01*
X168471Y386447D01*
X168385Y386404D01*
X168301Y386358D01*
X168220Y386308D01*
X168140Y386256D01*
X168062Y386200D01*
X167987Y386140D01*
X167915Y386078D01*
X167845Y386013D01*
X167777Y385945D01*
X167713Y385875D01*
X167651Y385802D01*
X167593Y385726D01*
X167537Y385648D01*
X167485Y385568D01*
X167436Y385486D01*
X167391Y385402D01*
X167349Y385316D01*
X167310Y385229D01*
X167275Y385140D01*
X167244Y385049D01*
X167217Y384958D01*
X167193Y384865D01*
X167173Y384772D01*
X167157Y384678D01*
X167145Y384583D01*
X167136Y384488D01*
X167132Y384392D01*
X167131Y384297D01*
X167132Y384297D02*
X167141Y383935D01*
X167159Y383573D01*
X167186Y383212D01*
X167221Y382852D01*
X167264Y382492D01*
X167316Y382133D01*
X167377Y381776D01*
X167446Y381421D01*
X167523Y381067D01*
X167609Y380715D01*
X167703Y380365D01*
X167806Y380017D01*
X167916Y379672D01*
X168035Y379330D01*
X167132Y395586D02*
X167132Y400102D01*
X167132Y395586D02*
X167134Y395485D01*
X167140Y395384D01*
X167149Y395283D01*
X167162Y395182D01*
X167179Y395082D01*
X167200Y394983D01*
X167224Y394885D01*
X167252Y394788D01*
X167284Y394691D01*
X167319Y394596D01*
X167358Y394503D01*
X167400Y394411D01*
X167446Y394320D01*
X167495Y394232D01*
X167547Y394145D01*
X167603Y394060D01*
X167661Y393977D01*
X167723Y393897D01*
X167788Y393819D01*
X167855Y393743D01*
X167925Y393670D01*
X167998Y393600D01*
X168074Y393533D01*
X168152Y393468D01*
X168232Y393406D01*
X168315Y393348D01*
X168400Y393292D01*
X168487Y393240D01*
X168575Y393191D01*
X168666Y393145D01*
X168758Y393103D01*
X168851Y393064D01*
X168946Y393029D01*
X169043Y392997D01*
X169140Y392969D01*
X169238Y392945D01*
X169337Y392924D01*
X169437Y392907D01*
X169538Y392894D01*
X169639Y392885D01*
X169740Y392879D01*
X169841Y392877D01*
X174357Y392877D01*
X174476Y392879D01*
X174596Y392885D01*
X174715Y392895D01*
X174833Y392909D01*
X174952Y392926D01*
X175069Y392948D01*
X175186Y392973D01*
X175301Y393003D01*
X175416Y393036D01*
X175530Y393073D01*
X175642Y393113D01*
X175753Y393158D01*
X175862Y393206D01*
X175970Y393257D01*
X176076Y393312D01*
X176180Y393371D01*
X176282Y393433D01*
X176382Y393498D01*
X176480Y393567D01*
X176576Y393639D01*
X176669Y393714D01*
X176759Y393791D01*
X176847Y393872D01*
X176932Y393956D01*
X177014Y394043D01*
X177094Y394132D01*
X177170Y394224D01*
X177244Y394318D01*
X177314Y394415D01*
X177381Y394513D01*
X177445Y394614D01*
X177505Y394718D01*
X177562Y394823D01*
X177615Y394930D01*
X177665Y395038D01*
X177711Y395148D01*
X177753Y395260D01*
X177792Y395373D01*
X177827Y395487D01*
X177858Y395602D01*
X177886Y395719D01*
X177909Y395836D01*
X177929Y395953D01*
X177945Y396072D01*
X177957Y396191D01*
X177965Y396310D01*
X177969Y396429D01*
X177969Y396549D01*
X177965Y396668D01*
X177957Y396787D01*
X177945Y396906D01*
X177929Y397025D01*
X177909Y397142D01*
X177886Y397259D01*
X177858Y397376D01*
X177827Y397491D01*
X177792Y397605D01*
X177753Y397718D01*
X177711Y397830D01*
X177665Y397940D01*
X177615Y398048D01*
X177562Y398155D01*
X177505Y398260D01*
X177445Y398364D01*
X177381Y398465D01*
X177314Y398563D01*
X177244Y398660D01*
X177170Y398754D01*
X177094Y398846D01*
X177014Y398935D01*
X176932Y399022D01*
X176847Y399106D01*
X176759Y399187D01*
X176669Y399264D01*
X176576Y399339D01*
X176480Y399411D01*
X176382Y399480D01*
X176282Y399545D01*
X176180Y399607D01*
X176076Y399666D01*
X175970Y399721D01*
X175862Y399772D01*
X175753Y399820D01*
X175642Y399865D01*
X175530Y399905D01*
X175416Y399942D01*
X175301Y399975D01*
X175186Y400005D01*
X175069Y400030D01*
X174952Y400052D01*
X174833Y400069D01*
X174715Y400083D01*
X174596Y400093D01*
X174476Y400099D01*
X174357Y400101D01*
X174357Y400102D02*
X172551Y400102D01*
X172551Y392877D01*
X167132Y413576D02*
X183388Y413576D01*
X167132Y413576D02*
X167132Y409060D01*
X167134Y408959D01*
X167140Y408858D01*
X167149Y408757D01*
X167162Y408656D01*
X167179Y408556D01*
X167200Y408457D01*
X167224Y408359D01*
X167252Y408262D01*
X167284Y408165D01*
X167319Y408070D01*
X167358Y407977D01*
X167400Y407885D01*
X167446Y407794D01*
X167495Y407706D01*
X167547Y407619D01*
X167603Y407534D01*
X167661Y407451D01*
X167723Y407371D01*
X167788Y407293D01*
X167855Y407217D01*
X167925Y407144D01*
X167998Y407074D01*
X168074Y407007D01*
X168152Y406942D01*
X168232Y406880D01*
X168315Y406822D01*
X168400Y406766D01*
X168487Y406714D01*
X168575Y406665D01*
X168666Y406619D01*
X168758Y406577D01*
X168851Y406538D01*
X168946Y406503D01*
X169043Y406471D01*
X169140Y406443D01*
X169238Y406419D01*
X169337Y406398D01*
X169437Y406381D01*
X169538Y406368D01*
X169639Y406359D01*
X169740Y406353D01*
X169841Y406351D01*
X175260Y406351D01*
X175361Y406353D01*
X175462Y406359D01*
X175563Y406368D01*
X175664Y406381D01*
X175764Y406398D01*
X175863Y406419D01*
X175961Y406443D01*
X176058Y406471D01*
X176155Y406503D01*
X176250Y406538D01*
X176343Y406577D01*
X176435Y406619D01*
X176526Y406665D01*
X176615Y406714D01*
X176701Y406766D01*
X176786Y406822D01*
X176869Y406880D01*
X176949Y406942D01*
X177027Y407007D01*
X177103Y407074D01*
X177176Y407144D01*
X177246Y407217D01*
X177313Y407293D01*
X177378Y407371D01*
X177440Y407451D01*
X177498Y407534D01*
X177554Y407619D01*
X177606Y407706D01*
X177655Y407794D01*
X177701Y407885D01*
X177743Y407977D01*
X177782Y408070D01*
X177817Y408165D01*
X177849Y408262D01*
X177877Y408359D01*
X177901Y408457D01*
X177922Y408556D01*
X177939Y408656D01*
X177952Y408757D01*
X177961Y408858D01*
X177967Y408959D01*
X177969Y409060D01*
X177969Y413576D01*
X129413Y177074D02*
X113157Y177074D01*
X113157Y184299D01*
X116769Y189932D02*
X120382Y189932D01*
X120501Y189934D01*
X120621Y189940D01*
X120740Y189950D01*
X120858Y189964D01*
X120977Y189981D01*
X121094Y190003D01*
X121211Y190028D01*
X121326Y190058D01*
X121441Y190091D01*
X121555Y190128D01*
X121667Y190168D01*
X121778Y190213D01*
X121887Y190261D01*
X121995Y190312D01*
X122101Y190367D01*
X122205Y190426D01*
X122307Y190488D01*
X122407Y190553D01*
X122505Y190622D01*
X122601Y190694D01*
X122694Y190769D01*
X122784Y190846D01*
X122872Y190927D01*
X122957Y191011D01*
X123039Y191098D01*
X123119Y191187D01*
X123195Y191279D01*
X123269Y191373D01*
X123339Y191470D01*
X123406Y191568D01*
X123470Y191669D01*
X123530Y191773D01*
X123587Y191878D01*
X123640Y191985D01*
X123690Y192093D01*
X123736Y192203D01*
X123778Y192315D01*
X123817Y192428D01*
X123852Y192542D01*
X123883Y192657D01*
X123911Y192774D01*
X123934Y192891D01*
X123954Y193008D01*
X123970Y193127D01*
X123982Y193246D01*
X123990Y193365D01*
X123994Y193484D01*
X123994Y193604D01*
X123990Y193723D01*
X123982Y193842D01*
X123970Y193961D01*
X123954Y194080D01*
X123934Y194197D01*
X123911Y194314D01*
X123883Y194431D01*
X123852Y194546D01*
X123817Y194660D01*
X123778Y194773D01*
X123736Y194885D01*
X123690Y194995D01*
X123640Y195103D01*
X123587Y195210D01*
X123530Y195315D01*
X123470Y195419D01*
X123406Y195520D01*
X123339Y195618D01*
X123269Y195715D01*
X123195Y195809D01*
X123119Y195901D01*
X123039Y195990D01*
X122957Y196077D01*
X122872Y196161D01*
X122784Y196242D01*
X122694Y196319D01*
X122601Y196394D01*
X122505Y196466D01*
X122407Y196535D01*
X122307Y196600D01*
X122205Y196662D01*
X122101Y196721D01*
X121995Y196776D01*
X121887Y196827D01*
X121778Y196875D01*
X121667Y196920D01*
X121555Y196960D01*
X121441Y196997D01*
X121326Y197030D01*
X121211Y197060D01*
X121094Y197085D01*
X120977Y197107D01*
X120858Y197124D01*
X120740Y197138D01*
X120621Y197148D01*
X120501Y197154D01*
X120382Y197156D01*
X120382Y197157D02*
X116769Y197157D01*
X116769Y197156D02*
X116650Y197154D01*
X116530Y197148D01*
X116411Y197138D01*
X116293Y197124D01*
X116174Y197107D01*
X116057Y197085D01*
X115940Y197060D01*
X115825Y197030D01*
X115710Y196997D01*
X115596Y196960D01*
X115484Y196920D01*
X115373Y196875D01*
X115264Y196827D01*
X115156Y196776D01*
X115050Y196721D01*
X114946Y196662D01*
X114844Y196600D01*
X114744Y196535D01*
X114646Y196466D01*
X114550Y196394D01*
X114457Y196319D01*
X114367Y196242D01*
X114279Y196161D01*
X114194Y196077D01*
X114112Y195990D01*
X114032Y195901D01*
X113956Y195809D01*
X113882Y195715D01*
X113812Y195618D01*
X113745Y195520D01*
X113681Y195419D01*
X113621Y195315D01*
X113564Y195210D01*
X113511Y195103D01*
X113461Y194995D01*
X113415Y194885D01*
X113373Y194773D01*
X113334Y194660D01*
X113299Y194546D01*
X113268Y194431D01*
X113240Y194314D01*
X113217Y194197D01*
X113197Y194080D01*
X113181Y193961D01*
X113169Y193842D01*
X113161Y193723D01*
X113157Y193604D01*
X113157Y193484D01*
X113161Y193365D01*
X113169Y193246D01*
X113181Y193127D01*
X113197Y193008D01*
X113217Y192891D01*
X113240Y192774D01*
X113268Y192657D01*
X113299Y192542D01*
X113334Y192428D01*
X113373Y192315D01*
X113415Y192203D01*
X113461Y192093D01*
X113511Y191985D01*
X113564Y191878D01*
X113621Y191773D01*
X113681Y191669D01*
X113745Y191568D01*
X113812Y191470D01*
X113882Y191373D01*
X113956Y191279D01*
X114032Y191187D01*
X114112Y191098D01*
X114194Y191011D01*
X114279Y190927D01*
X114367Y190846D01*
X114457Y190769D01*
X114550Y190694D01*
X114646Y190622D01*
X114744Y190553D01*
X114844Y190488D01*
X114946Y190426D01*
X115050Y190367D01*
X115156Y190312D01*
X115264Y190261D01*
X115373Y190213D01*
X115484Y190168D01*
X115596Y190128D01*
X115710Y190091D01*
X115825Y190058D01*
X115940Y190028D01*
X116057Y190003D01*
X116174Y189981D01*
X116293Y189964D01*
X116411Y189950D01*
X116530Y189940D01*
X116650Y189934D01*
X116769Y189932D01*
X113157Y204230D02*
X129413Y204230D01*
X129413Y208746D01*
X129411Y208879D01*
X129405Y209011D01*
X129395Y209143D01*
X129382Y209275D01*
X129364Y209407D01*
X129343Y209537D01*
X129318Y209668D01*
X129289Y209797D01*
X129256Y209925D01*
X129220Y210053D01*
X129180Y210179D01*
X129136Y210304D01*
X129088Y210428D01*
X129037Y210550D01*
X128982Y210671D01*
X128924Y210790D01*
X128862Y210908D01*
X128797Y211023D01*
X128728Y211137D01*
X128657Y211248D01*
X128581Y211357D01*
X128503Y211464D01*
X128422Y211569D01*
X128337Y211671D01*
X128250Y211771D01*
X128160Y211868D01*
X128067Y211963D01*
X127971Y212054D01*
X127873Y212143D01*
X127772Y212229D01*
X127668Y212312D01*
X127562Y212392D01*
X127454Y212468D01*
X127344Y212542D01*
X127231Y212612D01*
X127117Y212679D01*
X127000Y212742D01*
X126882Y212802D01*
X126762Y212859D01*
X126640Y212912D01*
X126517Y212961D01*
X126393Y213007D01*
X126267Y213049D01*
X126140Y213087D01*
X126012Y213122D01*
X125883Y213153D01*
X125754Y213180D01*
X125623Y213203D01*
X125492Y213223D01*
X125360Y213238D01*
X125228Y213250D01*
X125096Y213258D01*
X124963Y213262D01*
X124831Y213262D01*
X124698Y213258D01*
X124566Y213250D01*
X124434Y213238D01*
X124302Y213223D01*
X124171Y213203D01*
X124040Y213180D01*
X123911Y213153D01*
X123782Y213122D01*
X123654Y213087D01*
X123527Y213049D01*
X123401Y213007D01*
X123277Y212961D01*
X123154Y212912D01*
X123032Y212859D01*
X122912Y212802D01*
X122794Y212742D01*
X122677Y212679D01*
X122563Y212612D01*
X122450Y212542D01*
X122340Y212468D01*
X122232Y212392D01*
X122126Y212312D01*
X122022Y212229D01*
X121921Y212143D01*
X121823Y212054D01*
X121727Y211963D01*
X121634Y211868D01*
X121544Y211771D01*
X121457Y211671D01*
X121372Y211569D01*
X121291Y211464D01*
X121213Y211357D01*
X121137Y211248D01*
X121066Y211137D01*
X120997Y211023D01*
X120932Y210908D01*
X120870Y210790D01*
X120812Y210671D01*
X120757Y210550D01*
X120706Y210428D01*
X120658Y210304D01*
X120614Y210179D01*
X120574Y210053D01*
X120538Y209925D01*
X120505Y209797D01*
X120476Y209668D01*
X120451Y209537D01*
X120430Y209407D01*
X120412Y209275D01*
X120399Y209143D01*
X120389Y209011D01*
X120383Y208879D01*
X120381Y208746D01*
X120382Y208746D02*
X120382Y204230D01*
X120382Y209649D02*
X113157Y213261D01*
X119479Y222719D02*
X119479Y226783D01*
X119479Y222719D02*
X119477Y222607D01*
X119471Y222496D01*
X119461Y222385D01*
X119448Y222274D01*
X119430Y222164D01*
X119408Y222055D01*
X119383Y221946D01*
X119354Y221838D01*
X119321Y221732D01*
X119284Y221626D01*
X119244Y221522D01*
X119200Y221420D01*
X119152Y221319D01*
X119101Y221220D01*
X119046Y221122D01*
X118988Y221027D01*
X118927Y220934D01*
X118862Y220843D01*
X118794Y220754D01*
X118723Y220668D01*
X118650Y220585D01*
X118573Y220504D01*
X118493Y220425D01*
X118411Y220350D01*
X118326Y220278D01*
X118239Y220208D01*
X118149Y220142D01*
X118057Y220079D01*
X117962Y220019D01*
X117866Y219963D01*
X117768Y219910D01*
X117668Y219861D01*
X117566Y219815D01*
X117463Y219773D01*
X117358Y219734D01*
X117252Y219699D01*
X117145Y219668D01*
X117037Y219641D01*
X116928Y219617D01*
X116818Y219598D01*
X116708Y219582D01*
X116597Y219570D01*
X116485Y219562D01*
X116374Y219558D01*
X116262Y219558D01*
X116151Y219562D01*
X116039Y219570D01*
X115928Y219582D01*
X115818Y219598D01*
X115708Y219617D01*
X115599Y219641D01*
X115491Y219668D01*
X115384Y219699D01*
X115278Y219734D01*
X115173Y219773D01*
X115070Y219815D01*
X114968Y219861D01*
X114868Y219910D01*
X114770Y219963D01*
X114674Y220019D01*
X114579Y220079D01*
X114487Y220142D01*
X114397Y220208D01*
X114310Y220278D01*
X114225Y220350D01*
X114143Y220425D01*
X114063Y220504D01*
X113986Y220585D01*
X113913Y220668D01*
X113842Y220754D01*
X113774Y220843D01*
X113709Y220934D01*
X113648Y221027D01*
X113590Y221122D01*
X113535Y221220D01*
X113484Y221319D01*
X113436Y221420D01*
X113392Y221522D01*
X113352Y221626D01*
X113315Y221732D01*
X113282Y221838D01*
X113253Y221946D01*
X113228Y222055D01*
X113206Y222164D01*
X113188Y222274D01*
X113175Y222385D01*
X113165Y222496D01*
X113159Y222607D01*
X113157Y222719D01*
X113157Y226783D01*
X121285Y226783D01*
X121285Y226782D02*
X121386Y226780D01*
X121487Y226774D01*
X121588Y226765D01*
X121689Y226752D01*
X121789Y226735D01*
X121888Y226714D01*
X121986Y226690D01*
X122083Y226662D01*
X122180Y226630D01*
X122275Y226595D01*
X122368Y226556D01*
X122460Y226514D01*
X122551Y226468D01*
X122640Y226419D01*
X122726Y226367D01*
X122811Y226311D01*
X122894Y226253D01*
X122974Y226191D01*
X123052Y226126D01*
X123128Y226059D01*
X123201Y225989D01*
X123271Y225916D01*
X123338Y225840D01*
X123403Y225762D01*
X123465Y225682D01*
X123523Y225599D01*
X123579Y225514D01*
X123631Y225428D01*
X123680Y225339D01*
X123726Y225248D01*
X123768Y225156D01*
X123807Y225063D01*
X123842Y224968D01*
X123874Y224871D01*
X123902Y224774D01*
X123926Y224676D01*
X123947Y224577D01*
X123964Y224477D01*
X123977Y224376D01*
X123986Y224275D01*
X123992Y224174D01*
X123994Y224073D01*
X123994Y220461D01*
X122188Y242907D02*
X122188Y247422D01*
X122189Y247422D02*
X122187Y247555D01*
X122181Y247687D01*
X122171Y247819D01*
X122158Y247951D01*
X122140Y248083D01*
X122119Y248213D01*
X122094Y248344D01*
X122065Y248473D01*
X122032Y248601D01*
X121996Y248729D01*
X121956Y248855D01*
X121912Y248980D01*
X121864Y249104D01*
X121813Y249226D01*
X121758Y249347D01*
X121700Y249466D01*
X121638Y249584D01*
X121573Y249699D01*
X121504Y249813D01*
X121433Y249924D01*
X121357Y250033D01*
X121279Y250140D01*
X121198Y250245D01*
X121113Y250347D01*
X121026Y250447D01*
X120936Y250544D01*
X120843Y250639D01*
X120747Y250730D01*
X120649Y250819D01*
X120548Y250905D01*
X120444Y250988D01*
X120338Y251068D01*
X120230Y251144D01*
X120120Y251218D01*
X120007Y251288D01*
X119893Y251355D01*
X119776Y251418D01*
X119658Y251478D01*
X119538Y251535D01*
X119416Y251588D01*
X119293Y251637D01*
X119169Y251683D01*
X119043Y251725D01*
X118916Y251763D01*
X118788Y251798D01*
X118659Y251829D01*
X118530Y251856D01*
X118399Y251879D01*
X118268Y251899D01*
X118136Y251914D01*
X118004Y251926D01*
X117872Y251934D01*
X117739Y251938D01*
X117607Y251938D01*
X117474Y251934D01*
X117342Y251926D01*
X117210Y251914D01*
X117078Y251899D01*
X116947Y251879D01*
X116816Y251856D01*
X116687Y251829D01*
X116558Y251798D01*
X116430Y251763D01*
X116303Y251725D01*
X116177Y251683D01*
X116053Y251637D01*
X115930Y251588D01*
X115808Y251535D01*
X115688Y251478D01*
X115570Y251418D01*
X115453Y251355D01*
X115339Y251288D01*
X115226Y251218D01*
X115116Y251144D01*
X115008Y251068D01*
X114902Y250988D01*
X114798Y250905D01*
X114697Y250819D01*
X114599Y250730D01*
X114503Y250639D01*
X114410Y250544D01*
X114320Y250447D01*
X114233Y250347D01*
X114148Y250245D01*
X114067Y250140D01*
X113989Y250033D01*
X113913Y249924D01*
X113842Y249813D01*
X113773Y249699D01*
X113708Y249584D01*
X113646Y249466D01*
X113588Y249347D01*
X113533Y249226D01*
X113482Y249104D01*
X113434Y248980D01*
X113390Y248855D01*
X113350Y248729D01*
X113314Y248601D01*
X113281Y248473D01*
X113252Y248344D01*
X113227Y248213D01*
X113206Y248083D01*
X113188Y247951D01*
X113175Y247819D01*
X113165Y247687D01*
X113159Y247555D01*
X113157Y247422D01*
X113157Y242907D01*
X129413Y242907D01*
X129413Y247422D01*
X129411Y247541D01*
X129405Y247661D01*
X129395Y247780D01*
X129381Y247898D01*
X129364Y248017D01*
X129342Y248134D01*
X129317Y248251D01*
X129287Y248366D01*
X129254Y248481D01*
X129217Y248595D01*
X129177Y248707D01*
X129132Y248818D01*
X129084Y248927D01*
X129033Y249035D01*
X128978Y249141D01*
X128919Y249245D01*
X128857Y249347D01*
X128792Y249447D01*
X128723Y249545D01*
X128651Y249641D01*
X128576Y249734D01*
X128499Y249824D01*
X128418Y249912D01*
X128334Y249997D01*
X128247Y250079D01*
X128158Y250159D01*
X128066Y250235D01*
X127972Y250309D01*
X127875Y250379D01*
X127777Y250446D01*
X127676Y250510D01*
X127572Y250570D01*
X127467Y250627D01*
X127360Y250680D01*
X127252Y250730D01*
X127142Y250776D01*
X127030Y250818D01*
X126917Y250857D01*
X126803Y250892D01*
X126688Y250923D01*
X126571Y250951D01*
X126454Y250974D01*
X126337Y250994D01*
X126218Y251010D01*
X126099Y251022D01*
X125980Y251030D01*
X125861Y251034D01*
X125741Y251034D01*
X125622Y251030D01*
X125503Y251022D01*
X125384Y251010D01*
X125265Y250994D01*
X125148Y250974D01*
X125031Y250951D01*
X124914Y250923D01*
X124799Y250892D01*
X124685Y250857D01*
X124572Y250818D01*
X124460Y250776D01*
X124350Y250730D01*
X124242Y250680D01*
X124135Y250627D01*
X124030Y250570D01*
X123926Y250510D01*
X123825Y250446D01*
X123727Y250379D01*
X123630Y250309D01*
X123536Y250235D01*
X123444Y250159D01*
X123355Y250079D01*
X123268Y249997D01*
X123184Y249912D01*
X123103Y249824D01*
X123026Y249734D01*
X122951Y249641D01*
X122879Y249545D01*
X122810Y249447D01*
X122745Y249347D01*
X122683Y249245D01*
X122624Y249141D01*
X122569Y249035D01*
X122518Y248927D01*
X122470Y248818D01*
X122425Y248707D01*
X122385Y248595D01*
X122348Y248481D01*
X122315Y248366D01*
X122285Y248251D01*
X122260Y248134D01*
X122238Y248017D01*
X122221Y247898D01*
X122207Y247780D01*
X122197Y247661D01*
X122191Y247541D01*
X122189Y247422D01*
X113157Y260376D02*
X113157Y264892D01*
X113157Y260376D02*
X113159Y260275D01*
X113165Y260174D01*
X113174Y260073D01*
X113187Y259972D01*
X113204Y259872D01*
X113225Y259773D01*
X113249Y259675D01*
X113277Y259578D01*
X113309Y259481D01*
X113344Y259386D01*
X113383Y259293D01*
X113425Y259201D01*
X113471Y259110D01*
X113520Y259022D01*
X113572Y258935D01*
X113628Y258850D01*
X113686Y258767D01*
X113748Y258687D01*
X113813Y258609D01*
X113880Y258533D01*
X113950Y258460D01*
X114023Y258390D01*
X114099Y258323D01*
X114177Y258258D01*
X114257Y258196D01*
X114340Y258138D01*
X114425Y258082D01*
X114512Y258030D01*
X114600Y257981D01*
X114691Y257935D01*
X114783Y257893D01*
X114876Y257854D01*
X114971Y257819D01*
X115068Y257787D01*
X115165Y257759D01*
X115263Y257735D01*
X115362Y257714D01*
X115462Y257697D01*
X115563Y257684D01*
X115664Y257675D01*
X115765Y257669D01*
X115866Y257667D01*
X120382Y257667D01*
X120501Y257669D01*
X120621Y257675D01*
X120740Y257685D01*
X120858Y257699D01*
X120977Y257716D01*
X121094Y257738D01*
X121211Y257763D01*
X121326Y257793D01*
X121441Y257826D01*
X121555Y257863D01*
X121667Y257903D01*
X121778Y257948D01*
X121887Y257996D01*
X121995Y258047D01*
X122101Y258102D01*
X122205Y258161D01*
X122307Y258223D01*
X122407Y258288D01*
X122505Y258357D01*
X122601Y258429D01*
X122694Y258504D01*
X122784Y258581D01*
X122872Y258662D01*
X122957Y258746D01*
X123039Y258833D01*
X123119Y258922D01*
X123195Y259014D01*
X123269Y259108D01*
X123339Y259205D01*
X123406Y259303D01*
X123470Y259404D01*
X123530Y259508D01*
X123587Y259613D01*
X123640Y259720D01*
X123690Y259828D01*
X123736Y259938D01*
X123778Y260050D01*
X123817Y260163D01*
X123852Y260277D01*
X123883Y260392D01*
X123911Y260509D01*
X123934Y260626D01*
X123954Y260743D01*
X123970Y260862D01*
X123982Y260981D01*
X123990Y261100D01*
X123994Y261219D01*
X123994Y261339D01*
X123990Y261458D01*
X123982Y261577D01*
X123970Y261696D01*
X123954Y261815D01*
X123934Y261932D01*
X123911Y262049D01*
X123883Y262166D01*
X123852Y262281D01*
X123817Y262395D01*
X123778Y262508D01*
X123736Y262620D01*
X123690Y262730D01*
X123640Y262838D01*
X123587Y262945D01*
X123530Y263050D01*
X123470Y263154D01*
X123406Y263255D01*
X123339Y263353D01*
X123269Y263450D01*
X123195Y263544D01*
X123119Y263636D01*
X123039Y263725D01*
X122957Y263812D01*
X122872Y263896D01*
X122784Y263977D01*
X122694Y264054D01*
X122601Y264129D01*
X122505Y264201D01*
X122407Y264270D01*
X122307Y264335D01*
X122205Y264397D01*
X122101Y264456D01*
X121995Y264511D01*
X121887Y264562D01*
X121778Y264610D01*
X121667Y264655D01*
X121555Y264695D01*
X121441Y264732D01*
X121326Y264765D01*
X121211Y264795D01*
X121094Y264820D01*
X120977Y264842D01*
X120858Y264859D01*
X120740Y264873D01*
X120621Y264883D01*
X120501Y264889D01*
X120382Y264891D01*
X120382Y264892D02*
X118576Y264892D01*
X118576Y257667D01*
X113157Y273923D02*
X113157Y278439D01*
X113157Y273923D02*
X113159Y273822D01*
X113165Y273721D01*
X113174Y273620D01*
X113187Y273519D01*
X113204Y273419D01*
X113225Y273320D01*
X113249Y273222D01*
X113277Y273125D01*
X113309Y273028D01*
X113344Y272933D01*
X113383Y272840D01*
X113425Y272748D01*
X113471Y272657D01*
X113520Y272569D01*
X113572Y272482D01*
X113628Y272397D01*
X113686Y272314D01*
X113748Y272234D01*
X113813Y272156D01*
X113880Y272080D01*
X113950Y272007D01*
X114023Y271937D01*
X114099Y271870D01*
X114177Y271805D01*
X114257Y271743D01*
X114340Y271685D01*
X114425Y271629D01*
X114512Y271577D01*
X114600Y271528D01*
X114691Y271482D01*
X114783Y271440D01*
X114876Y271401D01*
X114971Y271366D01*
X115068Y271334D01*
X115165Y271306D01*
X115263Y271282D01*
X115362Y271261D01*
X115462Y271244D01*
X115563Y271231D01*
X115664Y271222D01*
X115765Y271216D01*
X115866Y271214D01*
X120382Y271214D01*
X120501Y271216D01*
X120621Y271222D01*
X120740Y271232D01*
X120858Y271246D01*
X120977Y271263D01*
X121094Y271285D01*
X121211Y271310D01*
X121326Y271340D01*
X121441Y271373D01*
X121555Y271410D01*
X121667Y271450D01*
X121778Y271495D01*
X121887Y271543D01*
X121995Y271594D01*
X122101Y271649D01*
X122205Y271708D01*
X122307Y271770D01*
X122407Y271835D01*
X122505Y271904D01*
X122601Y271976D01*
X122694Y272051D01*
X122784Y272128D01*
X122872Y272209D01*
X122957Y272293D01*
X123039Y272380D01*
X123119Y272469D01*
X123195Y272561D01*
X123269Y272655D01*
X123339Y272752D01*
X123406Y272850D01*
X123470Y272951D01*
X123530Y273055D01*
X123587Y273160D01*
X123640Y273267D01*
X123690Y273375D01*
X123736Y273485D01*
X123778Y273597D01*
X123817Y273710D01*
X123852Y273824D01*
X123883Y273939D01*
X123911Y274056D01*
X123934Y274173D01*
X123954Y274290D01*
X123970Y274409D01*
X123982Y274528D01*
X123990Y274647D01*
X123994Y274766D01*
X123994Y274886D01*
X123990Y275005D01*
X123982Y275124D01*
X123970Y275243D01*
X123954Y275362D01*
X123934Y275479D01*
X123911Y275596D01*
X123883Y275713D01*
X123852Y275828D01*
X123817Y275942D01*
X123778Y276055D01*
X123736Y276167D01*
X123690Y276277D01*
X123640Y276385D01*
X123587Y276492D01*
X123530Y276597D01*
X123470Y276701D01*
X123406Y276802D01*
X123339Y276900D01*
X123269Y276997D01*
X123195Y277091D01*
X123119Y277183D01*
X123039Y277272D01*
X122957Y277359D01*
X122872Y277443D01*
X122784Y277524D01*
X122694Y277601D01*
X122601Y277676D01*
X122505Y277748D01*
X122407Y277817D01*
X122307Y277882D01*
X122205Y277944D01*
X122101Y278003D01*
X121995Y278058D01*
X121887Y278109D01*
X121778Y278157D01*
X121667Y278202D01*
X121555Y278242D01*
X121441Y278279D01*
X121326Y278312D01*
X121211Y278342D01*
X121094Y278367D01*
X120977Y278389D01*
X120858Y278406D01*
X120740Y278420D01*
X120621Y278430D01*
X120501Y278436D01*
X120382Y278438D01*
X120382Y278439D02*
X118576Y278439D01*
X118576Y271214D01*
X113157Y298134D02*
X113159Y298252D01*
X113165Y298370D01*
X113174Y298488D01*
X113188Y298605D01*
X113205Y298722D01*
X113226Y298839D01*
X113251Y298954D01*
X113280Y299069D01*
X113313Y299183D01*
X113349Y299295D01*
X113389Y299406D01*
X113432Y299516D01*
X113479Y299625D01*
X113529Y299732D01*
X113584Y299837D01*
X113641Y299940D01*
X113702Y300041D01*
X113766Y300141D01*
X113833Y300238D01*
X113903Y300333D01*
X113977Y300425D01*
X114053Y300516D01*
X114133Y300603D01*
X114215Y300688D01*
X114300Y300770D01*
X114387Y300850D01*
X114478Y300926D01*
X114570Y301000D01*
X114665Y301070D01*
X114762Y301137D01*
X114862Y301201D01*
X114963Y301262D01*
X115066Y301319D01*
X115171Y301374D01*
X115278Y301424D01*
X115387Y301471D01*
X115497Y301514D01*
X115608Y301554D01*
X115720Y301590D01*
X115834Y301623D01*
X115949Y301652D01*
X116064Y301677D01*
X116181Y301698D01*
X116298Y301715D01*
X116415Y301729D01*
X116533Y301738D01*
X116651Y301744D01*
X116769Y301746D01*
X113157Y298134D02*
X113159Y297951D01*
X113166Y297769D01*
X113177Y297587D01*
X113192Y297405D01*
X113212Y297223D01*
X113235Y297042D01*
X113264Y296862D01*
X113296Y296682D01*
X113333Y296503D01*
X113374Y296326D01*
X113420Y296149D01*
X113469Y295973D01*
X113523Y295799D01*
X113581Y295625D01*
X113643Y295454D01*
X113709Y295284D01*
X113780Y295115D01*
X113854Y294948D01*
X113932Y294783D01*
X114014Y294620D01*
X114100Y294459D01*
X114190Y294300D01*
X114284Y294143D01*
X114381Y293989D01*
X114482Y293837D01*
X114587Y293687D01*
X114695Y293540D01*
X114806Y293396D01*
X114921Y293254D01*
X115040Y293115D01*
X115162Y292979D01*
X115287Y292846D01*
X115415Y292716D01*
X125801Y293168D02*
X125919Y293170D01*
X126037Y293176D01*
X126155Y293185D01*
X126272Y293199D01*
X126389Y293216D01*
X126506Y293237D01*
X126621Y293262D01*
X126736Y293291D01*
X126850Y293324D01*
X126962Y293360D01*
X127073Y293400D01*
X127183Y293443D01*
X127292Y293490D01*
X127399Y293540D01*
X127504Y293595D01*
X127607Y293652D01*
X127708Y293713D01*
X127808Y293777D01*
X127905Y293844D01*
X128000Y293914D01*
X128092Y293988D01*
X128183Y294064D01*
X128270Y294144D01*
X128355Y294226D01*
X128437Y294311D01*
X128517Y294398D01*
X128593Y294489D01*
X128667Y294581D01*
X128737Y294676D01*
X128804Y294773D01*
X128868Y294873D01*
X128929Y294974D01*
X128987Y295077D01*
X129041Y295182D01*
X129091Y295289D01*
X129138Y295398D01*
X129182Y295508D01*
X129221Y295619D01*
X129257Y295732D01*
X129290Y295845D01*
X129319Y295960D01*
X129344Y296075D01*
X129365Y296192D01*
X129382Y296309D01*
X129396Y296426D01*
X129405Y296544D01*
X129411Y296662D01*
X129413Y296780D01*
X129411Y296941D01*
X129405Y297103D01*
X129396Y297264D01*
X129382Y297425D01*
X129365Y297585D01*
X129344Y297745D01*
X129319Y297905D01*
X129290Y298064D01*
X129258Y298222D01*
X129222Y298379D01*
X129182Y298535D01*
X129138Y298691D01*
X129090Y298845D01*
X129039Y298998D01*
X128985Y299150D01*
X128926Y299301D01*
X128865Y299450D01*
X128799Y299597D01*
X128730Y299743D01*
X128658Y299888D01*
X128582Y300030D01*
X128503Y300171D01*
X128421Y300310D01*
X128335Y300446D01*
X128246Y300581D01*
X128154Y300714D01*
X128058Y300844D01*
X122640Y294973D02*
X122702Y294872D01*
X122767Y294772D01*
X122836Y294675D01*
X122908Y294580D01*
X122982Y294487D01*
X123060Y294397D01*
X123141Y294309D01*
X123224Y294224D01*
X123310Y294142D01*
X123399Y294063D01*
X123490Y293986D01*
X123584Y293913D01*
X123680Y293842D01*
X123778Y293775D01*
X123878Y293711D01*
X123981Y293650D01*
X124085Y293593D01*
X124191Y293539D01*
X124299Y293489D01*
X124408Y293442D01*
X124519Y293398D01*
X124631Y293358D01*
X124745Y293322D01*
X124859Y293290D01*
X124975Y293261D01*
X125091Y293236D01*
X125208Y293215D01*
X125326Y293198D01*
X125444Y293184D01*
X125563Y293175D01*
X125682Y293169D01*
X125801Y293167D01*
X119930Y299941D02*
X119868Y300042D01*
X119803Y300142D01*
X119734Y300239D01*
X119662Y300334D01*
X119588Y300427D01*
X119510Y300517D01*
X119429Y300605D01*
X119346Y300690D01*
X119260Y300772D01*
X119171Y300851D01*
X119080Y300928D01*
X118986Y301001D01*
X118890Y301072D01*
X118792Y301139D01*
X118692Y301203D01*
X118589Y301264D01*
X118485Y301321D01*
X118379Y301375D01*
X118271Y301425D01*
X118162Y301472D01*
X118051Y301516D01*
X117939Y301556D01*
X117825Y301592D01*
X117711Y301624D01*
X117595Y301653D01*
X117479Y301678D01*
X117362Y301699D01*
X117244Y301716D01*
X117126Y301730D01*
X117007Y301739D01*
X116888Y301745D01*
X116769Y301747D01*
X119930Y299941D02*
X122640Y294973D01*
X113157Y310414D02*
X113157Y314026D01*
X113157Y310414D02*
X113159Y310313D01*
X113165Y310212D01*
X113174Y310111D01*
X113187Y310010D01*
X113204Y309910D01*
X113225Y309811D01*
X113249Y309713D01*
X113277Y309616D01*
X113309Y309519D01*
X113344Y309424D01*
X113383Y309331D01*
X113425Y309239D01*
X113471Y309148D01*
X113520Y309060D01*
X113572Y308973D01*
X113628Y308888D01*
X113686Y308805D01*
X113748Y308725D01*
X113813Y308647D01*
X113880Y308571D01*
X113950Y308498D01*
X114023Y308428D01*
X114099Y308361D01*
X114177Y308296D01*
X114257Y308234D01*
X114340Y308176D01*
X114425Y308120D01*
X114512Y308068D01*
X114600Y308019D01*
X114691Y307973D01*
X114783Y307931D01*
X114876Y307892D01*
X114971Y307857D01*
X115068Y307825D01*
X115165Y307797D01*
X115263Y307773D01*
X115362Y307752D01*
X115462Y307735D01*
X115563Y307722D01*
X115664Y307713D01*
X115765Y307707D01*
X115866Y307705D01*
X115866Y307704D02*
X121285Y307704D01*
X121285Y307705D02*
X121386Y307707D01*
X121487Y307713D01*
X121588Y307722D01*
X121689Y307735D01*
X121789Y307752D01*
X121888Y307773D01*
X121986Y307797D01*
X122083Y307825D01*
X122180Y307857D01*
X122275Y307892D01*
X122368Y307931D01*
X122460Y307973D01*
X122551Y308019D01*
X122639Y308068D01*
X122726Y308120D01*
X122811Y308176D01*
X122894Y308234D01*
X122974Y308296D01*
X123052Y308361D01*
X123128Y308428D01*
X123201Y308498D01*
X123271Y308571D01*
X123338Y308647D01*
X123403Y308725D01*
X123465Y308805D01*
X123523Y308888D01*
X123579Y308973D01*
X123631Y309060D01*
X123680Y309148D01*
X123726Y309239D01*
X123768Y309331D01*
X123807Y309424D01*
X123842Y309519D01*
X123874Y309616D01*
X123902Y309713D01*
X123926Y309811D01*
X123947Y309910D01*
X123964Y310010D01*
X123977Y310111D01*
X123986Y310212D01*
X123992Y310313D01*
X123994Y310414D01*
X123994Y314026D01*
X119479Y322758D02*
X119479Y326822D01*
X119479Y322758D02*
X119477Y322646D01*
X119471Y322535D01*
X119461Y322424D01*
X119448Y322313D01*
X119430Y322203D01*
X119408Y322094D01*
X119383Y321985D01*
X119354Y321877D01*
X119321Y321771D01*
X119284Y321665D01*
X119244Y321561D01*
X119200Y321459D01*
X119152Y321358D01*
X119101Y321259D01*
X119046Y321161D01*
X118988Y321066D01*
X118927Y320973D01*
X118862Y320882D01*
X118794Y320793D01*
X118723Y320707D01*
X118650Y320624D01*
X118573Y320543D01*
X118493Y320464D01*
X118411Y320389D01*
X118326Y320317D01*
X118239Y320247D01*
X118149Y320181D01*
X118057Y320118D01*
X117962Y320058D01*
X117866Y320002D01*
X117768Y319949D01*
X117668Y319900D01*
X117566Y319854D01*
X117463Y319812D01*
X117358Y319773D01*
X117252Y319738D01*
X117145Y319707D01*
X117037Y319680D01*
X116928Y319656D01*
X116818Y319637D01*
X116708Y319621D01*
X116597Y319609D01*
X116485Y319601D01*
X116374Y319597D01*
X116262Y319597D01*
X116151Y319601D01*
X116039Y319609D01*
X115928Y319621D01*
X115818Y319637D01*
X115708Y319656D01*
X115599Y319680D01*
X115491Y319707D01*
X115384Y319738D01*
X115278Y319773D01*
X115173Y319812D01*
X115070Y319854D01*
X114968Y319900D01*
X114868Y319949D01*
X114770Y320002D01*
X114674Y320058D01*
X114579Y320118D01*
X114487Y320181D01*
X114397Y320247D01*
X114310Y320317D01*
X114225Y320389D01*
X114143Y320464D01*
X114063Y320543D01*
X113986Y320624D01*
X113913Y320707D01*
X113842Y320793D01*
X113774Y320882D01*
X113709Y320973D01*
X113648Y321066D01*
X113590Y321161D01*
X113535Y321259D01*
X113484Y321358D01*
X113436Y321459D01*
X113392Y321561D01*
X113352Y321665D01*
X113315Y321771D01*
X113282Y321877D01*
X113253Y321985D01*
X113228Y322094D01*
X113206Y322203D01*
X113188Y322313D01*
X113175Y322424D01*
X113165Y322535D01*
X113159Y322646D01*
X113157Y322758D01*
X113157Y326822D01*
X121285Y326822D01*
X121386Y326820D01*
X121487Y326814D01*
X121588Y326805D01*
X121689Y326792D01*
X121789Y326775D01*
X121888Y326754D01*
X121986Y326730D01*
X122083Y326702D01*
X122180Y326670D01*
X122275Y326635D01*
X122368Y326596D01*
X122460Y326554D01*
X122551Y326508D01*
X122640Y326459D01*
X122726Y326407D01*
X122811Y326351D01*
X122894Y326293D01*
X122974Y326231D01*
X123052Y326166D01*
X123128Y326099D01*
X123201Y326029D01*
X123271Y325956D01*
X123338Y325880D01*
X123403Y325802D01*
X123465Y325722D01*
X123523Y325639D01*
X123579Y325554D01*
X123631Y325468D01*
X123680Y325379D01*
X123726Y325288D01*
X123768Y325196D01*
X123807Y325103D01*
X123842Y325008D01*
X123874Y324911D01*
X123902Y324814D01*
X123926Y324716D01*
X123947Y324617D01*
X123964Y324517D01*
X123977Y324416D01*
X123986Y324315D01*
X123992Y324214D01*
X123994Y324113D01*
X123994Y320501D01*
X129413Y333976D02*
X115866Y333976D01*
X115765Y333978D01*
X115664Y333984D01*
X115563Y333993D01*
X115462Y334006D01*
X115362Y334023D01*
X115263Y334044D01*
X115165Y334068D01*
X115068Y334096D01*
X114971Y334128D01*
X114876Y334163D01*
X114783Y334202D01*
X114691Y334244D01*
X114600Y334290D01*
X114512Y334339D01*
X114425Y334391D01*
X114340Y334447D01*
X114257Y334505D01*
X114177Y334567D01*
X114099Y334632D01*
X114023Y334699D01*
X113950Y334769D01*
X113880Y334842D01*
X113813Y334918D01*
X113748Y334996D01*
X113686Y335076D01*
X113628Y335159D01*
X113572Y335244D01*
X113520Y335331D01*
X113471Y335419D01*
X113425Y335510D01*
X113383Y335602D01*
X113344Y335695D01*
X113309Y335790D01*
X113277Y335887D01*
X113249Y335984D01*
X113225Y336082D01*
X113204Y336181D01*
X113187Y336281D01*
X113174Y336382D01*
X113165Y336483D01*
X113159Y336584D01*
X113157Y336685D01*
X113157Y344785D02*
X113157Y349300D01*
X113157Y344785D02*
X113159Y344684D01*
X113165Y344583D01*
X113174Y344482D01*
X113187Y344381D01*
X113204Y344281D01*
X113225Y344182D01*
X113249Y344084D01*
X113277Y343987D01*
X113309Y343890D01*
X113344Y343795D01*
X113383Y343702D01*
X113425Y343610D01*
X113471Y343519D01*
X113520Y343431D01*
X113572Y343344D01*
X113628Y343259D01*
X113686Y343176D01*
X113748Y343096D01*
X113813Y343018D01*
X113880Y342942D01*
X113950Y342869D01*
X114023Y342799D01*
X114099Y342732D01*
X114177Y342667D01*
X114257Y342605D01*
X114340Y342547D01*
X114425Y342491D01*
X114512Y342439D01*
X114600Y342390D01*
X114691Y342344D01*
X114783Y342302D01*
X114876Y342263D01*
X114971Y342228D01*
X115068Y342196D01*
X115165Y342168D01*
X115263Y342144D01*
X115362Y342123D01*
X115462Y342106D01*
X115563Y342093D01*
X115664Y342084D01*
X115765Y342078D01*
X115866Y342076D01*
X120382Y342076D01*
X120501Y342078D01*
X120621Y342084D01*
X120740Y342094D01*
X120858Y342108D01*
X120977Y342125D01*
X121094Y342147D01*
X121211Y342172D01*
X121326Y342202D01*
X121441Y342235D01*
X121555Y342272D01*
X121667Y342312D01*
X121778Y342357D01*
X121887Y342405D01*
X121995Y342456D01*
X122101Y342511D01*
X122205Y342570D01*
X122307Y342632D01*
X122407Y342697D01*
X122505Y342766D01*
X122601Y342838D01*
X122694Y342913D01*
X122784Y342990D01*
X122872Y343071D01*
X122957Y343155D01*
X123039Y343242D01*
X123119Y343331D01*
X123195Y343423D01*
X123269Y343517D01*
X123339Y343614D01*
X123406Y343712D01*
X123470Y343813D01*
X123530Y343917D01*
X123587Y344022D01*
X123640Y344129D01*
X123690Y344237D01*
X123736Y344347D01*
X123778Y344459D01*
X123817Y344572D01*
X123852Y344686D01*
X123883Y344801D01*
X123911Y344918D01*
X123934Y345035D01*
X123954Y345152D01*
X123970Y345271D01*
X123982Y345390D01*
X123990Y345509D01*
X123994Y345628D01*
X123994Y345748D01*
X123990Y345867D01*
X123982Y345986D01*
X123970Y346105D01*
X123954Y346224D01*
X123934Y346341D01*
X123911Y346458D01*
X123883Y346575D01*
X123852Y346690D01*
X123817Y346804D01*
X123778Y346917D01*
X123736Y347029D01*
X123690Y347139D01*
X123640Y347247D01*
X123587Y347354D01*
X123530Y347459D01*
X123470Y347563D01*
X123406Y347664D01*
X123339Y347762D01*
X123269Y347859D01*
X123195Y347953D01*
X123119Y348045D01*
X123039Y348134D01*
X122957Y348221D01*
X122872Y348305D01*
X122784Y348386D01*
X122694Y348463D01*
X122601Y348538D01*
X122505Y348610D01*
X122407Y348679D01*
X122307Y348744D01*
X122205Y348806D01*
X122101Y348865D01*
X121995Y348920D01*
X121887Y348971D01*
X121778Y349019D01*
X121667Y349064D01*
X121555Y349104D01*
X121441Y349141D01*
X121326Y349174D01*
X121211Y349204D01*
X121094Y349229D01*
X120977Y349251D01*
X120858Y349268D01*
X120740Y349282D01*
X120621Y349292D01*
X120501Y349298D01*
X120382Y349300D01*
X118576Y349300D01*
X118576Y342076D01*
X129413Y363195D02*
X113157Y368614D01*
X129413Y374032D01*
X125801Y379730D02*
X129413Y384245D01*
X113157Y384245D01*
X113157Y379730D02*
X113157Y388761D01*
X113157Y394735D02*
X114060Y394735D01*
X114060Y395638D01*
X113157Y395638D01*
X113157Y394735D01*
X113157Y401613D02*
X113157Y407032D01*
X113159Y407150D01*
X113165Y407268D01*
X113174Y407386D01*
X113188Y407503D01*
X113205Y407620D01*
X113226Y407737D01*
X113251Y407852D01*
X113280Y407967D01*
X113313Y408081D01*
X113349Y408193D01*
X113389Y408304D01*
X113432Y408414D01*
X113479Y408523D01*
X113529Y408630D01*
X113584Y408735D01*
X113641Y408838D01*
X113702Y408939D01*
X113766Y409039D01*
X113833Y409136D01*
X113903Y409231D01*
X113977Y409323D01*
X114053Y409414D01*
X114133Y409501D01*
X114215Y409586D01*
X114300Y409668D01*
X114387Y409748D01*
X114478Y409824D01*
X114570Y409898D01*
X114665Y409968D01*
X114762Y410035D01*
X114862Y410099D01*
X114963Y410160D01*
X115066Y410217D01*
X115171Y410272D01*
X115278Y410322D01*
X115387Y410369D01*
X115497Y410412D01*
X115608Y410452D01*
X115720Y410488D01*
X115834Y410521D01*
X115949Y410550D01*
X116064Y410575D01*
X116181Y410596D01*
X116298Y410613D01*
X116415Y410627D01*
X116533Y410636D01*
X116651Y410642D01*
X116769Y410644D01*
X118576Y410644D01*
X118694Y410642D01*
X118812Y410636D01*
X118930Y410627D01*
X119047Y410613D01*
X119164Y410596D01*
X119281Y410575D01*
X119396Y410550D01*
X119511Y410521D01*
X119625Y410488D01*
X119737Y410452D01*
X119848Y410412D01*
X119958Y410369D01*
X120067Y410322D01*
X120174Y410272D01*
X120279Y410217D01*
X120382Y410160D01*
X120483Y410099D01*
X120583Y410035D01*
X120680Y409968D01*
X120775Y409898D01*
X120867Y409824D01*
X120958Y409748D01*
X121045Y409668D01*
X121130Y409586D01*
X121212Y409501D01*
X121292Y409414D01*
X121368Y409323D01*
X121442Y409231D01*
X121512Y409136D01*
X121579Y409039D01*
X121643Y408939D01*
X121704Y408838D01*
X121761Y408735D01*
X121816Y408630D01*
X121866Y408523D01*
X121913Y408414D01*
X121956Y408304D01*
X121996Y408193D01*
X122032Y408081D01*
X122065Y407967D01*
X122094Y407852D01*
X122119Y407737D01*
X122140Y407620D01*
X122157Y407503D01*
X122171Y407386D01*
X122180Y407268D01*
X122186Y407150D01*
X122188Y407032D01*
X122188Y401613D01*
X129413Y401613D01*
X129413Y410644D01*
X129413Y420857D02*
X116769Y417244D01*
X116769Y426276D01*
X113157Y423566D02*
X120382Y423566D01*
X86487Y184299D02*
X86487Y180687D01*
X86489Y180569D01*
X86495Y180451D01*
X86504Y180333D01*
X86518Y180216D01*
X86535Y180099D01*
X86556Y179982D01*
X86581Y179867D01*
X86610Y179752D01*
X86643Y179638D01*
X86679Y179526D01*
X86719Y179415D01*
X86762Y179305D01*
X86809Y179196D01*
X86859Y179089D01*
X86914Y178984D01*
X86971Y178881D01*
X87032Y178780D01*
X87096Y178680D01*
X87163Y178583D01*
X87233Y178488D01*
X87307Y178396D01*
X87383Y178305D01*
X87463Y178218D01*
X87545Y178133D01*
X87630Y178051D01*
X87717Y177971D01*
X87808Y177895D01*
X87900Y177821D01*
X87995Y177751D01*
X88092Y177684D01*
X88192Y177620D01*
X88293Y177559D01*
X88396Y177502D01*
X88501Y177447D01*
X88608Y177397D01*
X88717Y177350D01*
X88827Y177307D01*
X88938Y177267D01*
X89050Y177231D01*
X89164Y177198D01*
X89279Y177169D01*
X89394Y177144D01*
X89511Y177123D01*
X89628Y177106D01*
X89745Y177092D01*
X89863Y177083D01*
X89981Y177077D01*
X90099Y177075D01*
X90099Y177074D02*
X99131Y177074D01*
X99131Y177075D02*
X99249Y177077D01*
X99367Y177083D01*
X99485Y177092D01*
X99602Y177106D01*
X99719Y177123D01*
X99836Y177144D01*
X99951Y177169D01*
X100066Y177198D01*
X100180Y177231D01*
X100292Y177267D01*
X100403Y177307D01*
X100513Y177350D01*
X100622Y177397D01*
X100729Y177447D01*
X100834Y177501D01*
X100937Y177559D01*
X101038Y177620D01*
X101138Y177684D01*
X101235Y177751D01*
X101330Y177821D01*
X101422Y177895D01*
X101513Y177971D01*
X101600Y178051D01*
X101685Y178133D01*
X101767Y178218D01*
X101847Y178305D01*
X101923Y178396D01*
X101997Y178488D01*
X102067Y178583D01*
X102134Y178680D01*
X102198Y178780D01*
X102259Y178881D01*
X102316Y178984D01*
X102370Y179089D01*
X102421Y179196D01*
X102468Y179305D01*
X102511Y179415D01*
X102551Y179526D01*
X102587Y179638D01*
X102620Y179752D01*
X102649Y179867D01*
X102674Y179982D01*
X102695Y180099D01*
X102712Y180216D01*
X102726Y180333D01*
X102735Y180451D01*
X102741Y180569D01*
X102743Y180687D01*
X102743Y184299D01*
X102743Y190522D02*
X86487Y190522D01*
X97324Y190522D02*
X97324Y195038D01*
X97322Y195139D01*
X97316Y195240D01*
X97307Y195341D01*
X97294Y195442D01*
X97277Y195542D01*
X97256Y195641D01*
X97232Y195739D01*
X97204Y195836D01*
X97172Y195933D01*
X97137Y196028D01*
X97098Y196121D01*
X97056Y196213D01*
X97010Y196304D01*
X96961Y196393D01*
X96909Y196479D01*
X96853Y196564D01*
X96795Y196647D01*
X96733Y196727D01*
X96668Y196805D01*
X96601Y196881D01*
X96531Y196954D01*
X96458Y197024D01*
X96382Y197091D01*
X96304Y197156D01*
X96224Y197218D01*
X96141Y197276D01*
X96056Y197332D01*
X95970Y197384D01*
X95881Y197433D01*
X95790Y197479D01*
X95698Y197521D01*
X95605Y197560D01*
X95510Y197595D01*
X95413Y197627D01*
X95316Y197655D01*
X95218Y197679D01*
X95119Y197700D01*
X95019Y197717D01*
X94918Y197730D01*
X94817Y197739D01*
X94716Y197745D01*
X94615Y197747D01*
X86487Y197747D01*
X86487Y205196D02*
X97324Y205196D01*
X97324Y210615D01*
X95518Y210615D01*
X97324Y215497D02*
X86487Y215497D01*
X101840Y215046D02*
X102743Y215046D01*
X102743Y215949D01*
X101840Y215949D01*
X101840Y215046D01*
X92809Y223139D02*
X91003Y227655D01*
X92809Y223139D02*
X92846Y223051D01*
X92887Y222965D01*
X92931Y222880D01*
X92979Y222797D01*
X93030Y222717D01*
X93084Y222638D01*
X93142Y222562D01*
X93202Y222488D01*
X93266Y222416D01*
X93332Y222348D01*
X93402Y222282D01*
X93473Y222219D01*
X93548Y222158D01*
X93624Y222101D01*
X93703Y222048D01*
X93784Y221997D01*
X93867Y221950D01*
X93952Y221906D01*
X94039Y221866D01*
X94127Y221829D01*
X94217Y221796D01*
X94308Y221766D01*
X94400Y221741D01*
X94493Y221719D01*
X94587Y221701D01*
X94681Y221686D01*
X94776Y221676D01*
X94872Y221670D01*
X94967Y221667D01*
X95063Y221668D01*
X95158Y221674D01*
X95254Y221683D01*
X95348Y221696D01*
X95442Y221712D01*
X95536Y221733D01*
X95628Y221758D01*
X95719Y221786D01*
X95809Y221818D01*
X95898Y221853D01*
X95985Y221892D01*
X96071Y221935D01*
X96155Y221981D01*
X96236Y222031D01*
X96316Y222083D01*
X96394Y222139D01*
X96469Y222199D01*
X96541Y222261D01*
X96611Y222326D01*
X96679Y222394D01*
X96743Y222464D01*
X96805Y222537D01*
X96863Y222613D01*
X96919Y222691D01*
X96971Y222771D01*
X97020Y222853D01*
X97065Y222937D01*
X97107Y223023D01*
X97146Y223110D01*
X97181Y223199D01*
X97212Y223290D01*
X97239Y223381D01*
X97263Y223474D01*
X97283Y223567D01*
X97299Y223661D01*
X97311Y223756D01*
X97320Y223851D01*
X97324Y223947D01*
X97325Y224042D01*
X97318Y224289D01*
X97306Y224535D01*
X97288Y224781D01*
X97263Y225027D01*
X97233Y225271D01*
X97197Y225515D01*
X97156Y225758D01*
X97108Y226000D01*
X97054Y226241D01*
X96995Y226480D01*
X96930Y226718D01*
X96859Y226954D01*
X96783Y227189D01*
X96701Y227422D01*
X96613Y227652D01*
X96520Y227880D01*
X96422Y228107D01*
X91002Y227655D02*
X90965Y227743D01*
X90924Y227829D01*
X90880Y227914D01*
X90832Y227997D01*
X90781Y228077D01*
X90727Y228156D01*
X90669Y228232D01*
X90609Y228306D01*
X90545Y228378D01*
X90479Y228446D01*
X90409Y228512D01*
X90338Y228575D01*
X90263Y228636D01*
X90187Y228693D01*
X90108Y228746D01*
X90027Y228797D01*
X89944Y228844D01*
X89859Y228888D01*
X89772Y228928D01*
X89684Y228965D01*
X89594Y228998D01*
X89503Y229028D01*
X89411Y229053D01*
X89318Y229075D01*
X89224Y229093D01*
X89130Y229108D01*
X89035Y229118D01*
X88939Y229124D01*
X88844Y229127D01*
X88748Y229126D01*
X88653Y229120D01*
X88557Y229111D01*
X88463Y229098D01*
X88369Y229082D01*
X88275Y229061D01*
X88183Y229036D01*
X88092Y229008D01*
X88002Y228976D01*
X87913Y228941D01*
X87826Y228902D01*
X87740Y228859D01*
X87656Y228813D01*
X87575Y228763D01*
X87495Y228711D01*
X87417Y228655D01*
X87342Y228595D01*
X87270Y228533D01*
X87200Y228468D01*
X87132Y228400D01*
X87068Y228330D01*
X87006Y228257D01*
X86948Y228181D01*
X86892Y228103D01*
X86840Y228023D01*
X86791Y227941D01*
X86746Y227857D01*
X86704Y227771D01*
X86665Y227684D01*
X86630Y227595D01*
X86599Y227504D01*
X86572Y227413D01*
X86548Y227320D01*
X86528Y227227D01*
X86512Y227133D01*
X86500Y227038D01*
X86491Y226943D01*
X86487Y226847D01*
X86486Y226752D01*
X86487Y226751D02*
X86496Y226389D01*
X86514Y226027D01*
X86541Y225666D01*
X86576Y225306D01*
X86619Y224946D01*
X86671Y224587D01*
X86732Y224230D01*
X86801Y223875D01*
X86878Y223521D01*
X86964Y223169D01*
X87058Y222819D01*
X87161Y222471D01*
X87271Y222126D01*
X87390Y221784D01*
X97324Y234034D02*
X97324Y239453D01*
X102743Y235840D02*
X89196Y235840D01*
X89196Y235841D02*
X89095Y235843D01*
X88994Y235849D01*
X88893Y235858D01*
X88792Y235871D01*
X88692Y235888D01*
X88593Y235909D01*
X88495Y235933D01*
X88398Y235961D01*
X88301Y235993D01*
X88206Y236028D01*
X88113Y236067D01*
X88021Y236109D01*
X87930Y236155D01*
X87842Y236204D01*
X87755Y236256D01*
X87670Y236312D01*
X87587Y236370D01*
X87507Y236432D01*
X87429Y236497D01*
X87353Y236564D01*
X87280Y236634D01*
X87210Y236707D01*
X87143Y236783D01*
X87078Y236861D01*
X87016Y236941D01*
X86958Y237024D01*
X86902Y237109D01*
X86850Y237196D01*
X86801Y237284D01*
X86755Y237375D01*
X86713Y237467D01*
X86674Y237560D01*
X86639Y237655D01*
X86607Y237752D01*
X86579Y237849D01*
X86555Y237947D01*
X86534Y238046D01*
X86517Y238146D01*
X86504Y238247D01*
X86495Y238348D01*
X86489Y238449D01*
X86487Y238550D01*
X86487Y239453D01*
X86487Y245196D02*
X97324Y245196D01*
X101840Y244745D02*
X102743Y244745D01*
X102743Y245648D01*
X101840Y245648D01*
X101840Y244745D01*
X92809Y254571D02*
X92809Y258635D01*
X92809Y254571D02*
X92807Y254459D01*
X92801Y254348D01*
X92791Y254237D01*
X92778Y254126D01*
X92760Y254016D01*
X92738Y253907D01*
X92713Y253798D01*
X92684Y253690D01*
X92651Y253584D01*
X92614Y253478D01*
X92574Y253374D01*
X92530Y253272D01*
X92482Y253171D01*
X92431Y253072D01*
X92376Y252974D01*
X92318Y252879D01*
X92257Y252786D01*
X92192Y252695D01*
X92124Y252606D01*
X92053Y252520D01*
X91980Y252437D01*
X91903Y252356D01*
X91823Y252277D01*
X91741Y252202D01*
X91656Y252130D01*
X91569Y252060D01*
X91479Y251994D01*
X91387Y251931D01*
X91292Y251871D01*
X91196Y251815D01*
X91098Y251762D01*
X90998Y251713D01*
X90896Y251667D01*
X90793Y251625D01*
X90688Y251586D01*
X90582Y251551D01*
X90475Y251520D01*
X90367Y251493D01*
X90258Y251469D01*
X90148Y251450D01*
X90038Y251434D01*
X89927Y251422D01*
X89815Y251414D01*
X89704Y251410D01*
X89592Y251410D01*
X89481Y251414D01*
X89369Y251422D01*
X89258Y251434D01*
X89148Y251450D01*
X89038Y251469D01*
X88929Y251493D01*
X88821Y251520D01*
X88714Y251551D01*
X88608Y251586D01*
X88503Y251625D01*
X88400Y251667D01*
X88298Y251713D01*
X88198Y251762D01*
X88100Y251815D01*
X88004Y251871D01*
X87909Y251931D01*
X87817Y251994D01*
X87727Y252060D01*
X87640Y252130D01*
X87555Y252202D01*
X87473Y252277D01*
X87393Y252356D01*
X87316Y252437D01*
X87243Y252520D01*
X87172Y252606D01*
X87104Y252695D01*
X87039Y252786D01*
X86978Y252879D01*
X86920Y252974D01*
X86865Y253072D01*
X86814Y253171D01*
X86766Y253272D01*
X86722Y253374D01*
X86682Y253478D01*
X86645Y253584D01*
X86612Y253690D01*
X86583Y253798D01*
X86558Y253907D01*
X86536Y254016D01*
X86518Y254126D01*
X86505Y254237D01*
X86495Y254348D01*
X86489Y254459D01*
X86487Y254571D01*
X86487Y258635D01*
X94615Y258635D01*
X94716Y258633D01*
X94817Y258627D01*
X94918Y258618D01*
X95019Y258605D01*
X95119Y258588D01*
X95218Y258567D01*
X95316Y258543D01*
X95413Y258515D01*
X95510Y258483D01*
X95605Y258448D01*
X95698Y258409D01*
X95790Y258367D01*
X95881Y258321D01*
X95970Y258272D01*
X96056Y258220D01*
X96141Y258164D01*
X96224Y258106D01*
X96304Y258044D01*
X96382Y257979D01*
X96458Y257912D01*
X96531Y257842D01*
X96601Y257769D01*
X96668Y257693D01*
X96733Y257615D01*
X96795Y257535D01*
X96853Y257452D01*
X96909Y257367D01*
X96961Y257281D01*
X97010Y257192D01*
X97056Y257101D01*
X97098Y257009D01*
X97137Y256916D01*
X97172Y256821D01*
X97204Y256724D01*
X97232Y256627D01*
X97256Y256529D01*
X97277Y256430D01*
X97294Y256330D01*
X97307Y256229D01*
X97316Y256128D01*
X97322Y256027D01*
X97324Y255926D01*
X97324Y252313D01*
X97324Y266073D02*
X86487Y266073D01*
X97324Y266073D02*
X97324Y270588D01*
X97322Y270689D01*
X97316Y270790D01*
X97307Y270891D01*
X97294Y270992D01*
X97277Y271092D01*
X97256Y271191D01*
X97232Y271289D01*
X97204Y271386D01*
X97172Y271483D01*
X97137Y271578D01*
X97098Y271671D01*
X97056Y271763D01*
X97010Y271854D01*
X96961Y271943D01*
X96909Y272029D01*
X96853Y272114D01*
X96795Y272197D01*
X96733Y272277D01*
X96668Y272355D01*
X96601Y272431D01*
X96531Y272504D01*
X96458Y272574D01*
X96382Y272641D01*
X96304Y272706D01*
X96224Y272768D01*
X96141Y272826D01*
X96056Y272882D01*
X95970Y272934D01*
X95881Y272983D01*
X95790Y273029D01*
X95698Y273071D01*
X95605Y273110D01*
X95510Y273145D01*
X95413Y273177D01*
X95316Y273205D01*
X95218Y273229D01*
X95119Y273250D01*
X95019Y273267D01*
X94918Y273280D01*
X94817Y273289D01*
X94716Y273295D01*
X94615Y273297D01*
X94615Y273298D02*
X86487Y273298D01*
X86487Y279654D02*
X87390Y279654D01*
X87390Y280558D01*
X86487Y280558D01*
X86487Y279654D01*
X86487Y287264D02*
X102743Y287264D01*
X102743Y291780D01*
X102741Y291913D01*
X102735Y292045D01*
X102725Y292177D01*
X102712Y292309D01*
X102694Y292441D01*
X102673Y292571D01*
X102648Y292702D01*
X102619Y292831D01*
X102586Y292959D01*
X102550Y293087D01*
X102510Y293213D01*
X102466Y293338D01*
X102418Y293462D01*
X102367Y293584D01*
X102312Y293705D01*
X102254Y293824D01*
X102192Y293942D01*
X102127Y294057D01*
X102058Y294171D01*
X101987Y294282D01*
X101911Y294391D01*
X101833Y294498D01*
X101752Y294603D01*
X101667Y294705D01*
X101580Y294805D01*
X101490Y294902D01*
X101397Y294997D01*
X101301Y295088D01*
X101203Y295177D01*
X101102Y295263D01*
X100998Y295346D01*
X100892Y295426D01*
X100784Y295502D01*
X100674Y295576D01*
X100561Y295646D01*
X100447Y295713D01*
X100330Y295776D01*
X100212Y295836D01*
X100092Y295893D01*
X99970Y295946D01*
X99847Y295995D01*
X99723Y296041D01*
X99597Y296083D01*
X99470Y296121D01*
X99342Y296156D01*
X99213Y296187D01*
X99084Y296214D01*
X98953Y296237D01*
X98822Y296257D01*
X98690Y296272D01*
X98558Y296284D01*
X98426Y296292D01*
X98293Y296296D01*
X98161Y296296D01*
X98028Y296292D01*
X97896Y296284D01*
X97764Y296272D01*
X97632Y296257D01*
X97501Y296237D01*
X97370Y296214D01*
X97241Y296187D01*
X97112Y296156D01*
X96984Y296121D01*
X96857Y296083D01*
X96731Y296041D01*
X96607Y295995D01*
X96484Y295946D01*
X96362Y295893D01*
X96242Y295836D01*
X96124Y295776D01*
X96007Y295713D01*
X95893Y295646D01*
X95780Y295576D01*
X95670Y295502D01*
X95562Y295426D01*
X95456Y295346D01*
X95352Y295263D01*
X95251Y295177D01*
X95153Y295088D01*
X95057Y294997D01*
X94964Y294902D01*
X94874Y294805D01*
X94787Y294705D01*
X94702Y294603D01*
X94621Y294498D01*
X94543Y294391D01*
X94467Y294282D01*
X94396Y294171D01*
X94327Y294057D01*
X94262Y293942D01*
X94200Y293824D01*
X94142Y293705D01*
X94087Y293584D01*
X94036Y293462D01*
X93988Y293338D01*
X93944Y293213D01*
X93904Y293087D01*
X93868Y292959D01*
X93835Y292831D01*
X93806Y292702D01*
X93781Y292571D01*
X93760Y292441D01*
X93742Y292309D01*
X93729Y292177D01*
X93719Y292045D01*
X93713Y291913D01*
X93711Y291780D01*
X93712Y291780D02*
X93712Y287264D01*
X86487Y302714D02*
X86487Y309939D01*
X86487Y302714D02*
X102743Y302714D01*
X102743Y309939D01*
X95518Y308133D02*
X95518Y302714D01*
X102743Y319184D02*
X86487Y319184D01*
X102743Y314669D02*
X102743Y323700D01*
X86487Y329809D02*
X86487Y337033D01*
X86487Y329809D02*
X102743Y329809D01*
X102743Y337033D01*
X95518Y335227D02*
X95518Y329809D01*
X102743Y343417D02*
X86487Y343417D01*
X102743Y343417D02*
X102743Y347933D01*
X102741Y348066D01*
X102735Y348198D01*
X102725Y348330D01*
X102712Y348462D01*
X102694Y348594D01*
X102673Y348724D01*
X102648Y348855D01*
X102619Y348984D01*
X102586Y349112D01*
X102550Y349240D01*
X102510Y349366D01*
X102466Y349491D01*
X102418Y349615D01*
X102367Y349737D01*
X102312Y349858D01*
X102254Y349977D01*
X102192Y350095D01*
X102127Y350210D01*
X102058Y350324D01*
X101987Y350435D01*
X101911Y350544D01*
X101833Y350651D01*
X101752Y350756D01*
X101667Y350858D01*
X101580Y350958D01*
X101490Y351055D01*
X101397Y351150D01*
X101301Y351241D01*
X101203Y351330D01*
X101102Y351416D01*
X100998Y351499D01*
X100892Y351579D01*
X100784Y351655D01*
X100674Y351729D01*
X100561Y351799D01*
X100447Y351866D01*
X100330Y351929D01*
X100212Y351989D01*
X100092Y352046D01*
X99970Y352099D01*
X99847Y352148D01*
X99723Y352194D01*
X99597Y352236D01*
X99470Y352274D01*
X99342Y352309D01*
X99213Y352340D01*
X99084Y352367D01*
X98953Y352390D01*
X98822Y352410D01*
X98690Y352425D01*
X98558Y352437D01*
X98426Y352445D01*
X98293Y352449D01*
X98161Y352449D01*
X98028Y352445D01*
X97896Y352437D01*
X97764Y352425D01*
X97632Y352410D01*
X97501Y352390D01*
X97370Y352367D01*
X97241Y352340D01*
X97112Y352309D01*
X96984Y352274D01*
X96857Y352236D01*
X96731Y352194D01*
X96607Y352148D01*
X96484Y352099D01*
X96362Y352046D01*
X96242Y351989D01*
X96124Y351929D01*
X96007Y351866D01*
X95893Y351799D01*
X95780Y351729D01*
X95670Y351655D01*
X95562Y351579D01*
X95456Y351499D01*
X95352Y351416D01*
X95251Y351330D01*
X95153Y351241D01*
X95057Y351150D01*
X94964Y351055D01*
X94874Y350958D01*
X94787Y350858D01*
X94702Y350756D01*
X94621Y350651D01*
X94543Y350544D01*
X94467Y350435D01*
X94396Y350324D01*
X94327Y350210D01*
X94262Y350095D01*
X94200Y349977D01*
X94142Y349858D01*
X94087Y349737D01*
X94036Y349615D01*
X93988Y349491D01*
X93944Y349366D01*
X93904Y349240D01*
X93868Y349112D01*
X93835Y348984D01*
X93806Y348855D01*
X93781Y348724D01*
X93760Y348594D01*
X93742Y348462D01*
X93729Y348330D01*
X93719Y348198D01*
X93713Y348066D01*
X93711Y347933D01*
X93712Y347933D02*
X93712Y343417D01*
X93712Y348836D02*
X86487Y352449D01*
X73364Y187009D02*
X73364Y184299D01*
X73363Y184299D02*
X73361Y184195D01*
X73355Y184092D01*
X73345Y183988D01*
X73331Y183885D01*
X73313Y183783D01*
X73292Y183682D01*
X73266Y183581D01*
X73237Y183482D01*
X73204Y183383D01*
X73167Y183286D01*
X73126Y183191D01*
X73082Y183097D01*
X73034Y183005D01*
X72983Y182915D01*
X72928Y182826D01*
X72870Y182740D01*
X72808Y182657D01*
X72744Y182575D01*
X72676Y182497D01*
X72606Y182421D01*
X72533Y182347D01*
X72456Y182277D01*
X72378Y182209D01*
X72296Y182145D01*
X72213Y182083D01*
X72127Y182025D01*
X72038Y181970D01*
X71948Y181919D01*
X71856Y181871D01*
X71762Y181827D01*
X71667Y181786D01*
X71570Y181749D01*
X71471Y181716D01*
X71372Y181687D01*
X71271Y181661D01*
X71170Y181640D01*
X71068Y181622D01*
X70965Y181608D01*
X70861Y181598D01*
X70758Y181592D01*
X70654Y181590D01*
X65236Y181590D01*
X65133Y181592D01*
X65031Y181598D01*
X64929Y181607D01*
X64827Y181621D01*
X64726Y181638D01*
X64626Y181660D01*
X64527Y181685D01*
X64428Y181713D01*
X64331Y181746D01*
X64235Y181782D01*
X64140Y181821D01*
X64047Y181865D01*
X63956Y181911D01*
X63867Y181962D01*
X63779Y182015D01*
X63694Y182072D01*
X63611Y182132D01*
X63530Y182195D01*
X63451Y182261D01*
X63376Y182330D01*
X63302Y182402D01*
X63232Y182476D01*
X63164Y182553D01*
X63100Y182633D01*
X63038Y182715D01*
X62980Y182799D01*
X62925Y182886D01*
X62873Y182974D01*
X62825Y183065D01*
X62780Y183157D01*
X62738Y183250D01*
X62700Y183346D01*
X62666Y183442D01*
X62635Y183540D01*
X62609Y183639D01*
X62585Y183739D01*
X62566Y183840D01*
X62551Y183941D01*
X62539Y184043D01*
X62531Y184145D01*
X62527Y184248D01*
X62527Y184350D01*
X62531Y184453D01*
X62539Y184555D01*
X62551Y184657D01*
X62566Y184758D01*
X62585Y184859D01*
X62609Y184959D01*
X62635Y185058D01*
X62666Y185156D01*
X62700Y185252D01*
X62738Y185348D01*
X62780Y185441D01*
X62825Y185533D01*
X62873Y185624D01*
X62925Y185712D01*
X62980Y185799D01*
X63038Y185883D01*
X63100Y185965D01*
X63164Y186045D01*
X63232Y186122D01*
X63302Y186196D01*
X63376Y186268D01*
X63451Y186337D01*
X63530Y186403D01*
X63611Y186466D01*
X63694Y186526D01*
X63779Y186583D01*
X63867Y186636D01*
X63956Y186687D01*
X64047Y186733D01*
X64140Y186777D01*
X64235Y186816D01*
X64331Y186852D01*
X64428Y186885D01*
X64527Y186913D01*
X64626Y186938D01*
X64726Y186960D01*
X64827Y186977D01*
X64929Y186991D01*
X65031Y187000D01*
X65133Y187006D01*
X65236Y187008D01*
X64784Y187009D02*
X73364Y187009D01*
X64784Y187008D02*
X64691Y187010D01*
X64598Y187016D01*
X64505Y187025D01*
X64412Y187039D01*
X64321Y187056D01*
X64230Y187077D01*
X64140Y187102D01*
X64051Y187130D01*
X63963Y187162D01*
X63877Y187198D01*
X63792Y187237D01*
X63709Y187280D01*
X63628Y187326D01*
X63549Y187376D01*
X63472Y187428D01*
X63397Y187484D01*
X63325Y187543D01*
X63255Y187605D01*
X63187Y187669D01*
X63123Y187737D01*
X63061Y187807D01*
X63002Y187879D01*
X62946Y187954D01*
X62894Y188031D01*
X62844Y188110D01*
X62798Y188191D01*
X62755Y188274D01*
X62716Y188359D01*
X62680Y188445D01*
X62648Y188533D01*
X62620Y188622D01*
X62595Y188712D01*
X62574Y188803D01*
X62557Y188894D01*
X62543Y188987D01*
X62534Y189080D01*
X62528Y189173D01*
X62526Y189266D01*
X62528Y189359D01*
X62534Y189452D01*
X62543Y189545D01*
X62557Y189638D01*
X62574Y189729D01*
X62595Y189820D01*
X62620Y189910D01*
X62648Y189999D01*
X62680Y190087D01*
X62716Y190173D01*
X62755Y190258D01*
X62798Y190341D01*
X62844Y190422D01*
X62894Y190501D01*
X62946Y190578D01*
X63002Y190653D01*
X63061Y190725D01*
X63123Y190795D01*
X63187Y190863D01*
X63255Y190927D01*
X63325Y190989D01*
X63397Y191048D01*
X63472Y191104D01*
X63549Y191156D01*
X63628Y191206D01*
X63709Y191252D01*
X63792Y191295D01*
X63877Y191334D01*
X63963Y191370D01*
X64051Y191402D01*
X64140Y191430D01*
X64230Y191455D01*
X64321Y191476D01*
X64412Y191493D01*
X64505Y191507D01*
X64598Y191516D01*
X64691Y191522D01*
X64784Y191524D01*
X71557Y191524D01*
X71733Y191522D01*
X71909Y191515D01*
X72084Y191505D01*
X72260Y191490D01*
X72435Y191471D01*
X72609Y191447D01*
X72783Y191419D01*
X72956Y191387D01*
X73128Y191351D01*
X73299Y191311D01*
X73469Y191266D01*
X73639Y191218D01*
X73806Y191165D01*
X73973Y191108D01*
X74138Y191047D01*
X74302Y190982D01*
X74463Y190914D01*
X74624Y190841D01*
X74782Y190764D01*
X74939Y190684D01*
X75093Y190600D01*
X75245Y190512D01*
X75396Y190420D01*
X75544Y190325D01*
X75689Y190226D01*
X75832Y190123D01*
X75973Y190018D01*
X76111Y189908D01*
X76246Y189796D01*
X76378Y189680D01*
X76508Y189561D01*
X76635Y189439D01*
X76758Y189314D01*
X76879Y189186D01*
X76996Y189054D01*
X77110Y188921D01*
X77221Y188784D01*
X77329Y188645D01*
X77433Y188503D01*
X77534Y188359D01*
X77631Y188212D01*
X77724Y188063D01*
X77814Y187912D01*
X77900Y187758D01*
X77982Y187603D01*
X78061Y187445D01*
X78136Y187286D01*
X78207Y187125D01*
X78273Y186962D01*
X78336Y186798D01*
X78395Y186632D01*
X78450Y186465D01*
X78500Y186296D01*
X78547Y186126D01*
X78589Y185956D01*
X78628Y185784D01*
X78662Y185611D01*
X78692Y185438D01*
X78717Y185264D01*
X78739Y185089D01*
X78756Y184914D01*
X78769Y184739D01*
X78777Y184563D01*
X78781Y184387D01*
X78781Y184211D01*
X78777Y184035D01*
X78769Y183859D01*
X78756Y183684D01*
X78739Y183509D01*
X78717Y183334D01*
X78692Y183160D01*
X78662Y182987D01*
X78628Y182814D01*
X78589Y182642D01*
X78547Y182472D01*
X78500Y182302D01*
X78450Y182133D01*
X78395Y181966D01*
X78336Y181800D01*
X78273Y181636D01*
X78207Y181473D01*
X78136Y181312D01*
X78061Y181153D01*
X77982Y180995D01*
X77900Y180840D01*
X77814Y180687D01*
X77724Y180535D01*
X77631Y180386D01*
X77534Y180239D01*
X77433Y180095D01*
X77329Y179953D01*
X77221Y179814D01*
X77110Y179677D01*
X76996Y179544D01*
X76879Y179412D01*
X76758Y179284D01*
X76635Y179159D01*
X76508Y179037D01*
X76378Y178918D01*
X76246Y178802D01*
X76111Y178690D01*
X75973Y178580D01*
X75832Y178475D01*
X75689Y178372D01*
X75544Y178273D01*
X75396Y178178D01*
X75245Y178086D01*
X75093Y177998D01*
X74939Y177914D01*
X74782Y177834D01*
X74624Y177757D01*
X74463Y177684D01*
X74302Y177616D01*
X74138Y177551D01*
X73973Y177490D01*
X73806Y177433D01*
X73639Y177380D01*
X73469Y177332D01*
X73299Y177287D01*
X73128Y177247D01*
X72956Y177211D01*
X72783Y177179D01*
X72609Y177151D01*
X72435Y177127D01*
X72260Y177108D01*
X72084Y177093D01*
X71909Y177083D01*
X71733Y177076D01*
X71557Y177074D01*
X63881Y177074D01*
X63881Y177075D02*
X63717Y177077D01*
X63552Y177083D01*
X63388Y177093D01*
X63224Y177107D01*
X63061Y177125D01*
X62898Y177147D01*
X62735Y177172D01*
X62574Y177202D01*
X62413Y177236D01*
X62253Y177273D01*
X62093Y177315D01*
X61935Y177360D01*
X61778Y177409D01*
X61623Y177462D01*
X61468Y177518D01*
X61315Y177579D01*
X61164Y177643D01*
X61014Y177710D01*
X60866Y177781D01*
X60719Y177856D01*
X60575Y177935D01*
X60432Y178016D01*
X60291Y178102D01*
X60153Y178190D01*
X60016Y178282D01*
X59882Y178378D01*
X59751Y178476D01*
X59621Y178578D01*
X59495Y178682D01*
X59370Y178790D01*
X59249Y178901D01*
X59130Y179015D01*
X59014Y179131D01*
X58901Y179250D01*
X58790Y179372D01*
X58683Y179497D01*
X58579Y179624D01*
X58478Y179754D01*
X58380Y179886D01*
X58285Y180020D01*
X58193Y180157D01*
X58105Y180296D01*
X58021Y180437D01*
X57939Y180580D01*
X57862Y180725D01*
X57787Y180871D01*
X57717Y181020D01*
X57649Y181170D01*
X57586Y181322D01*
X57526Y181475D01*
X57470Y181629D01*
X57418Y181785D01*
X57370Y181943D01*
X57325Y182101D01*
X57284Y182260D01*
X57247Y182420D01*
X57214Y182581D01*
X57185Y182743D01*
X57160Y182906D01*
X57139Y183069D01*
X57121Y183232D01*
X57108Y183396D01*
X62526Y199444D02*
X70654Y199444D01*
X62526Y199445D02*
X62425Y199447D01*
X62324Y199453D01*
X62223Y199462D01*
X62122Y199475D01*
X62022Y199492D01*
X61923Y199513D01*
X61825Y199537D01*
X61728Y199565D01*
X61631Y199597D01*
X61536Y199632D01*
X61443Y199671D01*
X61351Y199713D01*
X61260Y199759D01*
X61172Y199808D01*
X61085Y199860D01*
X61000Y199916D01*
X60917Y199974D01*
X60837Y200036D01*
X60759Y200101D01*
X60683Y200168D01*
X60610Y200238D01*
X60540Y200311D01*
X60473Y200387D01*
X60408Y200465D01*
X60346Y200545D01*
X60288Y200628D01*
X60232Y200713D01*
X60180Y200800D01*
X60131Y200888D01*
X60085Y200979D01*
X60043Y201071D01*
X60004Y201164D01*
X59969Y201259D01*
X59937Y201356D01*
X59909Y201453D01*
X59885Y201551D01*
X59864Y201650D01*
X59847Y201750D01*
X59834Y201851D01*
X59825Y201952D01*
X59819Y202053D01*
X59817Y202154D01*
X59817Y206669D01*
X70654Y206669D01*
X70654Y214033D02*
X59817Y214033D01*
X70654Y214033D02*
X70654Y218549D01*
X70652Y218650D01*
X70646Y218751D01*
X70637Y218852D01*
X70624Y218953D01*
X70607Y219053D01*
X70586Y219152D01*
X70562Y219250D01*
X70534Y219347D01*
X70502Y219444D01*
X70467Y219539D01*
X70428Y219632D01*
X70386Y219724D01*
X70340Y219815D01*
X70291Y219904D01*
X70239Y219990D01*
X70183Y220075D01*
X70125Y220158D01*
X70063Y220238D01*
X69998Y220316D01*
X69931Y220392D01*
X69861Y220465D01*
X69788Y220535D01*
X69712Y220602D01*
X69634Y220667D01*
X69554Y220729D01*
X69471Y220787D01*
X69386Y220843D01*
X69300Y220895D01*
X69211Y220944D01*
X69120Y220990D01*
X69028Y221032D01*
X68935Y221071D01*
X68840Y221106D01*
X68743Y221138D01*
X68646Y221166D01*
X68548Y221190D01*
X68449Y221211D01*
X68349Y221228D01*
X68248Y221241D01*
X68147Y221250D01*
X68046Y221256D01*
X67945Y221258D01*
X59817Y221258D01*
X59817Y228067D02*
X70654Y228067D01*
X75170Y227615D02*
X76073Y227615D01*
X76073Y228518D01*
X75170Y228518D01*
X75170Y227615D01*
X70654Y233833D02*
X59817Y237445D01*
X70654Y241058D01*
X66139Y247137D02*
X66139Y257974D01*
X59817Y267301D02*
X59817Y270914D01*
X59817Y267301D02*
X59819Y267200D01*
X59825Y267099D01*
X59834Y266998D01*
X59847Y266897D01*
X59864Y266797D01*
X59885Y266698D01*
X59909Y266600D01*
X59937Y266503D01*
X59969Y266406D01*
X60004Y266311D01*
X60043Y266218D01*
X60085Y266126D01*
X60131Y266035D01*
X60180Y265947D01*
X60232Y265860D01*
X60288Y265775D01*
X60346Y265692D01*
X60408Y265612D01*
X60473Y265534D01*
X60540Y265458D01*
X60610Y265385D01*
X60683Y265315D01*
X60759Y265248D01*
X60837Y265183D01*
X60917Y265121D01*
X61000Y265063D01*
X61085Y265007D01*
X61172Y264955D01*
X61260Y264906D01*
X61351Y264860D01*
X61443Y264818D01*
X61536Y264779D01*
X61631Y264744D01*
X61728Y264712D01*
X61825Y264684D01*
X61923Y264660D01*
X62022Y264639D01*
X62122Y264622D01*
X62223Y264609D01*
X62324Y264600D01*
X62425Y264594D01*
X62526Y264592D01*
X67945Y264592D01*
X68046Y264594D01*
X68147Y264600D01*
X68248Y264609D01*
X68349Y264622D01*
X68449Y264639D01*
X68548Y264660D01*
X68646Y264684D01*
X68743Y264712D01*
X68840Y264744D01*
X68935Y264779D01*
X69028Y264818D01*
X69120Y264860D01*
X69211Y264906D01*
X69299Y264955D01*
X69386Y265007D01*
X69471Y265063D01*
X69554Y265121D01*
X69634Y265183D01*
X69712Y265248D01*
X69788Y265315D01*
X69861Y265385D01*
X69931Y265458D01*
X69998Y265534D01*
X70063Y265612D01*
X70125Y265692D01*
X70183Y265775D01*
X70239Y265860D01*
X70291Y265947D01*
X70340Y266035D01*
X70386Y266126D01*
X70428Y266218D01*
X70467Y266311D01*
X70502Y266406D01*
X70534Y266503D01*
X70562Y266600D01*
X70586Y266698D01*
X70607Y266797D01*
X70624Y266897D01*
X70637Y266998D01*
X70646Y267099D01*
X70652Y267200D01*
X70654Y267301D01*
X70654Y270914D01*
X67042Y276558D02*
X63429Y276558D01*
X67042Y276559D02*
X67161Y276561D01*
X67281Y276567D01*
X67400Y276577D01*
X67518Y276591D01*
X67637Y276608D01*
X67754Y276630D01*
X67871Y276655D01*
X67986Y276685D01*
X68101Y276718D01*
X68215Y276755D01*
X68327Y276795D01*
X68438Y276840D01*
X68547Y276888D01*
X68655Y276939D01*
X68761Y276994D01*
X68865Y277053D01*
X68967Y277115D01*
X69067Y277180D01*
X69165Y277249D01*
X69261Y277321D01*
X69354Y277396D01*
X69444Y277473D01*
X69532Y277554D01*
X69617Y277638D01*
X69699Y277725D01*
X69779Y277814D01*
X69855Y277906D01*
X69929Y278000D01*
X69999Y278097D01*
X70066Y278195D01*
X70130Y278296D01*
X70190Y278400D01*
X70247Y278505D01*
X70300Y278612D01*
X70350Y278720D01*
X70396Y278830D01*
X70438Y278942D01*
X70477Y279055D01*
X70512Y279169D01*
X70543Y279284D01*
X70571Y279401D01*
X70594Y279518D01*
X70614Y279635D01*
X70630Y279754D01*
X70642Y279873D01*
X70650Y279992D01*
X70654Y280111D01*
X70654Y280231D01*
X70650Y280350D01*
X70642Y280469D01*
X70630Y280588D01*
X70614Y280707D01*
X70594Y280824D01*
X70571Y280941D01*
X70543Y281058D01*
X70512Y281173D01*
X70477Y281287D01*
X70438Y281400D01*
X70396Y281512D01*
X70350Y281622D01*
X70300Y281730D01*
X70247Y281837D01*
X70190Y281942D01*
X70130Y282046D01*
X70066Y282147D01*
X69999Y282245D01*
X69929Y282342D01*
X69855Y282436D01*
X69779Y282528D01*
X69699Y282617D01*
X69617Y282704D01*
X69532Y282788D01*
X69444Y282869D01*
X69354Y282946D01*
X69261Y283021D01*
X69165Y283093D01*
X69067Y283162D01*
X68967Y283227D01*
X68865Y283289D01*
X68761Y283348D01*
X68655Y283403D01*
X68547Y283454D01*
X68438Y283502D01*
X68327Y283547D01*
X68215Y283587D01*
X68101Y283624D01*
X67986Y283657D01*
X67871Y283687D01*
X67754Y283712D01*
X67637Y283734D01*
X67518Y283751D01*
X67400Y283765D01*
X67281Y283775D01*
X67161Y283781D01*
X67042Y283783D01*
X63429Y283783D01*
X63310Y283781D01*
X63190Y283775D01*
X63071Y283765D01*
X62953Y283751D01*
X62834Y283734D01*
X62717Y283712D01*
X62600Y283687D01*
X62485Y283657D01*
X62370Y283624D01*
X62256Y283587D01*
X62144Y283547D01*
X62033Y283502D01*
X61924Y283454D01*
X61816Y283403D01*
X61710Y283348D01*
X61606Y283289D01*
X61504Y283227D01*
X61404Y283162D01*
X61306Y283093D01*
X61210Y283021D01*
X61117Y282946D01*
X61027Y282869D01*
X60939Y282788D01*
X60854Y282704D01*
X60772Y282617D01*
X60692Y282528D01*
X60616Y282436D01*
X60542Y282342D01*
X60472Y282245D01*
X60405Y282147D01*
X60341Y282046D01*
X60281Y281942D01*
X60224Y281837D01*
X60171Y281730D01*
X60121Y281622D01*
X60075Y281512D01*
X60033Y281400D01*
X59994Y281287D01*
X59959Y281173D01*
X59928Y281058D01*
X59900Y280941D01*
X59877Y280824D01*
X59857Y280707D01*
X59841Y280588D01*
X59829Y280469D01*
X59821Y280350D01*
X59817Y280231D01*
X59817Y280111D01*
X59821Y279992D01*
X59829Y279873D01*
X59841Y279754D01*
X59857Y279635D01*
X59877Y279518D01*
X59900Y279401D01*
X59928Y279284D01*
X59959Y279169D01*
X59994Y279055D01*
X60033Y278942D01*
X60075Y278830D01*
X60121Y278720D01*
X60171Y278612D01*
X60224Y278505D01*
X60281Y278400D01*
X60341Y278296D01*
X60405Y278195D01*
X60472Y278097D01*
X60542Y278000D01*
X60616Y277906D01*
X60692Y277814D01*
X60772Y277725D01*
X60854Y277638D01*
X60939Y277554D01*
X61027Y277473D01*
X61117Y277396D01*
X61210Y277321D01*
X61306Y277249D01*
X61404Y277180D01*
X61504Y277115D01*
X61606Y277053D01*
X61710Y276994D01*
X61816Y276939D01*
X61924Y276888D01*
X62033Y276840D01*
X62144Y276795D01*
X62256Y276755D01*
X62370Y276718D01*
X62485Y276685D01*
X62600Y276655D01*
X62717Y276630D01*
X62834Y276608D01*
X62953Y276591D01*
X63071Y276577D01*
X63190Y276567D01*
X63310Y276561D01*
X63429Y276559D01*
X70654Y288808D02*
X70654Y294227D01*
X76073Y290614D02*
X62526Y290614D01*
X62526Y290615D02*
X62425Y290617D01*
X62324Y290623D01*
X62223Y290632D01*
X62122Y290645D01*
X62022Y290662D01*
X61923Y290683D01*
X61825Y290707D01*
X61728Y290735D01*
X61631Y290767D01*
X61536Y290802D01*
X61443Y290841D01*
X61351Y290883D01*
X61260Y290929D01*
X61172Y290978D01*
X61085Y291030D01*
X61000Y291086D01*
X60917Y291144D01*
X60837Y291206D01*
X60759Y291271D01*
X60683Y291338D01*
X60610Y291408D01*
X60540Y291481D01*
X60473Y291557D01*
X60408Y291635D01*
X60346Y291715D01*
X60288Y291798D01*
X60232Y291883D01*
X60180Y291970D01*
X60131Y292058D01*
X60085Y292149D01*
X60043Y292241D01*
X60004Y292334D01*
X59969Y292429D01*
X59937Y292526D01*
X59909Y292623D01*
X59885Y292721D01*
X59864Y292820D01*
X59847Y292920D01*
X59834Y293021D01*
X59825Y293122D01*
X59819Y293223D01*
X59817Y293324D01*
X59817Y294227D01*
X59817Y302714D02*
X59817Y307230D01*
X59817Y302714D02*
X59819Y302613D01*
X59825Y302512D01*
X59834Y302411D01*
X59847Y302310D01*
X59864Y302210D01*
X59885Y302111D01*
X59909Y302013D01*
X59937Y301916D01*
X59969Y301819D01*
X60004Y301724D01*
X60043Y301631D01*
X60085Y301539D01*
X60131Y301448D01*
X60180Y301360D01*
X60232Y301273D01*
X60288Y301188D01*
X60346Y301105D01*
X60408Y301025D01*
X60473Y300947D01*
X60540Y300871D01*
X60610Y300798D01*
X60683Y300728D01*
X60759Y300661D01*
X60837Y300596D01*
X60917Y300534D01*
X61000Y300476D01*
X61085Y300420D01*
X61172Y300368D01*
X61260Y300319D01*
X61351Y300273D01*
X61443Y300231D01*
X61536Y300192D01*
X61631Y300157D01*
X61728Y300125D01*
X61825Y300097D01*
X61923Y300073D01*
X62022Y300052D01*
X62122Y300035D01*
X62223Y300022D01*
X62324Y300013D01*
X62425Y300007D01*
X62526Y300005D01*
X67042Y300005D01*
X67042Y300006D02*
X67161Y300008D01*
X67281Y300014D01*
X67400Y300024D01*
X67518Y300038D01*
X67637Y300055D01*
X67754Y300077D01*
X67871Y300102D01*
X67986Y300132D01*
X68101Y300165D01*
X68215Y300202D01*
X68327Y300242D01*
X68438Y300287D01*
X68547Y300335D01*
X68655Y300386D01*
X68761Y300441D01*
X68865Y300500D01*
X68967Y300562D01*
X69067Y300627D01*
X69165Y300696D01*
X69261Y300768D01*
X69354Y300843D01*
X69444Y300920D01*
X69532Y301001D01*
X69617Y301085D01*
X69699Y301172D01*
X69779Y301261D01*
X69855Y301353D01*
X69929Y301447D01*
X69999Y301544D01*
X70066Y301642D01*
X70130Y301743D01*
X70190Y301847D01*
X70247Y301952D01*
X70300Y302059D01*
X70350Y302167D01*
X70396Y302277D01*
X70438Y302389D01*
X70477Y302502D01*
X70512Y302616D01*
X70543Y302731D01*
X70571Y302848D01*
X70594Y302965D01*
X70614Y303082D01*
X70630Y303201D01*
X70642Y303320D01*
X70650Y303439D01*
X70654Y303558D01*
X70654Y303678D01*
X70650Y303797D01*
X70642Y303916D01*
X70630Y304035D01*
X70614Y304154D01*
X70594Y304271D01*
X70571Y304388D01*
X70543Y304505D01*
X70512Y304620D01*
X70477Y304734D01*
X70438Y304847D01*
X70396Y304959D01*
X70350Y305069D01*
X70300Y305177D01*
X70247Y305284D01*
X70190Y305389D01*
X70130Y305493D01*
X70066Y305594D01*
X69999Y305692D01*
X69929Y305789D01*
X69855Y305883D01*
X69779Y305975D01*
X69699Y306064D01*
X69617Y306151D01*
X69532Y306235D01*
X69444Y306316D01*
X69354Y306393D01*
X69261Y306468D01*
X69165Y306540D01*
X69067Y306609D01*
X68967Y306674D01*
X68865Y306736D01*
X68761Y306795D01*
X68655Y306850D01*
X68547Y306901D01*
X68438Y306949D01*
X68327Y306994D01*
X68215Y307034D01*
X68101Y307071D01*
X67986Y307104D01*
X67871Y307134D01*
X67754Y307159D01*
X67637Y307181D01*
X67518Y307198D01*
X67400Y307212D01*
X67281Y307222D01*
X67161Y307228D01*
X67042Y307230D01*
X65236Y307230D01*
X65236Y300005D01*
X59817Y320704D02*
X76073Y320704D01*
X59817Y320704D02*
X59817Y316188D01*
X59819Y316087D01*
X59825Y315986D01*
X59834Y315885D01*
X59847Y315784D01*
X59864Y315684D01*
X59885Y315585D01*
X59909Y315487D01*
X59937Y315390D01*
X59969Y315293D01*
X60004Y315198D01*
X60043Y315105D01*
X60085Y315013D01*
X60131Y314922D01*
X60180Y314834D01*
X60232Y314747D01*
X60288Y314662D01*
X60346Y314579D01*
X60408Y314499D01*
X60473Y314421D01*
X60540Y314345D01*
X60610Y314272D01*
X60683Y314202D01*
X60759Y314135D01*
X60837Y314070D01*
X60917Y314008D01*
X61000Y313950D01*
X61085Y313894D01*
X61172Y313842D01*
X61260Y313793D01*
X61351Y313747D01*
X61443Y313705D01*
X61536Y313666D01*
X61631Y313631D01*
X61728Y313599D01*
X61825Y313571D01*
X61923Y313547D01*
X62022Y313526D01*
X62122Y313509D01*
X62223Y313496D01*
X62324Y313487D01*
X62425Y313481D01*
X62526Y313479D01*
X67945Y313479D01*
X68046Y313481D01*
X68147Y313487D01*
X68248Y313496D01*
X68349Y313509D01*
X68449Y313526D01*
X68548Y313547D01*
X68646Y313571D01*
X68743Y313599D01*
X68840Y313631D01*
X68935Y313666D01*
X69028Y313705D01*
X69120Y313747D01*
X69211Y313793D01*
X69299Y313842D01*
X69386Y313894D01*
X69471Y313950D01*
X69554Y314008D01*
X69634Y314070D01*
X69712Y314135D01*
X69788Y314202D01*
X69861Y314272D01*
X69931Y314345D01*
X69998Y314421D01*
X70063Y314499D01*
X70125Y314579D01*
X70183Y314662D01*
X70239Y314747D01*
X70291Y314834D01*
X70340Y314922D01*
X70386Y315013D01*
X70428Y315105D01*
X70467Y315198D01*
X70502Y315293D01*
X70534Y315390D01*
X70562Y315487D01*
X70586Y315585D01*
X70607Y315684D01*
X70624Y315784D01*
X70637Y315885D01*
X70646Y315986D01*
X70652Y316087D01*
X70654Y316188D01*
X70654Y320704D01*
X66139Y330708D02*
X66139Y334772D01*
X66139Y330708D02*
X66137Y330596D01*
X66131Y330485D01*
X66121Y330374D01*
X66108Y330263D01*
X66090Y330153D01*
X66068Y330044D01*
X66043Y329935D01*
X66014Y329827D01*
X65981Y329721D01*
X65944Y329615D01*
X65904Y329511D01*
X65860Y329409D01*
X65812Y329308D01*
X65761Y329209D01*
X65706Y329111D01*
X65648Y329016D01*
X65587Y328923D01*
X65522Y328832D01*
X65454Y328743D01*
X65383Y328657D01*
X65310Y328574D01*
X65233Y328493D01*
X65153Y328414D01*
X65071Y328339D01*
X64986Y328267D01*
X64899Y328197D01*
X64809Y328131D01*
X64717Y328068D01*
X64622Y328008D01*
X64526Y327952D01*
X64428Y327899D01*
X64328Y327850D01*
X64226Y327804D01*
X64123Y327762D01*
X64018Y327723D01*
X63912Y327688D01*
X63805Y327657D01*
X63697Y327630D01*
X63588Y327606D01*
X63478Y327587D01*
X63368Y327571D01*
X63257Y327559D01*
X63145Y327551D01*
X63034Y327547D01*
X62922Y327547D01*
X62811Y327551D01*
X62699Y327559D01*
X62588Y327571D01*
X62478Y327587D01*
X62368Y327606D01*
X62259Y327630D01*
X62151Y327657D01*
X62044Y327688D01*
X61938Y327723D01*
X61833Y327762D01*
X61730Y327804D01*
X61628Y327850D01*
X61528Y327899D01*
X61430Y327952D01*
X61334Y328008D01*
X61239Y328068D01*
X61147Y328131D01*
X61057Y328197D01*
X60970Y328267D01*
X60885Y328339D01*
X60803Y328414D01*
X60723Y328493D01*
X60646Y328574D01*
X60573Y328657D01*
X60502Y328743D01*
X60434Y328832D01*
X60369Y328923D01*
X60308Y329016D01*
X60250Y329111D01*
X60195Y329209D01*
X60144Y329308D01*
X60096Y329409D01*
X60052Y329511D01*
X60012Y329615D01*
X59975Y329721D01*
X59942Y329827D01*
X59913Y329935D01*
X59888Y330044D01*
X59866Y330153D01*
X59848Y330263D01*
X59835Y330374D01*
X59825Y330485D01*
X59819Y330596D01*
X59817Y330708D01*
X59817Y334772D01*
X67945Y334772D01*
X68046Y334770D01*
X68147Y334764D01*
X68248Y334755D01*
X68349Y334742D01*
X68449Y334725D01*
X68548Y334704D01*
X68646Y334680D01*
X68743Y334652D01*
X68840Y334620D01*
X68935Y334585D01*
X69028Y334546D01*
X69120Y334504D01*
X69211Y334458D01*
X69300Y334409D01*
X69386Y334357D01*
X69471Y334301D01*
X69554Y334243D01*
X69634Y334181D01*
X69712Y334116D01*
X69788Y334049D01*
X69861Y333979D01*
X69931Y333906D01*
X69998Y333830D01*
X70063Y333752D01*
X70125Y333672D01*
X70183Y333589D01*
X70239Y333504D01*
X70291Y333418D01*
X70340Y333329D01*
X70386Y333238D01*
X70428Y333146D01*
X70467Y333053D01*
X70502Y332958D01*
X70534Y332861D01*
X70562Y332764D01*
X70586Y332666D01*
X70607Y332567D01*
X70624Y332467D01*
X70637Y332366D01*
X70646Y332265D01*
X70652Y332164D01*
X70654Y332063D01*
X70654Y328450D01*
X70654Y341167D02*
X70654Y348392D01*
X59817Y341167D01*
X59817Y348392D01*
X62526Y354714D02*
X70654Y354714D01*
X62526Y354715D02*
X62425Y354717D01*
X62324Y354723D01*
X62223Y354732D01*
X62122Y354745D01*
X62022Y354762D01*
X61923Y354783D01*
X61825Y354807D01*
X61728Y354835D01*
X61631Y354867D01*
X61536Y354902D01*
X61443Y354941D01*
X61351Y354983D01*
X61260Y355029D01*
X61172Y355078D01*
X61085Y355130D01*
X61000Y355186D01*
X60917Y355244D01*
X60837Y355306D01*
X60759Y355371D01*
X60683Y355438D01*
X60610Y355508D01*
X60540Y355581D01*
X60473Y355657D01*
X60408Y355735D01*
X60346Y355815D01*
X60288Y355898D01*
X60232Y355983D01*
X60180Y356070D01*
X60131Y356158D01*
X60085Y356249D01*
X60043Y356341D01*
X60004Y356434D01*
X59969Y356529D01*
X59937Y356626D01*
X59909Y356723D01*
X59885Y356821D01*
X59864Y356920D01*
X59847Y357020D01*
X59834Y357121D01*
X59825Y357222D01*
X59819Y357323D01*
X59817Y357424D01*
X59817Y361939D01*
X70654Y361939D01*
X70654Y369388D02*
X59817Y369388D01*
X70654Y369388D02*
X70654Y374807D01*
X68848Y374807D01*
X60720Y379238D02*
X59817Y379238D01*
X60720Y379238D02*
X60720Y380141D01*
X59817Y380141D01*
X59817Y379238D01*
X59817Y386865D02*
X73364Y386865D01*
X73468Y386867D01*
X73571Y386873D01*
X73675Y386883D01*
X73778Y386897D01*
X73880Y386915D01*
X73981Y386936D01*
X74082Y386962D01*
X74181Y386991D01*
X74280Y387024D01*
X74377Y387061D01*
X74472Y387102D01*
X74566Y387146D01*
X74658Y387194D01*
X74748Y387245D01*
X74837Y387300D01*
X74923Y387358D01*
X75006Y387420D01*
X75088Y387484D01*
X75166Y387552D01*
X75242Y387622D01*
X75316Y387695D01*
X75386Y387772D01*
X75454Y387850D01*
X75518Y387932D01*
X75580Y388015D01*
X75638Y388101D01*
X75693Y388190D01*
X75744Y388280D01*
X75792Y388372D01*
X75836Y388466D01*
X75877Y388561D01*
X75914Y388658D01*
X75947Y388757D01*
X75976Y388856D01*
X76002Y388957D01*
X76023Y389058D01*
X76041Y389160D01*
X76055Y389263D01*
X76065Y389367D01*
X76071Y389470D01*
X76073Y389574D01*
X76073Y390477D01*
X70654Y390477D02*
X70654Y385058D01*
X70654Y395440D02*
X59817Y395440D01*
X70654Y395440D02*
X70654Y400859D01*
X68848Y400859D01*
D11*
X982155Y119542D02*
X982155Y117496D01*
X982154Y117496D02*
X982156Y117427D01*
X982162Y117359D01*
X982171Y117290D01*
X982185Y117223D01*
X982202Y117156D01*
X982223Y117090D01*
X982247Y117026D01*
X982276Y116963D01*
X982307Y116902D01*
X982342Y116843D01*
X982380Y116785D01*
X982422Y116730D01*
X982466Y116678D01*
X982514Y116628D01*
X982564Y116580D01*
X982616Y116536D01*
X982671Y116494D01*
X982729Y116456D01*
X982788Y116421D01*
X982849Y116390D01*
X982912Y116361D01*
X982976Y116337D01*
X983042Y116316D01*
X983109Y116299D01*
X983176Y116285D01*
X983245Y116276D01*
X983313Y116270D01*
X983382Y116268D01*
X983382Y116269D02*
X985838Y116269D01*
X985838Y116268D02*
X985907Y116270D01*
X985975Y116276D01*
X986044Y116285D01*
X986111Y116299D01*
X986178Y116316D01*
X986244Y116337D01*
X986308Y116361D01*
X986371Y116390D01*
X986432Y116421D01*
X986491Y116456D01*
X986549Y116494D01*
X986604Y116536D01*
X986656Y116580D01*
X986706Y116628D01*
X986754Y116678D01*
X986798Y116730D01*
X986840Y116785D01*
X986878Y116843D01*
X986913Y116902D01*
X986944Y116963D01*
X986973Y117026D01*
X986997Y117090D01*
X987018Y117156D01*
X987035Y117223D01*
X987049Y117290D01*
X987058Y117359D01*
X987064Y117427D01*
X987066Y117496D01*
X987065Y117496D02*
X987065Y119542D01*
X980927Y119542D01*
X980927Y119543D02*
X980858Y119541D01*
X980790Y119535D01*
X980721Y119526D01*
X980654Y119512D01*
X980587Y119495D01*
X980521Y119474D01*
X980457Y119450D01*
X980394Y119421D01*
X980333Y119390D01*
X980274Y119355D01*
X980216Y119317D01*
X980161Y119275D01*
X980109Y119231D01*
X980059Y119183D01*
X980011Y119133D01*
X979967Y119081D01*
X979926Y119026D01*
X979887Y118968D01*
X979852Y118909D01*
X979821Y118848D01*
X979792Y118785D01*
X979768Y118721D01*
X979747Y118655D01*
X979730Y118588D01*
X979716Y118521D01*
X979707Y118453D01*
X979701Y118384D01*
X979699Y118315D01*
X979699Y116678D01*
X982155Y123137D02*
X987065Y123137D01*
X987065Y125183D01*
X987066Y125183D02*
X987064Y125252D01*
X987058Y125320D01*
X987049Y125389D01*
X987035Y125456D01*
X987018Y125523D01*
X986997Y125589D01*
X986973Y125653D01*
X986944Y125716D01*
X986913Y125777D01*
X986878Y125836D01*
X986840Y125894D01*
X986798Y125949D01*
X986754Y126001D01*
X986706Y126051D01*
X986656Y126099D01*
X986604Y126143D01*
X986549Y126185D01*
X986491Y126223D01*
X986432Y126258D01*
X986371Y126289D01*
X986308Y126318D01*
X986244Y126342D01*
X986178Y126363D01*
X986111Y126380D01*
X986044Y126394D01*
X985975Y126403D01*
X985907Y126409D01*
X985838Y126411D01*
X982155Y126411D01*
X982155Y132953D02*
X989521Y132953D01*
X982155Y132953D02*
X982155Y130907D01*
X982154Y130907D02*
X982156Y130838D01*
X982162Y130770D01*
X982171Y130701D01*
X982185Y130634D01*
X982202Y130567D01*
X982223Y130501D01*
X982247Y130437D01*
X982276Y130374D01*
X982307Y130313D01*
X982342Y130254D01*
X982380Y130196D01*
X982422Y130141D01*
X982466Y130089D01*
X982514Y130039D01*
X982564Y129991D01*
X982616Y129947D01*
X982671Y129905D01*
X982729Y129867D01*
X982788Y129832D01*
X982849Y129801D01*
X982912Y129772D01*
X982976Y129748D01*
X983042Y129727D01*
X983109Y129710D01*
X983176Y129696D01*
X983245Y129687D01*
X983313Y129681D01*
X983382Y129679D01*
X983382Y129680D02*
X985838Y129680D01*
X985838Y129679D02*
X985907Y129681D01*
X985975Y129687D01*
X986044Y129696D01*
X986111Y129710D01*
X986178Y129727D01*
X986244Y129748D01*
X986308Y129772D01*
X986371Y129801D01*
X986432Y129832D01*
X986491Y129867D01*
X986549Y129905D01*
X986604Y129947D01*
X986656Y129991D01*
X986706Y130039D01*
X986754Y130089D01*
X986798Y130141D01*
X986840Y130196D01*
X986878Y130254D01*
X986913Y130313D01*
X986944Y130374D01*
X986973Y130437D01*
X986997Y130501D01*
X987018Y130567D01*
X987035Y130634D01*
X987049Y130701D01*
X987058Y130770D01*
X987064Y130838D01*
X987066Y130907D01*
X987065Y130907D02*
X987065Y132953D01*
X957771Y119542D02*
X957771Y117496D01*
X957770Y117496D02*
X957772Y117427D01*
X957778Y117359D01*
X957787Y117290D01*
X957801Y117223D01*
X957818Y117156D01*
X957839Y117090D01*
X957863Y117026D01*
X957892Y116963D01*
X957923Y116902D01*
X957958Y116843D01*
X957996Y116785D01*
X958038Y116730D01*
X958082Y116678D01*
X958130Y116628D01*
X958180Y116580D01*
X958232Y116536D01*
X958287Y116494D01*
X958345Y116456D01*
X958404Y116421D01*
X958465Y116390D01*
X958528Y116361D01*
X958592Y116337D01*
X958658Y116316D01*
X958725Y116299D01*
X958792Y116285D01*
X958861Y116276D01*
X958929Y116270D01*
X958998Y116268D01*
X958998Y116269D02*
X961454Y116269D01*
X961454Y116268D02*
X961523Y116270D01*
X961591Y116276D01*
X961660Y116285D01*
X961727Y116299D01*
X961794Y116316D01*
X961860Y116337D01*
X961924Y116361D01*
X961987Y116390D01*
X962048Y116421D01*
X962107Y116456D01*
X962165Y116494D01*
X962220Y116536D01*
X962272Y116580D01*
X962322Y116628D01*
X962370Y116678D01*
X962414Y116730D01*
X962456Y116785D01*
X962494Y116843D01*
X962529Y116902D01*
X962560Y116963D01*
X962589Y117026D01*
X962613Y117090D01*
X962634Y117156D01*
X962651Y117223D01*
X962665Y117290D01*
X962674Y117359D01*
X962680Y117427D01*
X962682Y117496D01*
X962681Y117496D02*
X962681Y119542D01*
X956543Y119542D01*
X956543Y119543D02*
X956474Y119541D01*
X956406Y119535D01*
X956337Y119526D01*
X956270Y119512D01*
X956203Y119495D01*
X956137Y119474D01*
X956073Y119450D01*
X956010Y119421D01*
X955949Y119390D01*
X955890Y119355D01*
X955832Y119317D01*
X955777Y119275D01*
X955725Y119231D01*
X955675Y119183D01*
X955627Y119133D01*
X955583Y119081D01*
X955542Y119026D01*
X955503Y118968D01*
X955468Y118909D01*
X955437Y118848D01*
X955408Y118785D01*
X955384Y118721D01*
X955363Y118655D01*
X955346Y118588D01*
X955332Y118521D01*
X955323Y118453D01*
X955317Y118384D01*
X955315Y118315D01*
X955315Y116678D01*
X957771Y123137D02*
X962681Y123137D01*
X962681Y125183D01*
X962682Y125183D02*
X962680Y125252D01*
X962674Y125320D01*
X962665Y125389D01*
X962651Y125456D01*
X962634Y125523D01*
X962613Y125589D01*
X962589Y125653D01*
X962560Y125716D01*
X962529Y125777D01*
X962494Y125836D01*
X962456Y125894D01*
X962414Y125949D01*
X962370Y126001D01*
X962322Y126051D01*
X962272Y126099D01*
X962220Y126143D01*
X962165Y126185D01*
X962107Y126223D01*
X962048Y126258D01*
X961987Y126289D01*
X961924Y126318D01*
X961860Y126342D01*
X961794Y126363D01*
X961727Y126380D01*
X961660Y126394D01*
X961591Y126403D01*
X961523Y126409D01*
X961454Y126411D01*
X957771Y126411D01*
X957771Y132953D02*
X965137Y132953D01*
X957771Y132953D02*
X957771Y130907D01*
X957770Y130907D02*
X957772Y130838D01*
X957778Y130770D01*
X957787Y130701D01*
X957801Y130634D01*
X957818Y130567D01*
X957839Y130501D01*
X957863Y130437D01*
X957892Y130374D01*
X957923Y130313D01*
X957958Y130254D01*
X957996Y130196D01*
X958038Y130141D01*
X958082Y130089D01*
X958130Y130039D01*
X958180Y129991D01*
X958232Y129947D01*
X958287Y129905D01*
X958345Y129867D01*
X958404Y129832D01*
X958465Y129801D01*
X958528Y129772D01*
X958592Y129748D01*
X958658Y129727D01*
X958725Y129710D01*
X958792Y129696D01*
X958861Y129687D01*
X958929Y129681D01*
X958998Y129679D01*
X958998Y129680D02*
X961454Y129680D01*
X961454Y129679D02*
X961523Y129681D01*
X961591Y129687D01*
X961660Y129696D01*
X961727Y129710D01*
X961794Y129727D01*
X961860Y129748D01*
X961924Y129772D01*
X961987Y129801D01*
X962048Y129832D01*
X962107Y129867D01*
X962165Y129905D01*
X962220Y129947D01*
X962272Y129991D01*
X962322Y130039D01*
X962370Y130089D01*
X962414Y130141D01*
X962456Y130196D01*
X962494Y130254D01*
X962529Y130313D01*
X962560Y130374D01*
X962589Y130437D01*
X962613Y130501D01*
X962634Y130567D01*
X962651Y130634D01*
X962665Y130701D01*
X962674Y130770D01*
X962680Y130838D01*
X962682Y130907D01*
X962681Y130907D02*
X962681Y132953D01*
X933387Y119542D02*
X933387Y117496D01*
X933386Y117496D02*
X933388Y117427D01*
X933394Y117359D01*
X933403Y117290D01*
X933417Y117223D01*
X933434Y117156D01*
X933455Y117090D01*
X933479Y117026D01*
X933508Y116963D01*
X933539Y116902D01*
X933574Y116843D01*
X933612Y116785D01*
X933654Y116730D01*
X933698Y116678D01*
X933746Y116628D01*
X933796Y116580D01*
X933848Y116536D01*
X933903Y116494D01*
X933961Y116456D01*
X934020Y116421D01*
X934081Y116390D01*
X934144Y116361D01*
X934208Y116337D01*
X934274Y116316D01*
X934341Y116299D01*
X934408Y116285D01*
X934477Y116276D01*
X934545Y116270D01*
X934614Y116268D01*
X934614Y116269D02*
X937070Y116269D01*
X937070Y116268D02*
X937139Y116270D01*
X937207Y116276D01*
X937276Y116285D01*
X937343Y116299D01*
X937410Y116316D01*
X937476Y116337D01*
X937540Y116361D01*
X937603Y116390D01*
X937664Y116421D01*
X937723Y116456D01*
X937781Y116494D01*
X937836Y116536D01*
X937888Y116580D01*
X937938Y116628D01*
X937986Y116678D01*
X938030Y116730D01*
X938072Y116785D01*
X938110Y116843D01*
X938145Y116902D01*
X938176Y116963D01*
X938205Y117026D01*
X938229Y117090D01*
X938250Y117156D01*
X938267Y117223D01*
X938281Y117290D01*
X938290Y117359D01*
X938296Y117427D01*
X938298Y117496D01*
X938297Y117496D02*
X938297Y119542D01*
X932159Y119542D01*
X932159Y119543D02*
X932090Y119541D01*
X932022Y119535D01*
X931953Y119526D01*
X931886Y119512D01*
X931819Y119495D01*
X931753Y119474D01*
X931689Y119450D01*
X931626Y119421D01*
X931565Y119390D01*
X931506Y119355D01*
X931448Y119317D01*
X931393Y119275D01*
X931341Y119231D01*
X931291Y119183D01*
X931243Y119133D01*
X931199Y119081D01*
X931158Y119026D01*
X931119Y118968D01*
X931084Y118909D01*
X931053Y118848D01*
X931024Y118785D01*
X931000Y118721D01*
X930979Y118655D01*
X930962Y118588D01*
X930948Y118521D01*
X930939Y118453D01*
X930933Y118384D01*
X930931Y118315D01*
X930931Y116678D01*
X933387Y123137D02*
X938297Y123137D01*
X938297Y125183D01*
X938298Y125183D02*
X938296Y125252D01*
X938290Y125320D01*
X938281Y125389D01*
X938267Y125456D01*
X938250Y125523D01*
X938229Y125589D01*
X938205Y125653D01*
X938176Y125716D01*
X938145Y125777D01*
X938110Y125836D01*
X938072Y125894D01*
X938030Y125949D01*
X937986Y126001D01*
X937938Y126051D01*
X937888Y126099D01*
X937836Y126143D01*
X937781Y126185D01*
X937723Y126223D01*
X937664Y126258D01*
X937603Y126289D01*
X937540Y126318D01*
X937476Y126342D01*
X937410Y126363D01*
X937343Y126380D01*
X937276Y126394D01*
X937207Y126403D01*
X937139Y126409D01*
X937070Y126411D01*
X933387Y126411D01*
X933387Y132953D02*
X940753Y132953D01*
X933387Y132953D02*
X933387Y130907D01*
X933386Y130907D02*
X933388Y130838D01*
X933394Y130770D01*
X933403Y130701D01*
X933417Y130634D01*
X933434Y130567D01*
X933455Y130501D01*
X933479Y130437D01*
X933508Y130374D01*
X933539Y130313D01*
X933574Y130254D01*
X933612Y130196D01*
X933654Y130141D01*
X933698Y130089D01*
X933746Y130039D01*
X933796Y129991D01*
X933848Y129947D01*
X933903Y129905D01*
X933961Y129867D01*
X934020Y129832D01*
X934081Y129801D01*
X934144Y129772D01*
X934208Y129748D01*
X934274Y129727D01*
X934341Y129710D01*
X934408Y129696D01*
X934477Y129687D01*
X934545Y129681D01*
X934614Y129679D01*
X934614Y129680D02*
X937070Y129680D01*
X937070Y129679D02*
X937139Y129681D01*
X937207Y129687D01*
X937276Y129696D01*
X937343Y129710D01*
X937410Y129727D01*
X937476Y129748D01*
X937540Y129772D01*
X937603Y129801D01*
X937664Y129832D01*
X937723Y129867D01*
X937781Y129905D01*
X937836Y129947D01*
X937888Y129991D01*
X937938Y130039D01*
X937986Y130089D01*
X938030Y130141D01*
X938072Y130196D01*
X938110Y130254D01*
X938145Y130313D01*
X938176Y130374D01*
X938205Y130437D01*
X938229Y130501D01*
X938250Y130567D01*
X938267Y130634D01*
X938281Y130701D01*
X938290Y130770D01*
X938296Y130838D01*
X938298Y130907D01*
X938297Y130907D02*
X938297Y132953D01*
X909003Y119133D02*
X909003Y117496D01*
X909002Y117496D02*
X909004Y117427D01*
X909010Y117359D01*
X909019Y117290D01*
X909033Y117223D01*
X909050Y117156D01*
X909071Y117090D01*
X909095Y117026D01*
X909124Y116963D01*
X909155Y116902D01*
X909190Y116843D01*
X909228Y116785D01*
X909270Y116730D01*
X909314Y116678D01*
X909362Y116628D01*
X909412Y116580D01*
X909464Y116536D01*
X909519Y116494D01*
X909577Y116456D01*
X909636Y116421D01*
X909697Y116390D01*
X909760Y116361D01*
X909824Y116337D01*
X909890Y116316D01*
X909957Y116299D01*
X910024Y116285D01*
X910093Y116276D01*
X910161Y116270D01*
X910230Y116268D01*
X910230Y116269D02*
X912686Y116269D01*
X912686Y116268D02*
X912755Y116270D01*
X912823Y116276D01*
X912892Y116285D01*
X912959Y116299D01*
X913026Y116316D01*
X913092Y116337D01*
X913156Y116361D01*
X913219Y116390D01*
X913280Y116421D01*
X913339Y116456D01*
X913397Y116494D01*
X913452Y116536D01*
X913504Y116580D01*
X913554Y116628D01*
X913602Y116678D01*
X913646Y116730D01*
X913688Y116785D01*
X913726Y116843D01*
X913761Y116902D01*
X913792Y116963D01*
X913821Y117026D01*
X913845Y117090D01*
X913866Y117156D01*
X913883Y117223D01*
X913897Y117290D01*
X913906Y117359D01*
X913912Y117427D01*
X913914Y117496D01*
X913913Y117496D02*
X913913Y119133D01*
X909003Y123095D02*
X909003Y125141D01*
X909002Y123095D02*
X909004Y123026D01*
X909010Y122958D01*
X909019Y122889D01*
X909033Y122822D01*
X909050Y122755D01*
X909071Y122689D01*
X909095Y122625D01*
X909124Y122562D01*
X909155Y122501D01*
X909190Y122442D01*
X909228Y122384D01*
X909270Y122329D01*
X909314Y122277D01*
X909362Y122227D01*
X909412Y122179D01*
X909464Y122135D01*
X909519Y122093D01*
X909577Y122055D01*
X909636Y122020D01*
X909697Y121989D01*
X909760Y121960D01*
X909824Y121936D01*
X909890Y121915D01*
X909957Y121898D01*
X910024Y121884D01*
X910093Y121875D01*
X910161Y121869D01*
X910230Y121867D01*
X910230Y121868D02*
X912276Y121868D01*
X912276Y121867D02*
X912355Y121869D01*
X912434Y121875D01*
X912513Y121884D01*
X912591Y121897D01*
X912668Y121915D01*
X912744Y121935D01*
X912819Y121960D01*
X912893Y121988D01*
X912966Y122019D01*
X913037Y122055D01*
X913106Y122093D01*
X913173Y122135D01*
X913238Y122180D01*
X913301Y122228D01*
X913362Y122279D01*
X913419Y122333D01*
X913475Y122389D01*
X913527Y122448D01*
X913577Y122510D01*
X913623Y122574D01*
X913667Y122640D01*
X913707Y122708D01*
X913743Y122778D01*
X913777Y122850D01*
X913807Y122924D01*
X913833Y122998D01*
X913856Y123074D01*
X913874Y123151D01*
X913890Y123228D01*
X913901Y123307D01*
X913909Y123385D01*
X913913Y123464D01*
X913913Y123544D01*
X913909Y123623D01*
X913901Y123701D01*
X913890Y123780D01*
X913874Y123857D01*
X913856Y123934D01*
X913833Y124010D01*
X913807Y124084D01*
X913777Y124158D01*
X913743Y124230D01*
X913707Y124300D01*
X913667Y124368D01*
X913623Y124434D01*
X913577Y124498D01*
X913527Y124560D01*
X913475Y124619D01*
X913419Y124675D01*
X913362Y124729D01*
X913301Y124780D01*
X913238Y124828D01*
X913173Y124873D01*
X913106Y124915D01*
X913037Y124953D01*
X912966Y124989D01*
X912893Y125020D01*
X912819Y125048D01*
X912744Y125073D01*
X912668Y125093D01*
X912591Y125111D01*
X912513Y125124D01*
X912434Y125133D01*
X912355Y125139D01*
X912276Y125141D01*
X911458Y125141D01*
X911458Y121868D01*
X887483Y119542D02*
X887483Y117701D01*
X887481Y117626D01*
X887475Y117551D01*
X887465Y117477D01*
X887452Y117403D01*
X887434Y117330D01*
X887413Y117258D01*
X887388Y117188D01*
X887359Y117119D01*
X887327Y117051D01*
X887291Y116985D01*
X887252Y116921D01*
X887210Y116859D01*
X887164Y116800D01*
X887115Y116743D01*
X887064Y116688D01*
X887009Y116637D01*
X886952Y116588D01*
X886893Y116542D01*
X886831Y116500D01*
X886767Y116461D01*
X886701Y116425D01*
X886633Y116393D01*
X886564Y116364D01*
X886494Y116339D01*
X886422Y116318D01*
X886349Y116300D01*
X886275Y116287D01*
X886201Y116277D01*
X886126Y116271D01*
X886051Y116269D01*
X885976Y116271D01*
X885901Y116277D01*
X885827Y116287D01*
X885753Y116300D01*
X885680Y116318D01*
X885608Y116339D01*
X885538Y116364D01*
X885469Y116393D01*
X885401Y116425D01*
X885335Y116461D01*
X885271Y116500D01*
X885209Y116542D01*
X885150Y116588D01*
X885093Y116637D01*
X885038Y116688D01*
X884987Y116743D01*
X884938Y116800D01*
X884892Y116859D01*
X884850Y116921D01*
X884811Y116985D01*
X884775Y117051D01*
X884743Y117119D01*
X884714Y117188D01*
X884689Y117258D01*
X884668Y117330D01*
X884650Y117403D01*
X884637Y117477D01*
X884627Y117551D01*
X884621Y117626D01*
X884619Y117701D01*
X884619Y119542D01*
X888302Y119542D01*
X888302Y119543D02*
X888371Y119541D01*
X888439Y119535D01*
X888508Y119526D01*
X888575Y119512D01*
X888642Y119495D01*
X888708Y119474D01*
X888772Y119450D01*
X888835Y119421D01*
X888896Y119390D01*
X888955Y119355D01*
X889013Y119317D01*
X889068Y119275D01*
X889120Y119231D01*
X889170Y119183D01*
X889218Y119133D01*
X889262Y119081D01*
X889304Y119026D01*
X889342Y118968D01*
X889377Y118909D01*
X889408Y118848D01*
X889437Y118785D01*
X889461Y118721D01*
X889482Y118655D01*
X889499Y118588D01*
X889513Y118521D01*
X889522Y118452D01*
X889528Y118384D01*
X889530Y118315D01*
X889529Y118315D02*
X889529Y116678D01*
X891985Y122976D02*
X885846Y122976D01*
X885777Y122978D01*
X885709Y122984D01*
X885640Y122993D01*
X885573Y123007D01*
X885506Y123024D01*
X885440Y123045D01*
X885376Y123069D01*
X885313Y123098D01*
X885252Y123129D01*
X885193Y123164D01*
X885135Y123202D01*
X885080Y123244D01*
X885028Y123288D01*
X884978Y123336D01*
X884930Y123386D01*
X884886Y123438D01*
X884844Y123493D01*
X884806Y123551D01*
X884771Y123610D01*
X884740Y123671D01*
X884711Y123734D01*
X884687Y123798D01*
X884666Y123864D01*
X884649Y123931D01*
X884635Y123998D01*
X884626Y124067D01*
X884620Y124135D01*
X884618Y124204D01*
X883800Y126551D02*
X883800Y129824D01*
X884619Y132931D02*
X891985Y132931D01*
X884619Y132931D02*
X884619Y134978D01*
X884618Y134978D02*
X884620Y135047D01*
X884626Y135115D01*
X884635Y135184D01*
X884649Y135251D01*
X884666Y135318D01*
X884687Y135384D01*
X884711Y135448D01*
X884740Y135511D01*
X884771Y135572D01*
X884806Y135631D01*
X884844Y135689D01*
X884886Y135744D01*
X884930Y135796D01*
X884978Y135846D01*
X885028Y135894D01*
X885080Y135938D01*
X885135Y135980D01*
X885193Y136018D01*
X885252Y136053D01*
X885313Y136084D01*
X885376Y136113D01*
X885440Y136137D01*
X885506Y136158D01*
X885573Y136175D01*
X885640Y136189D01*
X885709Y136198D01*
X885777Y136204D01*
X885846Y136206D01*
X885846Y136205D02*
X888302Y136205D01*
X888302Y136206D02*
X888371Y136204D01*
X888439Y136198D01*
X888508Y136189D01*
X888575Y136175D01*
X888642Y136158D01*
X888708Y136137D01*
X888772Y136113D01*
X888835Y136084D01*
X888896Y136053D01*
X888955Y136018D01*
X889013Y135980D01*
X889068Y135938D01*
X889120Y135894D01*
X889170Y135846D01*
X889218Y135796D01*
X889262Y135744D01*
X889304Y135689D01*
X889342Y135631D01*
X889377Y135572D01*
X889408Y135511D01*
X889437Y135448D01*
X889461Y135384D01*
X889482Y135318D01*
X889499Y135251D01*
X889513Y135184D01*
X889522Y135115D01*
X889528Y135047D01*
X889530Y134978D01*
X889529Y134978D02*
X889529Y132931D01*
X887483Y140622D02*
X887483Y142463D01*
X887483Y140622D02*
X887481Y140547D01*
X887475Y140472D01*
X887465Y140398D01*
X887452Y140324D01*
X887434Y140251D01*
X887413Y140179D01*
X887388Y140109D01*
X887359Y140040D01*
X887327Y139972D01*
X887291Y139906D01*
X887252Y139842D01*
X887210Y139780D01*
X887164Y139721D01*
X887115Y139664D01*
X887064Y139609D01*
X887009Y139558D01*
X886952Y139509D01*
X886893Y139463D01*
X886831Y139421D01*
X886767Y139382D01*
X886701Y139346D01*
X886633Y139314D01*
X886564Y139285D01*
X886494Y139260D01*
X886422Y139239D01*
X886349Y139221D01*
X886275Y139208D01*
X886201Y139198D01*
X886126Y139192D01*
X886051Y139190D01*
X885976Y139192D01*
X885901Y139198D01*
X885827Y139208D01*
X885753Y139221D01*
X885680Y139239D01*
X885608Y139260D01*
X885538Y139285D01*
X885469Y139314D01*
X885401Y139346D01*
X885335Y139382D01*
X885271Y139421D01*
X885209Y139463D01*
X885150Y139509D01*
X885093Y139558D01*
X885038Y139609D01*
X884987Y139664D01*
X884938Y139721D01*
X884892Y139780D01*
X884850Y139842D01*
X884811Y139906D01*
X884775Y139972D01*
X884743Y140040D01*
X884714Y140109D01*
X884689Y140179D01*
X884668Y140251D01*
X884650Y140324D01*
X884637Y140398D01*
X884627Y140472D01*
X884621Y140547D01*
X884619Y140622D01*
X884619Y142463D01*
X888302Y142463D01*
X888371Y142461D01*
X888439Y142455D01*
X888508Y142446D01*
X888575Y142432D01*
X888642Y142415D01*
X888708Y142394D01*
X888772Y142370D01*
X888835Y142341D01*
X888896Y142310D01*
X888955Y142275D01*
X889013Y142237D01*
X889068Y142195D01*
X889120Y142151D01*
X889170Y142103D01*
X889218Y142053D01*
X889262Y142001D01*
X889304Y141946D01*
X889342Y141888D01*
X889377Y141829D01*
X889408Y141768D01*
X889437Y141705D01*
X889461Y141641D01*
X889482Y141575D01*
X889499Y141508D01*
X889513Y141441D01*
X889522Y141372D01*
X889528Y141304D01*
X889530Y141235D01*
X889529Y141235D02*
X889529Y139599D01*
X889529Y145184D02*
X889529Y147639D01*
X891985Y146002D02*
X885846Y146002D01*
X885777Y146004D01*
X885709Y146010D01*
X885640Y146019D01*
X885573Y146033D01*
X885506Y146050D01*
X885440Y146071D01*
X885376Y146095D01*
X885313Y146124D01*
X885252Y146155D01*
X885193Y146190D01*
X885135Y146228D01*
X885080Y146270D01*
X885028Y146314D01*
X884978Y146362D01*
X884930Y146412D01*
X884886Y146464D01*
X884844Y146519D01*
X884806Y146577D01*
X884771Y146636D01*
X884740Y146697D01*
X884711Y146760D01*
X884687Y146824D01*
X884666Y146890D01*
X884649Y146957D01*
X884635Y147024D01*
X884626Y147093D01*
X884620Y147161D01*
X884618Y147230D01*
X884619Y147230D02*
X884619Y147639D01*
D12*
X391605Y624177D02*
X383815Y624177D01*
X387710Y628071D02*
X387710Y620282D01*
X378763Y628721D02*
X375518Y631317D01*
X375518Y619633D01*
X378763Y619633D02*
X372272Y619633D01*
X360842Y628396D02*
X360844Y628503D01*
X360850Y628609D01*
X360860Y628715D01*
X360873Y628821D01*
X360891Y628927D01*
X360912Y629031D01*
X360937Y629135D01*
X360966Y629238D01*
X360998Y629339D01*
X361035Y629439D01*
X361075Y629538D01*
X361118Y629636D01*
X361165Y629732D01*
X361216Y629826D01*
X361270Y629918D01*
X361327Y630008D01*
X361387Y630096D01*
X361451Y630181D01*
X361518Y630264D01*
X361588Y630345D01*
X361660Y630423D01*
X361736Y630499D01*
X361814Y630571D01*
X361895Y630641D01*
X361978Y630708D01*
X362063Y630772D01*
X362151Y630832D01*
X362241Y630889D01*
X362333Y630943D01*
X362427Y630994D01*
X362523Y631041D01*
X362621Y631084D01*
X362720Y631124D01*
X362820Y631161D01*
X362921Y631193D01*
X363024Y631222D01*
X363128Y631247D01*
X363232Y631268D01*
X363338Y631286D01*
X363444Y631299D01*
X363550Y631309D01*
X363656Y631315D01*
X363763Y631317D01*
X363884Y631315D01*
X364005Y631309D01*
X364125Y631299D01*
X364246Y631286D01*
X364365Y631268D01*
X364485Y631247D01*
X364603Y631222D01*
X364720Y631193D01*
X364837Y631160D01*
X364952Y631124D01*
X365066Y631083D01*
X365179Y631040D01*
X365291Y630992D01*
X365400Y630941D01*
X365508Y630886D01*
X365615Y630828D01*
X365719Y630767D01*
X365821Y630702D01*
X365921Y630634D01*
X366019Y630563D01*
X366115Y630489D01*
X366208Y630412D01*
X366298Y630331D01*
X366386Y630248D01*
X366471Y630162D01*
X366554Y630073D01*
X366633Y629982D01*
X366710Y629888D01*
X366783Y629792D01*
X366853Y629694D01*
X366920Y629593D01*
X366984Y629490D01*
X367045Y629385D01*
X367102Y629278D01*
X367155Y629170D01*
X367205Y629060D01*
X367251Y628948D01*
X367294Y628835D01*
X367333Y628720D01*
X361817Y626124D02*
X361738Y626202D01*
X361662Y626282D01*
X361589Y626365D01*
X361519Y626451D01*
X361452Y626538D01*
X361388Y626629D01*
X361328Y626721D01*
X361270Y626815D01*
X361216Y626912D01*
X361166Y627010D01*
X361119Y627110D01*
X361075Y627211D01*
X361035Y627314D01*
X360999Y627419D01*
X360967Y627524D01*
X360938Y627631D01*
X360913Y627738D01*
X360891Y627847D01*
X360874Y627956D01*
X360860Y628065D01*
X360851Y628175D01*
X360845Y628286D01*
X360843Y628396D01*
X361816Y626124D02*
X367333Y619633D01*
X360842Y619633D01*
X352658Y619633D02*
X356553Y631317D01*
X348763Y631317D02*
X352658Y619633D01*
X385113Y607074D02*
X387061Y607074D01*
X385113Y607074D02*
X385113Y600583D01*
X389008Y600583D01*
X389107Y600585D01*
X389207Y600591D01*
X389306Y600600D01*
X389404Y600613D01*
X389502Y600630D01*
X389600Y600651D01*
X389696Y600676D01*
X389791Y600704D01*
X389885Y600736D01*
X389978Y600771D01*
X390070Y600810D01*
X390160Y600853D01*
X390248Y600898D01*
X390335Y600948D01*
X390419Y601000D01*
X390502Y601056D01*
X390582Y601114D01*
X390660Y601176D01*
X390735Y601241D01*
X390808Y601309D01*
X390878Y601379D01*
X390946Y601452D01*
X391011Y601527D01*
X391073Y601605D01*
X391131Y601685D01*
X391187Y601768D01*
X391239Y601852D01*
X391289Y601939D01*
X391334Y602027D01*
X391377Y602117D01*
X391416Y602209D01*
X391451Y602302D01*
X391483Y602396D01*
X391511Y602491D01*
X391536Y602587D01*
X391557Y602685D01*
X391574Y602783D01*
X391587Y602881D01*
X391596Y602980D01*
X391602Y603080D01*
X391604Y603179D01*
X391605Y603179D02*
X391605Y609671D01*
X391604Y609671D02*
X391602Y609770D01*
X391596Y609870D01*
X391587Y609969D01*
X391574Y610067D01*
X391557Y610165D01*
X391536Y610263D01*
X391511Y610359D01*
X391483Y610454D01*
X391451Y610548D01*
X391416Y610641D01*
X391377Y610733D01*
X391334Y610823D01*
X391289Y610911D01*
X391239Y610998D01*
X391187Y611082D01*
X391131Y611165D01*
X391073Y611245D01*
X391011Y611323D01*
X390946Y611398D01*
X390878Y611471D01*
X390808Y611541D01*
X390735Y611609D01*
X390660Y611674D01*
X390582Y611736D01*
X390502Y611794D01*
X390419Y611850D01*
X390335Y611902D01*
X390248Y611952D01*
X390160Y611997D01*
X390070Y612040D01*
X389978Y612079D01*
X389885Y612114D01*
X389791Y612146D01*
X389696Y612174D01*
X389600Y612199D01*
X389502Y612220D01*
X389404Y612237D01*
X389306Y612250D01*
X389207Y612259D01*
X389107Y612265D01*
X389008Y612267D01*
X385113Y612267D01*
X379413Y612267D02*
X379413Y600583D01*
X372921Y600583D02*
X379413Y612267D01*
X372921Y612267D02*
X372921Y600583D01*
X367221Y600583D02*
X367221Y612267D01*
X363975Y612267D01*
X363862Y612265D01*
X363749Y612259D01*
X363636Y612249D01*
X363523Y612235D01*
X363411Y612218D01*
X363300Y612196D01*
X363190Y612171D01*
X363080Y612141D01*
X362972Y612108D01*
X362865Y612071D01*
X362759Y612031D01*
X362655Y611986D01*
X362552Y611938D01*
X362451Y611887D01*
X362352Y611832D01*
X362255Y611774D01*
X362160Y611712D01*
X362067Y611647D01*
X361977Y611579D01*
X361889Y611508D01*
X361803Y611433D01*
X361720Y611356D01*
X361640Y611276D01*
X361563Y611193D01*
X361488Y611107D01*
X361417Y611019D01*
X361349Y610929D01*
X361284Y610836D01*
X361222Y610741D01*
X361164Y610644D01*
X361109Y610545D01*
X361058Y610444D01*
X361010Y610341D01*
X360965Y610237D01*
X360925Y610131D01*
X360888Y610024D01*
X360855Y609916D01*
X360825Y609806D01*
X360800Y609696D01*
X360778Y609585D01*
X360761Y609473D01*
X360747Y609360D01*
X360737Y609247D01*
X360731Y609134D01*
X360729Y609021D01*
X360729Y603829D01*
X360731Y603716D01*
X360737Y603603D01*
X360747Y603490D01*
X360761Y603377D01*
X360778Y603265D01*
X360800Y603154D01*
X360825Y603044D01*
X360855Y602934D01*
X360888Y602826D01*
X360925Y602719D01*
X360965Y602613D01*
X361010Y602509D01*
X361058Y602406D01*
X361109Y602305D01*
X361164Y602206D01*
X361222Y602109D01*
X361284Y602014D01*
X361349Y601921D01*
X361417Y601831D01*
X361488Y601743D01*
X361563Y601657D01*
X361640Y601574D01*
X361720Y601494D01*
X361803Y601417D01*
X361889Y601342D01*
X361977Y601271D01*
X362067Y601203D01*
X362160Y601138D01*
X362255Y601076D01*
X362352Y601018D01*
X362451Y600963D01*
X362552Y600912D01*
X362655Y600864D01*
X362759Y600819D01*
X362865Y600779D01*
X362972Y600742D01*
X363080Y600709D01*
X363190Y600679D01*
X363300Y600654D01*
X363411Y600632D01*
X363523Y600615D01*
X363636Y600601D01*
X363749Y600591D01*
X363862Y600585D01*
X363975Y600583D01*
X367221Y600583D01*
X1033189Y533165D02*
X1035785Y533165D01*
X1035785Y533166D02*
X1035884Y533168D01*
X1035984Y533174D01*
X1036083Y533183D01*
X1036181Y533196D01*
X1036279Y533213D01*
X1036377Y533234D01*
X1036473Y533259D01*
X1036568Y533287D01*
X1036662Y533319D01*
X1036755Y533354D01*
X1036847Y533393D01*
X1036937Y533436D01*
X1037025Y533481D01*
X1037112Y533531D01*
X1037196Y533583D01*
X1037279Y533639D01*
X1037359Y533697D01*
X1037437Y533759D01*
X1037512Y533824D01*
X1037585Y533892D01*
X1037655Y533962D01*
X1037723Y534035D01*
X1037788Y534110D01*
X1037850Y534188D01*
X1037908Y534268D01*
X1037964Y534351D01*
X1038016Y534435D01*
X1038066Y534522D01*
X1038111Y534610D01*
X1038154Y534700D01*
X1038193Y534792D01*
X1038228Y534885D01*
X1038260Y534979D01*
X1038288Y535074D01*
X1038313Y535170D01*
X1038334Y535268D01*
X1038351Y535366D01*
X1038364Y535464D01*
X1038373Y535563D01*
X1038379Y535663D01*
X1038381Y535762D01*
X1038382Y535762D02*
X1038382Y542253D01*
X1038381Y542253D02*
X1038379Y542352D01*
X1038373Y542452D01*
X1038364Y542551D01*
X1038351Y542649D01*
X1038334Y542747D01*
X1038313Y542845D01*
X1038288Y542941D01*
X1038260Y543036D01*
X1038228Y543130D01*
X1038193Y543223D01*
X1038154Y543315D01*
X1038111Y543405D01*
X1038066Y543493D01*
X1038016Y543580D01*
X1037964Y543664D01*
X1037908Y543747D01*
X1037850Y543827D01*
X1037788Y543905D01*
X1037723Y543980D01*
X1037655Y544053D01*
X1037585Y544123D01*
X1037512Y544191D01*
X1037437Y544256D01*
X1037359Y544318D01*
X1037279Y544376D01*
X1037196Y544432D01*
X1037112Y544484D01*
X1037025Y544534D01*
X1036937Y544579D01*
X1036847Y544622D01*
X1036755Y544661D01*
X1036662Y544696D01*
X1036568Y544728D01*
X1036473Y544756D01*
X1036377Y544781D01*
X1036279Y544802D01*
X1036181Y544819D01*
X1036083Y544832D01*
X1035984Y544841D01*
X1035884Y544847D01*
X1035785Y544849D01*
X1033189Y544849D01*
X1025253Y544849D02*
X1025146Y544847D01*
X1025040Y544841D01*
X1024934Y544831D01*
X1024828Y544818D01*
X1024722Y544800D01*
X1024618Y544779D01*
X1024514Y544754D01*
X1024411Y544725D01*
X1024310Y544693D01*
X1024210Y544656D01*
X1024111Y544616D01*
X1024013Y544573D01*
X1023917Y544526D01*
X1023823Y544475D01*
X1023731Y544421D01*
X1023641Y544364D01*
X1023553Y544304D01*
X1023468Y544240D01*
X1023385Y544173D01*
X1023304Y544103D01*
X1023226Y544031D01*
X1023150Y543955D01*
X1023078Y543877D01*
X1023008Y543796D01*
X1022941Y543713D01*
X1022877Y543628D01*
X1022817Y543540D01*
X1022760Y543450D01*
X1022706Y543358D01*
X1022655Y543264D01*
X1022608Y543168D01*
X1022565Y543070D01*
X1022525Y542971D01*
X1022488Y542871D01*
X1022456Y542770D01*
X1022427Y542667D01*
X1022402Y542563D01*
X1022381Y542459D01*
X1022363Y542353D01*
X1022350Y542247D01*
X1022340Y542141D01*
X1022334Y542035D01*
X1022332Y541928D01*
X1025253Y544850D02*
X1025374Y544848D01*
X1025495Y544842D01*
X1025615Y544832D01*
X1025736Y544819D01*
X1025855Y544801D01*
X1025975Y544780D01*
X1026093Y544755D01*
X1026210Y544726D01*
X1026327Y544693D01*
X1026442Y544657D01*
X1026556Y544616D01*
X1026669Y544573D01*
X1026781Y544525D01*
X1026890Y544474D01*
X1026998Y544419D01*
X1027105Y544361D01*
X1027209Y544300D01*
X1027311Y544235D01*
X1027411Y544167D01*
X1027509Y544096D01*
X1027605Y544022D01*
X1027698Y543945D01*
X1027788Y543864D01*
X1027876Y543781D01*
X1027961Y543695D01*
X1028044Y543606D01*
X1028123Y543515D01*
X1028200Y543421D01*
X1028273Y543325D01*
X1028343Y543227D01*
X1028410Y543126D01*
X1028474Y543023D01*
X1028535Y542918D01*
X1028592Y542811D01*
X1028645Y542703D01*
X1028695Y542593D01*
X1028741Y542481D01*
X1028784Y542368D01*
X1028823Y542253D01*
X1023307Y539656D02*
X1023228Y539734D01*
X1023152Y539814D01*
X1023079Y539897D01*
X1023009Y539983D01*
X1022942Y540070D01*
X1022878Y540161D01*
X1022818Y540253D01*
X1022760Y540347D01*
X1022706Y540444D01*
X1022656Y540542D01*
X1022609Y540642D01*
X1022565Y540743D01*
X1022525Y540846D01*
X1022489Y540951D01*
X1022457Y541056D01*
X1022428Y541163D01*
X1022403Y541270D01*
X1022381Y541379D01*
X1022364Y541488D01*
X1022350Y541597D01*
X1022341Y541707D01*
X1022335Y541818D01*
X1022333Y541928D01*
X1023306Y539657D02*
X1028823Y533165D01*
X1022332Y533165D01*
X748973Y600583D02*
X746377Y600583D01*
X748973Y600583D02*
X749072Y600585D01*
X749172Y600591D01*
X749271Y600600D01*
X749369Y600613D01*
X749467Y600630D01*
X749565Y600651D01*
X749661Y600676D01*
X749756Y600704D01*
X749850Y600736D01*
X749943Y600771D01*
X750035Y600810D01*
X750125Y600853D01*
X750213Y600898D01*
X750300Y600948D01*
X750384Y601000D01*
X750467Y601056D01*
X750547Y601114D01*
X750625Y601176D01*
X750700Y601241D01*
X750773Y601309D01*
X750843Y601379D01*
X750911Y601452D01*
X750976Y601527D01*
X751038Y601605D01*
X751096Y601685D01*
X751152Y601768D01*
X751204Y601852D01*
X751254Y601939D01*
X751299Y602027D01*
X751342Y602117D01*
X751381Y602209D01*
X751416Y602302D01*
X751448Y602396D01*
X751476Y602491D01*
X751501Y602587D01*
X751522Y602685D01*
X751539Y602783D01*
X751552Y602881D01*
X751561Y602980D01*
X751567Y603080D01*
X751569Y603179D01*
X751570Y603179D02*
X751570Y609671D01*
X751569Y609671D02*
X751567Y609770D01*
X751561Y609870D01*
X751552Y609969D01*
X751539Y610067D01*
X751522Y610165D01*
X751501Y610263D01*
X751476Y610359D01*
X751448Y610454D01*
X751416Y610548D01*
X751381Y610641D01*
X751342Y610733D01*
X751299Y610823D01*
X751254Y610911D01*
X751204Y610998D01*
X751152Y611082D01*
X751096Y611165D01*
X751038Y611245D01*
X750976Y611323D01*
X750911Y611398D01*
X750843Y611471D01*
X750773Y611541D01*
X750700Y611609D01*
X750625Y611674D01*
X750547Y611736D01*
X750467Y611794D01*
X750384Y611850D01*
X750300Y611902D01*
X750213Y611952D01*
X750125Y611997D01*
X750035Y612040D01*
X749943Y612079D01*
X749850Y612114D01*
X749756Y612146D01*
X749661Y612174D01*
X749565Y612199D01*
X749467Y612220D01*
X749369Y612237D01*
X749271Y612250D01*
X749172Y612259D01*
X749072Y612265D01*
X748973Y612267D01*
X746377Y612267D01*
X742012Y600583D02*
X738766Y600583D01*
X738653Y600585D01*
X738540Y600591D01*
X738427Y600601D01*
X738314Y600615D01*
X738202Y600632D01*
X738091Y600654D01*
X737981Y600679D01*
X737871Y600709D01*
X737763Y600742D01*
X737656Y600779D01*
X737550Y600819D01*
X737446Y600864D01*
X737343Y600912D01*
X737242Y600963D01*
X737143Y601018D01*
X737046Y601076D01*
X736951Y601138D01*
X736858Y601203D01*
X736768Y601271D01*
X736680Y601342D01*
X736594Y601417D01*
X736511Y601494D01*
X736431Y601574D01*
X736354Y601657D01*
X736279Y601743D01*
X736208Y601831D01*
X736140Y601921D01*
X736075Y602014D01*
X736013Y602109D01*
X735955Y602206D01*
X735900Y602305D01*
X735849Y602406D01*
X735801Y602509D01*
X735756Y602613D01*
X735716Y602719D01*
X735679Y602826D01*
X735646Y602934D01*
X735616Y603044D01*
X735591Y603154D01*
X735569Y603265D01*
X735552Y603377D01*
X735538Y603490D01*
X735528Y603603D01*
X735522Y603716D01*
X735520Y603829D01*
X735522Y603942D01*
X735528Y604055D01*
X735538Y604168D01*
X735552Y604281D01*
X735569Y604393D01*
X735591Y604504D01*
X735616Y604614D01*
X735646Y604724D01*
X735679Y604832D01*
X735716Y604939D01*
X735756Y605045D01*
X735801Y605149D01*
X735849Y605252D01*
X735900Y605353D01*
X735955Y605452D01*
X736013Y605549D01*
X736075Y605644D01*
X736140Y605737D01*
X736208Y605827D01*
X736279Y605915D01*
X736354Y606001D01*
X736431Y606084D01*
X736511Y606164D01*
X736594Y606241D01*
X736680Y606316D01*
X736768Y606387D01*
X736858Y606455D01*
X736951Y606520D01*
X737046Y606582D01*
X737143Y606640D01*
X737242Y606695D01*
X737343Y606746D01*
X737446Y606794D01*
X737550Y606839D01*
X737656Y606879D01*
X737763Y606916D01*
X737871Y606949D01*
X737981Y606979D01*
X738091Y607004D01*
X738202Y607026D01*
X738314Y607043D01*
X738427Y607057D01*
X738540Y607067D01*
X738653Y607073D01*
X738766Y607075D01*
X738117Y612267D02*
X742012Y612267D01*
X738117Y612267D02*
X738016Y612265D01*
X737916Y612259D01*
X737816Y612249D01*
X737716Y612236D01*
X737617Y612218D01*
X737518Y612197D01*
X737421Y612172D01*
X737324Y612143D01*
X737229Y612110D01*
X737135Y612074D01*
X737043Y612034D01*
X736952Y611991D01*
X736863Y611944D01*
X736776Y611894D01*
X736690Y611840D01*
X736607Y611783D01*
X736527Y611723D01*
X736448Y611660D01*
X736372Y611593D01*
X736299Y611524D01*
X736229Y611452D01*
X736161Y611378D01*
X736096Y611301D01*
X736035Y611221D01*
X735976Y611139D01*
X735921Y611055D01*
X735869Y610969D01*
X735820Y610881D01*
X735775Y610791D01*
X735733Y610699D01*
X735695Y610606D01*
X735661Y610511D01*
X735630Y610416D01*
X735603Y610319D01*
X735580Y610221D01*
X735560Y610122D01*
X735545Y610022D01*
X735533Y609922D01*
X735525Y609822D01*
X735521Y609721D01*
X735521Y609621D01*
X735525Y609520D01*
X735533Y609420D01*
X735545Y609320D01*
X735560Y609220D01*
X735580Y609121D01*
X735603Y609023D01*
X735630Y608926D01*
X735661Y608831D01*
X735695Y608736D01*
X735733Y608643D01*
X735775Y608551D01*
X735820Y608461D01*
X735869Y608373D01*
X735921Y608287D01*
X735976Y608203D01*
X736035Y608121D01*
X736096Y608041D01*
X736161Y607964D01*
X736229Y607890D01*
X736299Y607818D01*
X736372Y607749D01*
X736448Y607682D01*
X736527Y607619D01*
X736607Y607559D01*
X736690Y607502D01*
X736776Y607448D01*
X736863Y607398D01*
X736952Y607351D01*
X737043Y607308D01*
X737135Y607268D01*
X737229Y607232D01*
X737324Y607199D01*
X737421Y607170D01*
X737518Y607145D01*
X737617Y607124D01*
X737716Y607106D01*
X737816Y607093D01*
X737916Y607083D01*
X738016Y607077D01*
X738117Y607075D01*
X738117Y607074D02*
X740713Y607074D01*
X991676Y541981D02*
X991676Y539384D01*
X991677Y539384D02*
X991679Y539285D01*
X991685Y539185D01*
X991694Y539086D01*
X991707Y538988D01*
X991724Y538890D01*
X991745Y538792D01*
X991770Y538696D01*
X991798Y538601D01*
X991830Y538507D01*
X991865Y538414D01*
X991904Y538322D01*
X991947Y538232D01*
X991992Y538144D01*
X992042Y538057D01*
X992094Y537973D01*
X992150Y537890D01*
X992208Y537810D01*
X992270Y537732D01*
X992335Y537657D01*
X992403Y537584D01*
X992473Y537514D01*
X992546Y537446D01*
X992621Y537381D01*
X992699Y537319D01*
X992779Y537261D01*
X992862Y537205D01*
X992946Y537153D01*
X993033Y537103D01*
X993121Y537058D01*
X993211Y537015D01*
X993303Y536976D01*
X993396Y536941D01*
X993490Y536909D01*
X993585Y536881D01*
X993681Y536856D01*
X993779Y536835D01*
X993877Y536818D01*
X993975Y536805D01*
X994074Y536796D01*
X994174Y536790D01*
X994273Y536788D01*
X1000764Y536788D01*
X1000863Y536790D01*
X1000963Y536796D01*
X1001062Y536805D01*
X1001160Y536818D01*
X1001258Y536835D01*
X1001356Y536856D01*
X1001452Y536881D01*
X1001547Y536909D01*
X1001641Y536941D01*
X1001734Y536976D01*
X1001826Y537015D01*
X1001916Y537058D01*
X1002004Y537103D01*
X1002091Y537153D01*
X1002175Y537205D01*
X1002258Y537261D01*
X1002338Y537319D01*
X1002416Y537381D01*
X1002491Y537446D01*
X1002564Y537514D01*
X1002634Y537584D01*
X1002702Y537657D01*
X1002767Y537732D01*
X1002829Y537810D01*
X1002887Y537890D01*
X1002943Y537973D01*
X1002995Y538057D01*
X1003045Y538144D01*
X1003090Y538232D01*
X1003133Y538322D01*
X1003172Y538414D01*
X1003207Y538506D01*
X1003239Y538601D01*
X1003267Y538696D01*
X1003292Y538792D01*
X1003313Y538890D01*
X1003330Y538988D01*
X1003343Y539086D01*
X1003352Y539185D01*
X1003358Y539285D01*
X1003360Y539384D01*
X1003360Y541981D01*
X1000764Y546346D02*
X1003360Y549592D01*
X991676Y549592D01*
X991676Y552837D02*
X991676Y546346D01*
D11*
X434785Y619506D02*
X427419Y619506D01*
X434785Y619506D02*
X434785Y621552D01*
X434784Y621552D02*
X434782Y621641D01*
X434776Y621730D01*
X434766Y621819D01*
X434753Y621907D01*
X434736Y621995D01*
X434714Y622082D01*
X434689Y622167D01*
X434661Y622252D01*
X434628Y622335D01*
X434592Y622417D01*
X434553Y622497D01*
X434510Y622575D01*
X434464Y622651D01*
X434414Y622726D01*
X434361Y622798D01*
X434305Y622867D01*
X434246Y622934D01*
X434185Y622999D01*
X434120Y623060D01*
X434053Y623119D01*
X433984Y623175D01*
X433912Y623228D01*
X433837Y623278D01*
X433761Y623324D01*
X433683Y623367D01*
X433603Y623406D01*
X433521Y623442D01*
X433438Y623475D01*
X433353Y623503D01*
X433268Y623528D01*
X433181Y623550D01*
X433093Y623567D01*
X433005Y623580D01*
X432916Y623590D01*
X432827Y623596D01*
X432738Y623598D01*
X432649Y623596D01*
X432560Y623590D01*
X432471Y623580D01*
X432383Y623567D01*
X432295Y623550D01*
X432208Y623528D01*
X432123Y623503D01*
X432038Y623475D01*
X431955Y623442D01*
X431873Y623406D01*
X431793Y623367D01*
X431715Y623324D01*
X431639Y623278D01*
X431564Y623228D01*
X431492Y623175D01*
X431423Y623119D01*
X431356Y623060D01*
X431291Y622999D01*
X431230Y622934D01*
X431171Y622867D01*
X431115Y622798D01*
X431062Y622726D01*
X431012Y622651D01*
X430966Y622575D01*
X430923Y622497D01*
X430884Y622417D01*
X430848Y622335D01*
X430815Y622252D01*
X430787Y622167D01*
X430762Y622082D01*
X430740Y621995D01*
X430723Y621907D01*
X430710Y621819D01*
X430700Y621730D01*
X430694Y621641D01*
X430692Y621552D01*
X430692Y619506D01*
X430692Y621961D02*
X427419Y623598D01*
X433148Y626770D02*
X434785Y628816D01*
X427419Y628816D01*
X427419Y626770D02*
X427419Y630862D01*
X430692Y635722D02*
X430692Y638177D01*
X430692Y635722D02*
X430694Y635644D01*
X430699Y635566D01*
X430709Y635489D01*
X430722Y635412D01*
X430738Y635336D01*
X430758Y635261D01*
X430782Y635187D01*
X430809Y635114D01*
X430840Y635042D01*
X430874Y634972D01*
X430911Y634903D01*
X430952Y634837D01*
X430996Y634772D01*
X431042Y634710D01*
X431092Y634650D01*
X431144Y634592D01*
X431199Y634537D01*
X431257Y634485D01*
X431317Y634435D01*
X431379Y634389D01*
X431444Y634345D01*
X431511Y634304D01*
X431579Y634267D01*
X431649Y634233D01*
X431721Y634202D01*
X431794Y634175D01*
X431868Y634151D01*
X431943Y634131D01*
X432019Y634115D01*
X432096Y634102D01*
X432173Y634092D01*
X432251Y634087D01*
X432329Y634085D01*
X432738Y634085D01*
X432827Y634087D01*
X432916Y634093D01*
X433005Y634103D01*
X433093Y634116D01*
X433181Y634133D01*
X433268Y634155D01*
X433353Y634180D01*
X433438Y634208D01*
X433521Y634241D01*
X433603Y634277D01*
X433683Y634316D01*
X433761Y634359D01*
X433837Y634405D01*
X433912Y634455D01*
X433984Y634508D01*
X434053Y634564D01*
X434120Y634623D01*
X434185Y634684D01*
X434246Y634749D01*
X434305Y634816D01*
X434361Y634885D01*
X434414Y634957D01*
X434464Y635032D01*
X434510Y635108D01*
X434553Y635186D01*
X434592Y635266D01*
X434628Y635348D01*
X434661Y635431D01*
X434689Y635516D01*
X434714Y635601D01*
X434736Y635688D01*
X434753Y635776D01*
X434766Y635864D01*
X434776Y635953D01*
X434782Y636042D01*
X434784Y636131D01*
X434782Y636220D01*
X434776Y636309D01*
X434766Y636398D01*
X434753Y636486D01*
X434736Y636574D01*
X434714Y636661D01*
X434689Y636746D01*
X434661Y636831D01*
X434628Y636914D01*
X434592Y636996D01*
X434553Y637076D01*
X434510Y637154D01*
X434464Y637230D01*
X434414Y637305D01*
X434361Y637377D01*
X434305Y637446D01*
X434246Y637513D01*
X434185Y637578D01*
X434120Y637639D01*
X434053Y637698D01*
X433984Y637754D01*
X433912Y637807D01*
X433837Y637857D01*
X433761Y637903D01*
X433683Y637946D01*
X433603Y637985D01*
X433521Y638021D01*
X433438Y638054D01*
X433353Y638082D01*
X433268Y638107D01*
X433181Y638129D01*
X433093Y638146D01*
X433005Y638159D01*
X432916Y638169D01*
X432827Y638175D01*
X432738Y638177D01*
X430692Y638177D01*
X430692Y638178D02*
X430580Y638176D01*
X430469Y638170D01*
X430357Y638161D01*
X430246Y638148D01*
X430136Y638130D01*
X430026Y638110D01*
X429917Y638085D01*
X429809Y638057D01*
X429702Y638025D01*
X429596Y637989D01*
X429491Y637950D01*
X429388Y637907D01*
X429286Y637861D01*
X429186Y637811D01*
X429087Y637758D01*
X428991Y637701D01*
X428896Y637642D01*
X428804Y637579D01*
X428714Y637513D01*
X428626Y637444D01*
X428540Y637372D01*
X428457Y637297D01*
X428377Y637219D01*
X428299Y637139D01*
X428224Y637056D01*
X428152Y636970D01*
X428083Y636882D01*
X428017Y636792D01*
X427954Y636700D01*
X427895Y636605D01*
X427838Y636509D01*
X427785Y636410D01*
X427735Y636310D01*
X427689Y636208D01*
X427646Y636105D01*
X427607Y636000D01*
X427571Y635894D01*
X427539Y635787D01*
X427511Y635679D01*
X427486Y635570D01*
X427466Y635460D01*
X427448Y635350D01*
X427435Y635239D01*
X427426Y635127D01*
X427420Y635016D01*
X427418Y634904D01*
D12*
X534480Y636009D02*
X534480Y630816D01*
X534480Y636009D02*
X534478Y636122D01*
X534472Y636235D01*
X534462Y636348D01*
X534448Y636461D01*
X534431Y636573D01*
X534409Y636684D01*
X534384Y636794D01*
X534354Y636904D01*
X534321Y637012D01*
X534284Y637119D01*
X534244Y637225D01*
X534199Y637329D01*
X534151Y637432D01*
X534100Y637533D01*
X534045Y637632D01*
X533987Y637729D01*
X533925Y637824D01*
X533860Y637917D01*
X533792Y638007D01*
X533721Y638095D01*
X533646Y638181D01*
X533569Y638264D01*
X533489Y638344D01*
X533406Y638421D01*
X533320Y638496D01*
X533232Y638567D01*
X533142Y638635D01*
X533049Y638700D01*
X532954Y638762D01*
X532857Y638820D01*
X532758Y638875D01*
X532657Y638926D01*
X532554Y638974D01*
X532450Y639019D01*
X532344Y639059D01*
X532237Y639096D01*
X532129Y639129D01*
X532019Y639159D01*
X531909Y639184D01*
X531798Y639206D01*
X531686Y639223D01*
X531573Y639237D01*
X531460Y639247D01*
X531347Y639253D01*
X531234Y639255D01*
X531121Y639253D01*
X531008Y639247D01*
X530895Y639237D01*
X530782Y639223D01*
X530670Y639206D01*
X530559Y639184D01*
X530449Y639159D01*
X530339Y639129D01*
X530231Y639096D01*
X530124Y639059D01*
X530018Y639019D01*
X529914Y638974D01*
X529811Y638926D01*
X529710Y638875D01*
X529611Y638820D01*
X529514Y638762D01*
X529419Y638700D01*
X529326Y638635D01*
X529236Y638567D01*
X529148Y638496D01*
X529062Y638421D01*
X528979Y638344D01*
X528899Y638264D01*
X528822Y638181D01*
X528747Y638095D01*
X528676Y638007D01*
X528608Y637917D01*
X528543Y637824D01*
X528481Y637729D01*
X528423Y637632D01*
X528368Y637533D01*
X528317Y637432D01*
X528269Y637329D01*
X528224Y637225D01*
X528184Y637119D01*
X528147Y637012D01*
X528114Y636904D01*
X528084Y636794D01*
X528059Y636684D01*
X528037Y636573D01*
X528020Y636461D01*
X528006Y636348D01*
X527996Y636235D01*
X527990Y636122D01*
X527988Y636009D01*
X527988Y630816D01*
X527990Y630703D01*
X527996Y630590D01*
X528006Y630477D01*
X528020Y630364D01*
X528037Y630252D01*
X528059Y630141D01*
X528084Y630031D01*
X528114Y629921D01*
X528147Y629813D01*
X528184Y629706D01*
X528224Y629600D01*
X528269Y629496D01*
X528317Y629393D01*
X528368Y629292D01*
X528423Y629193D01*
X528481Y629096D01*
X528543Y629001D01*
X528608Y628908D01*
X528676Y628818D01*
X528747Y628730D01*
X528822Y628644D01*
X528899Y628561D01*
X528979Y628481D01*
X529062Y628404D01*
X529148Y628329D01*
X529236Y628258D01*
X529326Y628190D01*
X529419Y628125D01*
X529514Y628063D01*
X529611Y628005D01*
X529710Y627950D01*
X529811Y627899D01*
X529914Y627851D01*
X530018Y627806D01*
X530124Y627766D01*
X530231Y627729D01*
X530339Y627696D01*
X530449Y627666D01*
X530559Y627641D01*
X530670Y627619D01*
X530782Y627602D01*
X530895Y627588D01*
X531008Y627578D01*
X531121Y627572D01*
X531234Y627570D01*
X531347Y627572D01*
X531460Y627578D01*
X531573Y627588D01*
X531686Y627602D01*
X531798Y627619D01*
X531909Y627641D01*
X532019Y627666D01*
X532129Y627696D01*
X532237Y627729D01*
X532344Y627766D01*
X532450Y627806D01*
X532554Y627851D01*
X532657Y627899D01*
X532758Y627950D01*
X532857Y628005D01*
X532954Y628063D01*
X533049Y628125D01*
X533142Y628190D01*
X533232Y628258D01*
X533320Y628329D01*
X533406Y628404D01*
X533489Y628481D01*
X533569Y628561D01*
X533646Y628644D01*
X533721Y628730D01*
X533792Y628818D01*
X533860Y628908D01*
X533925Y629001D01*
X533987Y629096D01*
X534045Y629193D01*
X534100Y629292D01*
X534151Y629393D01*
X534199Y629496D01*
X534244Y629600D01*
X534284Y629706D01*
X534321Y629813D01*
X534354Y629921D01*
X534384Y630031D01*
X534409Y630141D01*
X534431Y630252D01*
X534448Y630364D01*
X534462Y630477D01*
X534472Y630590D01*
X534478Y630703D01*
X534480Y630816D01*
X529287Y630167D02*
X526690Y627571D01*
X523336Y627571D02*
X520090Y627571D01*
X520090Y627570D02*
X519977Y627572D01*
X519864Y627578D01*
X519751Y627588D01*
X519638Y627602D01*
X519526Y627619D01*
X519415Y627641D01*
X519305Y627666D01*
X519195Y627696D01*
X519087Y627729D01*
X518980Y627766D01*
X518874Y627806D01*
X518770Y627851D01*
X518667Y627899D01*
X518566Y627950D01*
X518467Y628005D01*
X518370Y628063D01*
X518275Y628125D01*
X518182Y628190D01*
X518092Y628258D01*
X518004Y628329D01*
X517918Y628404D01*
X517835Y628481D01*
X517755Y628561D01*
X517678Y628644D01*
X517603Y628730D01*
X517532Y628818D01*
X517464Y628908D01*
X517399Y629001D01*
X517337Y629096D01*
X517279Y629193D01*
X517224Y629292D01*
X517173Y629393D01*
X517125Y629496D01*
X517080Y629600D01*
X517040Y629706D01*
X517003Y629813D01*
X516970Y629921D01*
X516940Y630031D01*
X516915Y630141D01*
X516893Y630252D01*
X516876Y630364D01*
X516862Y630477D01*
X516852Y630590D01*
X516846Y630703D01*
X516844Y630816D01*
X516846Y630929D01*
X516852Y631042D01*
X516862Y631155D01*
X516876Y631268D01*
X516893Y631380D01*
X516915Y631491D01*
X516940Y631601D01*
X516970Y631711D01*
X517003Y631819D01*
X517040Y631926D01*
X517080Y632032D01*
X517125Y632136D01*
X517173Y632239D01*
X517224Y632340D01*
X517279Y632439D01*
X517337Y632536D01*
X517399Y632631D01*
X517464Y632724D01*
X517532Y632814D01*
X517603Y632902D01*
X517678Y632988D01*
X517755Y633071D01*
X517835Y633151D01*
X517918Y633228D01*
X518004Y633303D01*
X518092Y633374D01*
X518182Y633442D01*
X518275Y633507D01*
X518370Y633569D01*
X518467Y633627D01*
X518566Y633682D01*
X518667Y633733D01*
X518770Y633781D01*
X518874Y633826D01*
X518980Y633866D01*
X519087Y633903D01*
X519195Y633936D01*
X519305Y633966D01*
X519415Y633991D01*
X519526Y634013D01*
X519638Y634030D01*
X519751Y634044D01*
X519864Y634054D01*
X519977Y634060D01*
X520090Y634062D01*
X519441Y639255D02*
X523336Y639255D01*
X519441Y639254D02*
X519340Y639252D01*
X519240Y639246D01*
X519140Y639236D01*
X519040Y639223D01*
X518941Y639205D01*
X518842Y639184D01*
X518745Y639159D01*
X518648Y639130D01*
X518553Y639097D01*
X518459Y639061D01*
X518367Y639021D01*
X518276Y638978D01*
X518187Y638931D01*
X518100Y638881D01*
X518014Y638827D01*
X517931Y638770D01*
X517851Y638710D01*
X517772Y638647D01*
X517696Y638580D01*
X517623Y638511D01*
X517553Y638439D01*
X517485Y638365D01*
X517420Y638288D01*
X517359Y638208D01*
X517300Y638126D01*
X517245Y638042D01*
X517193Y637956D01*
X517144Y637868D01*
X517099Y637778D01*
X517057Y637686D01*
X517019Y637593D01*
X516985Y637498D01*
X516954Y637403D01*
X516927Y637306D01*
X516904Y637208D01*
X516884Y637109D01*
X516869Y637009D01*
X516857Y636909D01*
X516849Y636809D01*
X516845Y636708D01*
X516845Y636608D01*
X516849Y636507D01*
X516857Y636407D01*
X516869Y636307D01*
X516884Y636207D01*
X516904Y636108D01*
X516927Y636010D01*
X516954Y635913D01*
X516985Y635818D01*
X517019Y635723D01*
X517057Y635630D01*
X517099Y635538D01*
X517144Y635448D01*
X517193Y635360D01*
X517245Y635274D01*
X517300Y635190D01*
X517359Y635108D01*
X517420Y635028D01*
X517485Y634951D01*
X517553Y634877D01*
X517623Y634805D01*
X517696Y634736D01*
X517772Y634669D01*
X517851Y634606D01*
X517931Y634546D01*
X518014Y634489D01*
X518100Y634435D01*
X518187Y634385D01*
X518276Y634338D01*
X518367Y634295D01*
X518459Y634255D01*
X518553Y634219D01*
X518648Y634186D01*
X518745Y634157D01*
X518842Y634132D01*
X518941Y634111D01*
X519040Y634093D01*
X519140Y634080D01*
X519240Y634070D01*
X519340Y634064D01*
X519441Y634062D01*
X522037Y634062D01*
X453517Y535496D02*
X441833Y535496D01*
X453517Y535496D02*
X453517Y538741D01*
X453515Y538854D01*
X453509Y538967D01*
X453499Y539080D01*
X453485Y539193D01*
X453468Y539305D01*
X453446Y539416D01*
X453421Y539526D01*
X453391Y539636D01*
X453358Y539744D01*
X453321Y539851D01*
X453281Y539957D01*
X453236Y540061D01*
X453188Y540164D01*
X453137Y540265D01*
X453082Y540364D01*
X453024Y540461D01*
X452962Y540556D01*
X452897Y540649D01*
X452829Y540739D01*
X452758Y540827D01*
X452683Y540913D01*
X452606Y540996D01*
X452526Y541076D01*
X452443Y541153D01*
X452357Y541228D01*
X452269Y541299D01*
X452179Y541367D01*
X452086Y541432D01*
X451991Y541494D01*
X451894Y541552D01*
X451795Y541607D01*
X451694Y541658D01*
X451591Y541706D01*
X451487Y541751D01*
X451381Y541791D01*
X451274Y541828D01*
X451166Y541861D01*
X451056Y541891D01*
X450946Y541916D01*
X450835Y541938D01*
X450723Y541955D01*
X450610Y541969D01*
X450497Y541979D01*
X450384Y541985D01*
X450271Y541987D01*
X450158Y541985D01*
X450045Y541979D01*
X449932Y541969D01*
X449819Y541955D01*
X449707Y541938D01*
X449596Y541916D01*
X449486Y541891D01*
X449376Y541861D01*
X449268Y541828D01*
X449161Y541791D01*
X449055Y541751D01*
X448951Y541706D01*
X448848Y541658D01*
X448747Y541607D01*
X448648Y541552D01*
X448551Y541494D01*
X448456Y541432D01*
X448363Y541367D01*
X448273Y541299D01*
X448185Y541228D01*
X448099Y541153D01*
X448016Y541076D01*
X447936Y540996D01*
X447859Y540913D01*
X447784Y540827D01*
X447713Y540739D01*
X447645Y540649D01*
X447580Y540556D01*
X447518Y540461D01*
X447460Y540364D01*
X447405Y540265D01*
X447354Y540164D01*
X447306Y540061D01*
X447261Y539957D01*
X447221Y539851D01*
X447184Y539744D01*
X447151Y539636D01*
X447121Y539526D01*
X447096Y539416D01*
X447074Y539305D01*
X447057Y539193D01*
X447043Y539080D01*
X447033Y538967D01*
X447027Y538854D01*
X447025Y538741D01*
X447026Y538741D02*
X447026Y535496D01*
X447026Y539390D02*
X441833Y541987D01*
X450596Y553343D02*
X450703Y553341D01*
X450809Y553335D01*
X450915Y553325D01*
X451021Y553312D01*
X451127Y553294D01*
X451231Y553273D01*
X451335Y553248D01*
X451438Y553219D01*
X451539Y553187D01*
X451639Y553150D01*
X451738Y553110D01*
X451836Y553067D01*
X451932Y553020D01*
X452026Y552969D01*
X452118Y552915D01*
X452208Y552858D01*
X452296Y552798D01*
X452381Y552734D01*
X452464Y552667D01*
X452545Y552597D01*
X452623Y552525D01*
X452699Y552449D01*
X452771Y552371D01*
X452841Y552290D01*
X452908Y552207D01*
X452972Y552122D01*
X453032Y552034D01*
X453089Y551944D01*
X453143Y551852D01*
X453194Y551758D01*
X453241Y551662D01*
X453284Y551564D01*
X453324Y551465D01*
X453361Y551365D01*
X453393Y551264D01*
X453422Y551161D01*
X453447Y551057D01*
X453468Y550953D01*
X453486Y550847D01*
X453499Y550741D01*
X453509Y550635D01*
X453515Y550529D01*
X453517Y550422D01*
X453515Y550301D01*
X453509Y550180D01*
X453499Y550060D01*
X453486Y549939D01*
X453468Y549820D01*
X453447Y549700D01*
X453422Y549582D01*
X453393Y549465D01*
X453360Y549348D01*
X453324Y549233D01*
X453283Y549119D01*
X453240Y549006D01*
X453192Y548894D01*
X453141Y548785D01*
X453086Y548677D01*
X453028Y548570D01*
X452967Y548466D01*
X452902Y548364D01*
X452834Y548264D01*
X452763Y548166D01*
X452689Y548070D01*
X452612Y547977D01*
X452531Y547887D01*
X452448Y547799D01*
X452362Y547714D01*
X452273Y547631D01*
X452182Y547552D01*
X452088Y547475D01*
X451992Y547402D01*
X451894Y547332D01*
X451793Y547265D01*
X451690Y547201D01*
X451585Y547141D01*
X451478Y547084D01*
X451370Y547030D01*
X451260Y546980D01*
X451148Y546934D01*
X451035Y546891D01*
X450920Y546852D01*
X448324Y552369D02*
X448401Y552448D01*
X448482Y552524D01*
X448565Y552597D01*
X448650Y552667D01*
X448738Y552734D01*
X448828Y552798D01*
X448920Y552858D01*
X449015Y552915D01*
X449111Y552969D01*
X449209Y553020D01*
X449309Y553067D01*
X449411Y553111D01*
X449514Y553151D01*
X449618Y553187D01*
X449724Y553219D01*
X449830Y553248D01*
X449938Y553273D01*
X450046Y553295D01*
X450156Y553312D01*
X450265Y553326D01*
X450375Y553335D01*
X450486Y553341D01*
X450596Y553343D01*
X448324Y552369D02*
X441833Y546852D01*
X441833Y553343D01*
X444429Y558282D02*
X453517Y560878D01*
X444429Y558282D02*
X444429Y564773D01*
X447026Y562826D02*
X441833Y562826D01*
X991108Y171958D02*
X1002792Y171958D01*
X1002792Y175204D01*
X1002790Y175317D01*
X1002784Y175430D01*
X1002774Y175543D01*
X1002760Y175656D01*
X1002743Y175768D01*
X1002721Y175879D01*
X1002696Y175989D01*
X1002666Y176099D01*
X1002633Y176207D01*
X1002596Y176314D01*
X1002556Y176420D01*
X1002511Y176524D01*
X1002463Y176627D01*
X1002412Y176728D01*
X1002357Y176827D01*
X1002299Y176924D01*
X1002237Y177019D01*
X1002172Y177112D01*
X1002104Y177202D01*
X1002033Y177290D01*
X1001958Y177376D01*
X1001881Y177459D01*
X1001801Y177539D01*
X1001718Y177616D01*
X1001632Y177691D01*
X1001544Y177762D01*
X1001454Y177830D01*
X1001361Y177895D01*
X1001266Y177957D01*
X1001169Y178015D01*
X1001070Y178070D01*
X1000969Y178121D01*
X1000866Y178169D01*
X1000762Y178214D01*
X1000656Y178254D01*
X1000549Y178291D01*
X1000441Y178324D01*
X1000331Y178354D01*
X1000221Y178379D01*
X1000110Y178401D01*
X999998Y178418D01*
X999885Y178432D01*
X999772Y178442D01*
X999659Y178448D01*
X999546Y178450D01*
X999433Y178448D01*
X999320Y178442D01*
X999207Y178432D01*
X999094Y178418D01*
X998982Y178401D01*
X998871Y178379D01*
X998761Y178354D01*
X998651Y178324D01*
X998543Y178291D01*
X998436Y178254D01*
X998330Y178214D01*
X998226Y178169D01*
X998123Y178121D01*
X998022Y178070D01*
X997923Y178015D01*
X997826Y177957D01*
X997731Y177895D01*
X997638Y177830D01*
X997548Y177762D01*
X997460Y177691D01*
X997374Y177616D01*
X997291Y177539D01*
X997211Y177459D01*
X997134Y177376D01*
X997059Y177290D01*
X996988Y177202D01*
X996920Y177112D01*
X996855Y177019D01*
X996793Y176924D01*
X996735Y176827D01*
X996680Y176728D01*
X996629Y176627D01*
X996581Y176524D01*
X996536Y176420D01*
X996496Y176314D01*
X996459Y176207D01*
X996426Y176099D01*
X996396Y175989D01*
X996371Y175879D01*
X996349Y175768D01*
X996332Y175656D01*
X996318Y175543D01*
X996308Y175430D01*
X996302Y175317D01*
X996300Y175204D01*
X996301Y175204D02*
X996301Y171958D01*
X996301Y175853D02*
X991108Y178449D01*
X1000196Y183314D02*
X1002792Y186560D01*
X991108Y186560D01*
X991108Y189805D02*
X991108Y183314D01*
X462471Y538092D02*
X462471Y540688D01*
X462471Y538092D02*
X462473Y537993D01*
X462479Y537893D01*
X462488Y537794D01*
X462501Y537696D01*
X462518Y537598D01*
X462539Y537500D01*
X462564Y537404D01*
X462592Y537309D01*
X462624Y537215D01*
X462659Y537122D01*
X462698Y537030D01*
X462741Y536940D01*
X462786Y536852D01*
X462836Y536765D01*
X462888Y536681D01*
X462944Y536598D01*
X463002Y536518D01*
X463064Y536440D01*
X463129Y536365D01*
X463197Y536292D01*
X463267Y536222D01*
X463340Y536154D01*
X463415Y536089D01*
X463493Y536027D01*
X463573Y535969D01*
X463656Y535913D01*
X463740Y535861D01*
X463827Y535811D01*
X463915Y535766D01*
X464005Y535723D01*
X464097Y535684D01*
X464190Y535649D01*
X464284Y535617D01*
X464379Y535589D01*
X464475Y535564D01*
X464573Y535543D01*
X464671Y535526D01*
X464769Y535513D01*
X464868Y535504D01*
X464968Y535498D01*
X465067Y535496D01*
X471558Y535496D01*
X471657Y535498D01*
X471757Y535504D01*
X471856Y535513D01*
X471954Y535526D01*
X472052Y535543D01*
X472150Y535564D01*
X472246Y535589D01*
X472341Y535617D01*
X472435Y535649D01*
X472528Y535684D01*
X472620Y535723D01*
X472710Y535766D01*
X472798Y535811D01*
X472885Y535861D01*
X472969Y535913D01*
X473052Y535969D01*
X473132Y536027D01*
X473210Y536089D01*
X473285Y536154D01*
X473358Y536222D01*
X473428Y536292D01*
X473496Y536365D01*
X473561Y536440D01*
X473623Y536518D01*
X473681Y536598D01*
X473737Y536681D01*
X473789Y536765D01*
X473839Y536852D01*
X473884Y536940D01*
X473927Y537030D01*
X473966Y537122D01*
X474001Y537214D01*
X474033Y537309D01*
X474061Y537404D01*
X474086Y537500D01*
X474107Y537598D01*
X474124Y537696D01*
X474137Y537794D01*
X474146Y537893D01*
X474152Y537993D01*
X474154Y538092D01*
X474155Y538092D02*
X474155Y540688D01*
X474155Y548624D02*
X474153Y548731D01*
X474147Y548837D01*
X474137Y548943D01*
X474124Y549049D01*
X474106Y549155D01*
X474085Y549259D01*
X474060Y549363D01*
X474031Y549466D01*
X473999Y549567D01*
X473962Y549667D01*
X473922Y549766D01*
X473879Y549864D01*
X473832Y549960D01*
X473781Y550054D01*
X473727Y550146D01*
X473670Y550236D01*
X473610Y550324D01*
X473546Y550409D01*
X473479Y550492D01*
X473409Y550573D01*
X473337Y550651D01*
X473261Y550727D01*
X473183Y550799D01*
X473102Y550869D01*
X473019Y550936D01*
X472934Y551000D01*
X472846Y551060D01*
X472756Y551117D01*
X472664Y551171D01*
X472570Y551222D01*
X472474Y551269D01*
X472376Y551312D01*
X472277Y551352D01*
X472177Y551389D01*
X472076Y551421D01*
X471973Y551450D01*
X471869Y551475D01*
X471765Y551496D01*
X471659Y551514D01*
X471553Y551527D01*
X471447Y551537D01*
X471341Y551543D01*
X471234Y551545D01*
X474155Y548624D02*
X474153Y548503D01*
X474147Y548382D01*
X474137Y548262D01*
X474124Y548141D01*
X474106Y548022D01*
X474085Y547902D01*
X474060Y547784D01*
X474031Y547667D01*
X473998Y547550D01*
X473962Y547435D01*
X473921Y547321D01*
X473878Y547208D01*
X473830Y547096D01*
X473779Y546987D01*
X473724Y546879D01*
X473666Y546772D01*
X473605Y546668D01*
X473540Y546566D01*
X473472Y546466D01*
X473401Y546368D01*
X473327Y546272D01*
X473250Y546179D01*
X473169Y546089D01*
X473086Y546001D01*
X473000Y545916D01*
X472911Y545833D01*
X472820Y545754D01*
X472726Y545677D01*
X472630Y545604D01*
X472532Y545534D01*
X472431Y545467D01*
X472328Y545403D01*
X472223Y545343D01*
X472116Y545286D01*
X472008Y545232D01*
X471898Y545182D01*
X471786Y545136D01*
X471673Y545093D01*
X471558Y545054D01*
X468962Y550571D02*
X469039Y550650D01*
X469120Y550726D01*
X469203Y550799D01*
X469288Y550869D01*
X469376Y550936D01*
X469466Y551000D01*
X469558Y551060D01*
X469653Y551117D01*
X469749Y551171D01*
X469847Y551222D01*
X469947Y551269D01*
X470049Y551313D01*
X470152Y551353D01*
X470256Y551389D01*
X470362Y551421D01*
X470468Y551450D01*
X470576Y551475D01*
X470684Y551497D01*
X470794Y551514D01*
X470903Y551528D01*
X471013Y551537D01*
X471124Y551543D01*
X471234Y551545D01*
X468962Y550571D02*
X462471Y545054D01*
X462471Y551545D01*
X468313Y556484D02*
X468543Y556487D01*
X468773Y556495D01*
X469002Y556509D01*
X469231Y556528D01*
X469460Y556553D01*
X469687Y556583D01*
X469915Y556618D01*
X470141Y556659D01*
X470366Y556705D01*
X470590Y556757D01*
X470812Y556814D01*
X471034Y556876D01*
X471253Y556944D01*
X471471Y557017D01*
X471688Y557095D01*
X471902Y557178D01*
X472114Y557266D01*
X472324Y557359D01*
X472532Y557458D01*
X472532Y557457D02*
X472622Y557490D01*
X472711Y557526D01*
X472799Y557566D01*
X472884Y557610D01*
X472968Y557657D01*
X473050Y557707D01*
X473130Y557761D01*
X473207Y557817D01*
X473283Y557877D01*
X473356Y557940D01*
X473426Y558005D01*
X473494Y558074D01*
X473558Y558145D01*
X473620Y558218D01*
X473679Y558294D01*
X473735Y558372D01*
X473788Y558453D01*
X473837Y558535D01*
X473883Y558619D01*
X473926Y558706D01*
X473965Y558793D01*
X474001Y558883D01*
X474033Y558973D01*
X474061Y559065D01*
X474086Y559158D01*
X474107Y559252D01*
X474124Y559346D01*
X474138Y559441D01*
X474147Y559537D01*
X474153Y559633D01*
X474155Y559729D01*
X474153Y559825D01*
X474147Y559921D01*
X474138Y560017D01*
X474124Y560112D01*
X474107Y560206D01*
X474086Y560300D01*
X474061Y560393D01*
X474033Y560485D01*
X474001Y560575D01*
X473965Y560665D01*
X473926Y560752D01*
X473883Y560839D01*
X473837Y560923D01*
X473788Y561005D01*
X473735Y561086D01*
X473679Y561164D01*
X473620Y561240D01*
X473558Y561313D01*
X473494Y561384D01*
X473426Y561453D01*
X473356Y561518D01*
X473283Y561581D01*
X473207Y561641D01*
X473130Y561697D01*
X473050Y561751D01*
X472968Y561801D01*
X472884Y561848D01*
X472799Y561892D01*
X472711Y561932D01*
X472622Y561968D01*
X472532Y562001D01*
X472325Y562100D01*
X472115Y562193D01*
X471902Y562281D01*
X471688Y562364D01*
X471472Y562442D01*
X471254Y562515D01*
X471034Y562583D01*
X470813Y562645D01*
X470590Y562702D01*
X470366Y562754D01*
X470141Y562800D01*
X469915Y562841D01*
X469688Y562876D01*
X469460Y562906D01*
X469231Y562931D01*
X469002Y562950D01*
X468773Y562964D01*
X468543Y562972D01*
X468313Y562975D01*
X468313Y556483D02*
X468083Y556486D01*
X467853Y556494D01*
X467624Y556508D01*
X467395Y556527D01*
X467166Y556552D01*
X466938Y556582D01*
X466711Y556617D01*
X466485Y556658D01*
X466260Y556704D01*
X466036Y556756D01*
X465813Y556813D01*
X465592Y556875D01*
X465372Y556943D01*
X465154Y557016D01*
X464938Y557094D01*
X464724Y557177D01*
X464512Y557265D01*
X464301Y557358D01*
X464094Y557457D01*
X464093Y557457D02*
X464003Y557490D01*
X463914Y557526D01*
X463826Y557567D01*
X463741Y557610D01*
X463657Y557657D01*
X463575Y557707D01*
X463495Y557761D01*
X463418Y557817D01*
X463342Y557877D01*
X463269Y557940D01*
X463199Y558005D01*
X463131Y558074D01*
X463067Y558145D01*
X463005Y558218D01*
X462946Y558294D01*
X462890Y558372D01*
X462837Y558453D01*
X462788Y558535D01*
X462742Y558619D01*
X462699Y558706D01*
X462660Y558793D01*
X462624Y558883D01*
X462592Y558973D01*
X462564Y559065D01*
X462539Y559158D01*
X462518Y559252D01*
X462501Y559346D01*
X462487Y559441D01*
X462478Y559537D01*
X462472Y559633D01*
X462470Y559729D01*
X464094Y562001D02*
X464301Y562100D01*
X464512Y562193D01*
X464724Y562281D01*
X464938Y562364D01*
X465154Y562442D01*
X465372Y562515D01*
X465592Y562583D01*
X465813Y562645D01*
X466036Y562702D01*
X466260Y562754D01*
X466485Y562800D01*
X466711Y562841D01*
X466938Y562876D01*
X467166Y562906D01*
X467395Y562931D01*
X467624Y562950D01*
X467853Y562964D01*
X468083Y562972D01*
X468313Y562975D01*
X464093Y562001D02*
X464003Y561968D01*
X463914Y561932D01*
X463826Y561892D01*
X463741Y561848D01*
X463657Y561801D01*
X463575Y561751D01*
X463495Y561697D01*
X463418Y561641D01*
X463342Y561581D01*
X463269Y561518D01*
X463199Y561453D01*
X463131Y561384D01*
X463067Y561313D01*
X463005Y561240D01*
X462946Y561164D01*
X462890Y561086D01*
X462837Y561005D01*
X462788Y560923D01*
X462742Y560839D01*
X462699Y560752D01*
X462660Y560665D01*
X462624Y560575D01*
X462592Y560485D01*
X462564Y560393D01*
X462539Y560300D01*
X462518Y560206D01*
X462501Y560112D01*
X462487Y560017D01*
X462478Y559921D01*
X462472Y559825D01*
X462470Y559729D01*
X465067Y557133D02*
X471558Y562326D01*
X267208Y565159D02*
X267208Y567756D01*
X267208Y565159D02*
X267210Y565060D01*
X267216Y564960D01*
X267225Y564861D01*
X267238Y564763D01*
X267255Y564665D01*
X267276Y564567D01*
X267301Y564471D01*
X267329Y564376D01*
X267361Y564282D01*
X267396Y564189D01*
X267435Y564097D01*
X267478Y564007D01*
X267523Y563919D01*
X267573Y563832D01*
X267625Y563748D01*
X267681Y563665D01*
X267739Y563585D01*
X267801Y563507D01*
X267866Y563432D01*
X267934Y563359D01*
X268004Y563289D01*
X268077Y563221D01*
X268152Y563156D01*
X268230Y563094D01*
X268310Y563036D01*
X268393Y562980D01*
X268477Y562928D01*
X268564Y562878D01*
X268652Y562833D01*
X268742Y562790D01*
X268834Y562751D01*
X268927Y562716D01*
X269021Y562684D01*
X269116Y562656D01*
X269212Y562631D01*
X269310Y562610D01*
X269408Y562593D01*
X269506Y562580D01*
X269605Y562571D01*
X269705Y562565D01*
X269804Y562563D01*
X276296Y562563D01*
X276395Y562565D01*
X276495Y562571D01*
X276594Y562580D01*
X276692Y562593D01*
X276790Y562610D01*
X276888Y562631D01*
X276984Y562656D01*
X277079Y562684D01*
X277173Y562716D01*
X277266Y562751D01*
X277358Y562790D01*
X277448Y562833D01*
X277536Y562878D01*
X277623Y562928D01*
X277707Y562980D01*
X277790Y563036D01*
X277870Y563094D01*
X277948Y563156D01*
X278023Y563221D01*
X278096Y563289D01*
X278166Y563359D01*
X278234Y563432D01*
X278299Y563507D01*
X278361Y563585D01*
X278419Y563665D01*
X278475Y563748D01*
X278527Y563832D01*
X278577Y563919D01*
X278622Y564007D01*
X278665Y564097D01*
X278704Y564189D01*
X278739Y564281D01*
X278771Y564376D01*
X278799Y564471D01*
X278824Y564567D01*
X278845Y564665D01*
X278862Y564763D01*
X278875Y564861D01*
X278884Y564960D01*
X278890Y565060D01*
X278892Y565159D01*
X278892Y567756D01*
X276296Y572121D02*
X278892Y575366D01*
X267208Y575366D01*
X267208Y572121D02*
X267208Y578612D01*
X275971Y590042D02*
X276078Y590040D01*
X276184Y590034D01*
X276290Y590024D01*
X276396Y590011D01*
X276502Y589993D01*
X276606Y589972D01*
X276710Y589947D01*
X276813Y589918D01*
X276914Y589886D01*
X277014Y589849D01*
X277113Y589809D01*
X277211Y589766D01*
X277307Y589719D01*
X277401Y589668D01*
X277493Y589614D01*
X277583Y589557D01*
X277671Y589497D01*
X277756Y589433D01*
X277839Y589366D01*
X277920Y589296D01*
X277998Y589224D01*
X278074Y589148D01*
X278146Y589070D01*
X278216Y588989D01*
X278283Y588906D01*
X278347Y588821D01*
X278407Y588733D01*
X278464Y588643D01*
X278518Y588551D01*
X278569Y588457D01*
X278616Y588361D01*
X278659Y588263D01*
X278699Y588164D01*
X278736Y588064D01*
X278768Y587963D01*
X278797Y587860D01*
X278822Y587756D01*
X278843Y587652D01*
X278861Y587546D01*
X278874Y587440D01*
X278884Y587334D01*
X278890Y587228D01*
X278892Y587121D01*
X278890Y587000D01*
X278884Y586879D01*
X278874Y586759D01*
X278861Y586638D01*
X278843Y586519D01*
X278822Y586399D01*
X278797Y586281D01*
X278768Y586164D01*
X278735Y586047D01*
X278699Y585932D01*
X278658Y585818D01*
X278615Y585705D01*
X278567Y585593D01*
X278516Y585484D01*
X278461Y585376D01*
X278403Y585269D01*
X278342Y585165D01*
X278277Y585063D01*
X278209Y584963D01*
X278138Y584865D01*
X278064Y584769D01*
X277987Y584676D01*
X277906Y584586D01*
X277823Y584498D01*
X277737Y584413D01*
X277648Y584330D01*
X277557Y584251D01*
X277463Y584174D01*
X277367Y584101D01*
X277269Y584031D01*
X277168Y583964D01*
X277065Y583900D01*
X276960Y583840D01*
X276853Y583783D01*
X276745Y583729D01*
X276635Y583679D01*
X276523Y583633D01*
X276410Y583590D01*
X276295Y583551D01*
X273699Y589069D02*
X273776Y589148D01*
X273857Y589224D01*
X273940Y589297D01*
X274025Y589367D01*
X274113Y589434D01*
X274203Y589498D01*
X274295Y589558D01*
X274390Y589615D01*
X274486Y589669D01*
X274584Y589720D01*
X274684Y589767D01*
X274786Y589811D01*
X274889Y589851D01*
X274993Y589887D01*
X275099Y589919D01*
X275205Y589948D01*
X275313Y589973D01*
X275421Y589995D01*
X275531Y590012D01*
X275640Y590026D01*
X275750Y590035D01*
X275861Y590041D01*
X275971Y590043D01*
X273699Y589068D02*
X267208Y583551D01*
X267208Y590042D01*
X298958Y567756D02*
X298958Y565159D01*
X298960Y565060D01*
X298966Y564960D01*
X298975Y564861D01*
X298988Y564763D01*
X299005Y564665D01*
X299026Y564567D01*
X299051Y564471D01*
X299079Y564376D01*
X299111Y564282D01*
X299146Y564189D01*
X299185Y564097D01*
X299228Y564007D01*
X299273Y563919D01*
X299323Y563832D01*
X299375Y563748D01*
X299431Y563665D01*
X299489Y563585D01*
X299551Y563507D01*
X299616Y563432D01*
X299684Y563359D01*
X299754Y563289D01*
X299827Y563221D01*
X299902Y563156D01*
X299980Y563094D01*
X300060Y563036D01*
X300143Y562980D01*
X300227Y562928D01*
X300314Y562878D01*
X300402Y562833D01*
X300492Y562790D01*
X300584Y562751D01*
X300677Y562716D01*
X300771Y562684D01*
X300866Y562656D01*
X300962Y562631D01*
X301060Y562610D01*
X301158Y562593D01*
X301256Y562580D01*
X301355Y562571D01*
X301455Y562565D01*
X301554Y562563D01*
X308046Y562563D01*
X308145Y562565D01*
X308245Y562571D01*
X308344Y562580D01*
X308442Y562593D01*
X308540Y562610D01*
X308638Y562631D01*
X308734Y562656D01*
X308829Y562684D01*
X308923Y562716D01*
X309016Y562751D01*
X309108Y562790D01*
X309198Y562833D01*
X309286Y562878D01*
X309373Y562928D01*
X309457Y562980D01*
X309540Y563036D01*
X309620Y563094D01*
X309698Y563156D01*
X309773Y563221D01*
X309846Y563289D01*
X309916Y563359D01*
X309984Y563432D01*
X310049Y563507D01*
X310111Y563585D01*
X310169Y563665D01*
X310225Y563748D01*
X310277Y563832D01*
X310327Y563919D01*
X310372Y564007D01*
X310415Y564097D01*
X310454Y564189D01*
X310489Y564281D01*
X310521Y564376D01*
X310549Y564471D01*
X310574Y564567D01*
X310595Y564665D01*
X310612Y564763D01*
X310625Y564861D01*
X310634Y564960D01*
X310640Y565060D01*
X310642Y565159D01*
X310642Y567756D01*
X308046Y572121D02*
X310642Y575366D01*
X298958Y575366D01*
X298958Y572121D02*
X298958Y578612D01*
X298958Y583551D02*
X298958Y586796D01*
X298960Y586909D01*
X298966Y587022D01*
X298976Y587135D01*
X298990Y587248D01*
X299007Y587360D01*
X299029Y587471D01*
X299054Y587581D01*
X299084Y587691D01*
X299117Y587799D01*
X299154Y587906D01*
X299194Y588012D01*
X299239Y588116D01*
X299287Y588219D01*
X299338Y588320D01*
X299393Y588419D01*
X299451Y588516D01*
X299513Y588611D01*
X299578Y588704D01*
X299646Y588794D01*
X299717Y588882D01*
X299792Y588968D01*
X299869Y589051D01*
X299949Y589131D01*
X300032Y589208D01*
X300118Y589283D01*
X300206Y589354D01*
X300296Y589422D01*
X300389Y589487D01*
X300484Y589549D01*
X300581Y589607D01*
X300680Y589662D01*
X300781Y589713D01*
X300884Y589761D01*
X300988Y589806D01*
X301094Y589846D01*
X301201Y589883D01*
X301309Y589916D01*
X301419Y589946D01*
X301529Y589971D01*
X301640Y589993D01*
X301752Y590010D01*
X301865Y590024D01*
X301978Y590034D01*
X302091Y590040D01*
X302204Y590042D01*
X302317Y590040D01*
X302430Y590034D01*
X302543Y590024D01*
X302656Y590010D01*
X302768Y589993D01*
X302879Y589971D01*
X302989Y589946D01*
X303099Y589916D01*
X303207Y589883D01*
X303314Y589846D01*
X303420Y589806D01*
X303524Y589761D01*
X303627Y589713D01*
X303728Y589662D01*
X303827Y589607D01*
X303924Y589549D01*
X304019Y589487D01*
X304112Y589422D01*
X304202Y589354D01*
X304290Y589283D01*
X304376Y589208D01*
X304459Y589131D01*
X304539Y589051D01*
X304616Y588968D01*
X304691Y588882D01*
X304762Y588794D01*
X304830Y588704D01*
X304895Y588611D01*
X304957Y588516D01*
X305015Y588419D01*
X305070Y588320D01*
X305121Y588219D01*
X305169Y588116D01*
X305214Y588012D01*
X305254Y587906D01*
X305291Y587799D01*
X305324Y587691D01*
X305354Y587581D01*
X305379Y587471D01*
X305401Y587360D01*
X305418Y587248D01*
X305432Y587135D01*
X305442Y587022D01*
X305448Y586909D01*
X305450Y586796D01*
X310642Y587446D02*
X310642Y583551D01*
X310642Y587446D02*
X310640Y587547D01*
X310634Y587647D01*
X310624Y587747D01*
X310611Y587847D01*
X310593Y587946D01*
X310572Y588045D01*
X310547Y588142D01*
X310518Y588239D01*
X310485Y588334D01*
X310449Y588428D01*
X310409Y588520D01*
X310366Y588611D01*
X310319Y588700D01*
X310269Y588787D01*
X310215Y588873D01*
X310158Y588956D01*
X310098Y589036D01*
X310035Y589115D01*
X309968Y589191D01*
X309899Y589264D01*
X309827Y589334D01*
X309753Y589402D01*
X309676Y589467D01*
X309596Y589528D01*
X309514Y589587D01*
X309430Y589642D01*
X309344Y589694D01*
X309256Y589743D01*
X309166Y589788D01*
X309074Y589830D01*
X308981Y589868D01*
X308886Y589902D01*
X308791Y589933D01*
X308694Y589960D01*
X308596Y589983D01*
X308497Y590003D01*
X308397Y590018D01*
X308297Y590030D01*
X308197Y590038D01*
X308096Y590042D01*
X307996Y590042D01*
X307895Y590038D01*
X307795Y590030D01*
X307695Y590018D01*
X307595Y590003D01*
X307496Y589983D01*
X307398Y589960D01*
X307301Y589933D01*
X307206Y589902D01*
X307111Y589868D01*
X307018Y589830D01*
X306926Y589788D01*
X306836Y589743D01*
X306748Y589694D01*
X306662Y589642D01*
X306578Y589587D01*
X306496Y589528D01*
X306416Y589467D01*
X306339Y589402D01*
X306265Y589334D01*
X306193Y589264D01*
X306124Y589191D01*
X306057Y589115D01*
X305994Y589036D01*
X305934Y588956D01*
X305877Y588873D01*
X305823Y588787D01*
X305773Y588700D01*
X305726Y588611D01*
X305683Y588520D01*
X305643Y588428D01*
X305607Y588334D01*
X305574Y588239D01*
X305545Y588142D01*
X305520Y588045D01*
X305499Y587946D01*
X305481Y587847D01*
X305468Y587747D01*
X305458Y587647D01*
X305452Y587547D01*
X305450Y587446D01*
X305449Y587446D02*
X305449Y584849D01*
D11*
X373409Y582803D02*
X375046Y582803D01*
X375124Y582805D01*
X375202Y582810D01*
X375279Y582820D01*
X375356Y582833D01*
X375432Y582849D01*
X375507Y582869D01*
X375581Y582893D01*
X375654Y582920D01*
X375726Y582951D01*
X375796Y582985D01*
X375865Y583022D01*
X375931Y583063D01*
X375996Y583107D01*
X376058Y583153D01*
X376118Y583203D01*
X376176Y583255D01*
X376231Y583310D01*
X376283Y583368D01*
X376333Y583428D01*
X376379Y583490D01*
X376423Y583555D01*
X376464Y583622D01*
X376501Y583690D01*
X376535Y583760D01*
X376566Y583832D01*
X376593Y583905D01*
X376617Y583979D01*
X376637Y584054D01*
X376653Y584130D01*
X376666Y584207D01*
X376676Y584284D01*
X376681Y584362D01*
X376683Y584440D01*
X376683Y588532D01*
X376681Y588610D01*
X376676Y588688D01*
X376666Y588765D01*
X376653Y588842D01*
X376637Y588918D01*
X376617Y588993D01*
X376593Y589067D01*
X376566Y589140D01*
X376535Y589212D01*
X376501Y589282D01*
X376464Y589351D01*
X376423Y589417D01*
X376379Y589482D01*
X376333Y589544D01*
X376283Y589604D01*
X376231Y589662D01*
X376176Y589717D01*
X376118Y589769D01*
X376058Y589819D01*
X375996Y589865D01*
X375931Y589909D01*
X375865Y589950D01*
X375796Y589987D01*
X375726Y590021D01*
X375654Y590052D01*
X375581Y590079D01*
X375507Y590103D01*
X375432Y590123D01*
X375356Y590139D01*
X375279Y590152D01*
X375202Y590162D01*
X375124Y590167D01*
X375046Y590169D01*
X373409Y590169D01*
X370563Y588532D02*
X368517Y590169D01*
X368517Y582803D01*
X370563Y582803D02*
X366471Y582803D01*
X363248Y582803D02*
X360793Y582803D01*
X360713Y582805D01*
X360633Y582811D01*
X360553Y582821D01*
X360474Y582834D01*
X360395Y582852D01*
X360318Y582873D01*
X360242Y582899D01*
X360167Y582928D01*
X360093Y582960D01*
X360021Y582996D01*
X359951Y583036D01*
X359884Y583079D01*
X359818Y583125D01*
X359755Y583175D01*
X359694Y583227D01*
X359635Y583282D01*
X359580Y583341D01*
X359528Y583401D01*
X359478Y583465D01*
X359432Y583530D01*
X359389Y583598D01*
X359349Y583668D01*
X359313Y583740D01*
X359281Y583814D01*
X359252Y583888D01*
X359227Y583965D01*
X359205Y584042D01*
X359187Y584121D01*
X359174Y584200D01*
X359164Y584279D01*
X359158Y584360D01*
X359156Y584440D01*
X359156Y585258D01*
X359158Y585336D01*
X359163Y585414D01*
X359173Y585491D01*
X359186Y585568D01*
X359202Y585644D01*
X359222Y585719D01*
X359246Y585793D01*
X359273Y585866D01*
X359304Y585938D01*
X359338Y586008D01*
X359375Y586077D01*
X359416Y586143D01*
X359460Y586208D01*
X359506Y586270D01*
X359556Y586330D01*
X359608Y586388D01*
X359663Y586443D01*
X359721Y586495D01*
X359781Y586545D01*
X359843Y586591D01*
X359908Y586635D01*
X359975Y586676D01*
X360043Y586713D01*
X360113Y586747D01*
X360185Y586778D01*
X360258Y586805D01*
X360332Y586829D01*
X360407Y586849D01*
X360483Y586865D01*
X360560Y586878D01*
X360637Y586888D01*
X360715Y586893D01*
X360793Y586895D01*
X363248Y586895D01*
X363248Y590169D01*
X359156Y590169D01*
D12*
X422844Y522796D02*
X425441Y522796D01*
X425540Y522798D01*
X425640Y522804D01*
X425739Y522813D01*
X425837Y522826D01*
X425935Y522843D01*
X426033Y522864D01*
X426129Y522889D01*
X426224Y522917D01*
X426318Y522949D01*
X426411Y522984D01*
X426503Y523023D01*
X426593Y523066D01*
X426681Y523111D01*
X426768Y523161D01*
X426852Y523213D01*
X426935Y523269D01*
X427015Y523327D01*
X427093Y523389D01*
X427168Y523454D01*
X427241Y523522D01*
X427311Y523592D01*
X427379Y523665D01*
X427444Y523740D01*
X427506Y523818D01*
X427564Y523898D01*
X427620Y523981D01*
X427672Y524065D01*
X427722Y524152D01*
X427767Y524240D01*
X427810Y524330D01*
X427849Y524422D01*
X427884Y524515D01*
X427916Y524609D01*
X427944Y524704D01*
X427969Y524800D01*
X427990Y524898D01*
X428007Y524996D01*
X428020Y525094D01*
X428029Y525193D01*
X428035Y525293D01*
X428037Y525392D01*
X428037Y531883D01*
X428035Y531982D01*
X428029Y532082D01*
X428020Y532181D01*
X428007Y532279D01*
X427990Y532377D01*
X427969Y532475D01*
X427944Y532571D01*
X427916Y532666D01*
X427884Y532760D01*
X427849Y532853D01*
X427810Y532945D01*
X427767Y533035D01*
X427722Y533123D01*
X427672Y533210D01*
X427620Y533294D01*
X427564Y533377D01*
X427506Y533457D01*
X427444Y533535D01*
X427379Y533610D01*
X427311Y533683D01*
X427241Y533753D01*
X427168Y533821D01*
X427093Y533886D01*
X427015Y533948D01*
X426935Y534006D01*
X426852Y534062D01*
X426768Y534114D01*
X426681Y534164D01*
X426593Y534209D01*
X426503Y534252D01*
X426411Y534291D01*
X426318Y534326D01*
X426224Y534358D01*
X426129Y534386D01*
X426033Y534411D01*
X425935Y534432D01*
X425837Y534449D01*
X425739Y534462D01*
X425640Y534471D01*
X425540Y534477D01*
X425441Y534479D01*
X425441Y534480D02*
X422844Y534480D01*
X418479Y531883D02*
X415234Y534480D01*
X415234Y522796D01*
X418479Y522796D02*
X411988Y522796D01*
X407049Y525392D02*
X404453Y534480D01*
X407049Y525392D02*
X400558Y525392D01*
X402505Y527988D02*
X402505Y522796D01*
X702183Y554546D02*
X713867Y554546D01*
X713867Y557791D01*
X713865Y557904D01*
X713859Y558017D01*
X713849Y558130D01*
X713835Y558243D01*
X713818Y558355D01*
X713796Y558466D01*
X713771Y558576D01*
X713741Y558686D01*
X713708Y558794D01*
X713671Y558901D01*
X713631Y559007D01*
X713586Y559111D01*
X713538Y559214D01*
X713487Y559315D01*
X713432Y559414D01*
X713374Y559511D01*
X713312Y559606D01*
X713247Y559699D01*
X713179Y559789D01*
X713108Y559877D01*
X713033Y559963D01*
X712956Y560046D01*
X712876Y560126D01*
X712793Y560203D01*
X712707Y560278D01*
X712619Y560349D01*
X712529Y560417D01*
X712436Y560482D01*
X712341Y560544D01*
X712244Y560602D01*
X712145Y560657D01*
X712044Y560708D01*
X711941Y560756D01*
X711837Y560801D01*
X711731Y560841D01*
X711624Y560878D01*
X711516Y560911D01*
X711406Y560941D01*
X711296Y560966D01*
X711185Y560988D01*
X711073Y561005D01*
X710960Y561019D01*
X710847Y561029D01*
X710734Y561035D01*
X710621Y561037D01*
X710508Y561035D01*
X710395Y561029D01*
X710282Y561019D01*
X710169Y561005D01*
X710057Y560988D01*
X709946Y560966D01*
X709836Y560941D01*
X709726Y560911D01*
X709618Y560878D01*
X709511Y560841D01*
X709405Y560801D01*
X709301Y560756D01*
X709198Y560708D01*
X709097Y560657D01*
X708998Y560602D01*
X708901Y560544D01*
X708806Y560482D01*
X708713Y560417D01*
X708623Y560349D01*
X708535Y560278D01*
X708449Y560203D01*
X708366Y560126D01*
X708286Y560046D01*
X708209Y559963D01*
X708134Y559877D01*
X708063Y559789D01*
X707995Y559699D01*
X707930Y559606D01*
X707868Y559511D01*
X707810Y559414D01*
X707755Y559315D01*
X707704Y559214D01*
X707656Y559111D01*
X707611Y559007D01*
X707571Y558901D01*
X707534Y558794D01*
X707501Y558686D01*
X707471Y558576D01*
X707446Y558466D01*
X707424Y558355D01*
X707407Y558243D01*
X707393Y558130D01*
X707383Y558017D01*
X707377Y557904D01*
X707375Y557791D01*
X707376Y557791D02*
X707376Y554546D01*
X707376Y558440D02*
X702183Y561037D01*
X710946Y572393D02*
X711053Y572391D01*
X711159Y572385D01*
X711265Y572375D01*
X711371Y572362D01*
X711477Y572344D01*
X711581Y572323D01*
X711685Y572298D01*
X711788Y572269D01*
X711889Y572237D01*
X711989Y572200D01*
X712088Y572160D01*
X712186Y572117D01*
X712282Y572070D01*
X712376Y572019D01*
X712468Y571965D01*
X712558Y571908D01*
X712646Y571848D01*
X712731Y571784D01*
X712814Y571717D01*
X712895Y571647D01*
X712973Y571575D01*
X713049Y571499D01*
X713121Y571421D01*
X713191Y571340D01*
X713258Y571257D01*
X713322Y571172D01*
X713382Y571084D01*
X713439Y570994D01*
X713493Y570902D01*
X713544Y570808D01*
X713591Y570712D01*
X713634Y570614D01*
X713674Y570515D01*
X713711Y570415D01*
X713743Y570314D01*
X713772Y570211D01*
X713797Y570107D01*
X713818Y570003D01*
X713836Y569897D01*
X713849Y569791D01*
X713859Y569685D01*
X713865Y569579D01*
X713867Y569472D01*
X713865Y569351D01*
X713859Y569230D01*
X713849Y569110D01*
X713836Y568989D01*
X713818Y568870D01*
X713797Y568750D01*
X713772Y568632D01*
X713743Y568515D01*
X713710Y568398D01*
X713674Y568283D01*
X713633Y568169D01*
X713590Y568056D01*
X713542Y567944D01*
X713491Y567835D01*
X713436Y567727D01*
X713378Y567620D01*
X713317Y567516D01*
X713252Y567414D01*
X713184Y567314D01*
X713113Y567216D01*
X713039Y567120D01*
X712962Y567027D01*
X712881Y566937D01*
X712798Y566849D01*
X712712Y566764D01*
X712623Y566681D01*
X712532Y566602D01*
X712438Y566525D01*
X712342Y566452D01*
X712244Y566382D01*
X712143Y566315D01*
X712040Y566251D01*
X711935Y566191D01*
X711828Y566134D01*
X711720Y566080D01*
X711610Y566030D01*
X711498Y565984D01*
X711385Y565941D01*
X711270Y565902D01*
X708674Y571419D02*
X708751Y571498D01*
X708832Y571574D01*
X708915Y571647D01*
X709000Y571717D01*
X709088Y571784D01*
X709178Y571848D01*
X709270Y571908D01*
X709365Y571965D01*
X709461Y572019D01*
X709559Y572070D01*
X709659Y572117D01*
X709761Y572161D01*
X709864Y572201D01*
X709968Y572237D01*
X710074Y572269D01*
X710180Y572298D01*
X710288Y572323D01*
X710396Y572345D01*
X710506Y572362D01*
X710615Y572376D01*
X710725Y572385D01*
X710836Y572391D01*
X710946Y572393D01*
X708674Y571419D02*
X702183Y565902D01*
X702183Y572393D01*
X705429Y577331D02*
X705542Y577333D01*
X705655Y577339D01*
X705768Y577349D01*
X705881Y577363D01*
X705993Y577380D01*
X706104Y577402D01*
X706214Y577427D01*
X706324Y577457D01*
X706432Y577490D01*
X706539Y577527D01*
X706645Y577567D01*
X706749Y577612D01*
X706852Y577660D01*
X706953Y577711D01*
X707052Y577766D01*
X707149Y577824D01*
X707244Y577886D01*
X707337Y577951D01*
X707427Y578019D01*
X707515Y578090D01*
X707601Y578165D01*
X707684Y578242D01*
X707764Y578322D01*
X707841Y578405D01*
X707916Y578491D01*
X707987Y578579D01*
X708055Y578669D01*
X708120Y578762D01*
X708182Y578857D01*
X708240Y578954D01*
X708295Y579053D01*
X708346Y579154D01*
X708394Y579257D01*
X708439Y579361D01*
X708479Y579467D01*
X708516Y579574D01*
X708549Y579682D01*
X708579Y579792D01*
X708604Y579902D01*
X708626Y580013D01*
X708643Y580125D01*
X708657Y580238D01*
X708667Y580351D01*
X708673Y580464D01*
X708675Y580577D01*
X708673Y580690D01*
X708667Y580803D01*
X708657Y580916D01*
X708643Y581029D01*
X708626Y581141D01*
X708604Y581252D01*
X708579Y581362D01*
X708549Y581472D01*
X708516Y581580D01*
X708479Y581687D01*
X708439Y581793D01*
X708394Y581897D01*
X708346Y582000D01*
X708295Y582101D01*
X708240Y582200D01*
X708182Y582297D01*
X708120Y582392D01*
X708055Y582485D01*
X707987Y582575D01*
X707916Y582663D01*
X707841Y582749D01*
X707764Y582832D01*
X707684Y582912D01*
X707601Y582989D01*
X707515Y583064D01*
X707427Y583135D01*
X707337Y583203D01*
X707244Y583268D01*
X707149Y583330D01*
X707052Y583388D01*
X706953Y583443D01*
X706852Y583494D01*
X706749Y583542D01*
X706645Y583587D01*
X706539Y583627D01*
X706432Y583664D01*
X706324Y583697D01*
X706214Y583727D01*
X706104Y583752D01*
X705993Y583774D01*
X705881Y583791D01*
X705768Y583805D01*
X705655Y583815D01*
X705542Y583821D01*
X705429Y583823D01*
X705316Y583821D01*
X705203Y583815D01*
X705090Y583805D01*
X704977Y583791D01*
X704865Y583774D01*
X704754Y583752D01*
X704644Y583727D01*
X704534Y583697D01*
X704426Y583664D01*
X704319Y583627D01*
X704213Y583587D01*
X704109Y583542D01*
X704006Y583494D01*
X703905Y583443D01*
X703806Y583388D01*
X703709Y583330D01*
X703614Y583268D01*
X703521Y583203D01*
X703431Y583135D01*
X703343Y583064D01*
X703257Y582989D01*
X703174Y582912D01*
X703094Y582832D01*
X703017Y582749D01*
X702942Y582663D01*
X702871Y582575D01*
X702803Y582485D01*
X702738Y582392D01*
X702676Y582297D01*
X702618Y582200D01*
X702563Y582101D01*
X702512Y582000D01*
X702464Y581897D01*
X702419Y581793D01*
X702379Y581687D01*
X702342Y581580D01*
X702309Y581472D01*
X702279Y581362D01*
X702254Y581252D01*
X702232Y581141D01*
X702215Y581029D01*
X702201Y580916D01*
X702191Y580803D01*
X702185Y580690D01*
X702183Y580577D01*
X702185Y580464D01*
X702191Y580351D01*
X702201Y580238D01*
X702215Y580125D01*
X702232Y580013D01*
X702254Y579902D01*
X702279Y579792D01*
X702309Y579682D01*
X702342Y579574D01*
X702379Y579467D01*
X702419Y579361D01*
X702464Y579257D01*
X702512Y579154D01*
X702563Y579053D01*
X702618Y578954D01*
X702676Y578857D01*
X702738Y578762D01*
X702803Y578669D01*
X702871Y578579D01*
X702942Y578491D01*
X703017Y578405D01*
X703094Y578322D01*
X703174Y578242D01*
X703257Y578165D01*
X703343Y578090D01*
X703431Y578019D01*
X703521Y577951D01*
X703614Y577886D01*
X703709Y577824D01*
X703806Y577766D01*
X703905Y577711D01*
X704006Y577660D01*
X704109Y577612D01*
X704213Y577567D01*
X704319Y577527D01*
X704426Y577490D01*
X704534Y577457D01*
X704644Y577427D01*
X704754Y577402D01*
X704865Y577380D01*
X704977Y577363D01*
X705090Y577349D01*
X705203Y577339D01*
X705316Y577333D01*
X705429Y577331D01*
X711271Y577981D02*
X711372Y577983D01*
X711472Y577989D01*
X711572Y577999D01*
X711672Y578012D01*
X711771Y578030D01*
X711870Y578051D01*
X711967Y578076D01*
X712064Y578105D01*
X712159Y578138D01*
X712253Y578174D01*
X712345Y578214D01*
X712436Y578257D01*
X712525Y578304D01*
X712612Y578354D01*
X712698Y578408D01*
X712781Y578465D01*
X712861Y578525D01*
X712940Y578588D01*
X713016Y578655D01*
X713089Y578724D01*
X713159Y578796D01*
X713227Y578870D01*
X713292Y578947D01*
X713353Y579027D01*
X713412Y579109D01*
X713467Y579193D01*
X713519Y579279D01*
X713568Y579367D01*
X713613Y579457D01*
X713655Y579549D01*
X713693Y579642D01*
X713727Y579737D01*
X713758Y579832D01*
X713785Y579929D01*
X713808Y580027D01*
X713828Y580126D01*
X713843Y580226D01*
X713855Y580326D01*
X713863Y580426D01*
X713867Y580527D01*
X713867Y580627D01*
X713863Y580728D01*
X713855Y580828D01*
X713843Y580928D01*
X713828Y581028D01*
X713808Y581127D01*
X713785Y581225D01*
X713758Y581322D01*
X713727Y581417D01*
X713693Y581512D01*
X713655Y581605D01*
X713613Y581697D01*
X713568Y581787D01*
X713519Y581875D01*
X713467Y581961D01*
X713412Y582045D01*
X713353Y582127D01*
X713292Y582207D01*
X713227Y582284D01*
X713159Y582358D01*
X713089Y582430D01*
X713016Y582499D01*
X712940Y582566D01*
X712861Y582629D01*
X712781Y582689D01*
X712698Y582746D01*
X712612Y582800D01*
X712525Y582850D01*
X712436Y582897D01*
X712345Y582940D01*
X712253Y582980D01*
X712159Y583016D01*
X712064Y583049D01*
X711967Y583078D01*
X711870Y583103D01*
X711771Y583124D01*
X711672Y583142D01*
X711572Y583155D01*
X711472Y583165D01*
X711372Y583171D01*
X711271Y583173D01*
X711170Y583171D01*
X711070Y583165D01*
X710970Y583155D01*
X710870Y583142D01*
X710771Y583124D01*
X710672Y583103D01*
X710575Y583078D01*
X710478Y583049D01*
X710383Y583016D01*
X710289Y582980D01*
X710197Y582940D01*
X710106Y582897D01*
X710017Y582850D01*
X709930Y582800D01*
X709844Y582746D01*
X709761Y582689D01*
X709681Y582629D01*
X709602Y582566D01*
X709526Y582499D01*
X709453Y582430D01*
X709383Y582358D01*
X709315Y582284D01*
X709250Y582207D01*
X709189Y582127D01*
X709130Y582045D01*
X709075Y581961D01*
X709023Y581875D01*
X708974Y581787D01*
X708929Y581697D01*
X708887Y581605D01*
X708849Y581512D01*
X708815Y581417D01*
X708784Y581322D01*
X708757Y581225D01*
X708734Y581127D01*
X708714Y581028D01*
X708699Y580928D01*
X708687Y580828D01*
X708679Y580728D01*
X708675Y580627D01*
X708675Y580527D01*
X708679Y580426D01*
X708687Y580326D01*
X708699Y580226D01*
X708714Y580126D01*
X708734Y580027D01*
X708757Y579929D01*
X708784Y579832D01*
X708815Y579737D01*
X708849Y579642D01*
X708887Y579549D01*
X708929Y579457D01*
X708974Y579367D01*
X709023Y579279D01*
X709075Y579193D01*
X709130Y579109D01*
X709189Y579027D01*
X709250Y578947D01*
X709315Y578870D01*
X709383Y578796D01*
X709453Y578724D01*
X709526Y578655D01*
X709602Y578588D01*
X709681Y578525D01*
X709761Y578465D01*
X709844Y578408D01*
X709930Y578354D01*
X710017Y578304D01*
X710106Y578257D01*
X710197Y578214D01*
X710289Y578174D01*
X710383Y578138D01*
X710478Y578105D01*
X710575Y578076D01*
X710672Y578051D01*
X710771Y578030D01*
X710870Y578012D01*
X710970Y577999D01*
X711070Y577989D01*
X711170Y577983D01*
X711271Y577981D01*
X679958Y561326D02*
X679958Y558729D01*
X679960Y558630D01*
X679966Y558530D01*
X679975Y558431D01*
X679988Y558333D01*
X680005Y558235D01*
X680026Y558137D01*
X680051Y558041D01*
X680079Y557946D01*
X680111Y557852D01*
X680146Y557759D01*
X680185Y557667D01*
X680228Y557577D01*
X680273Y557489D01*
X680323Y557402D01*
X680375Y557318D01*
X680431Y557235D01*
X680489Y557155D01*
X680551Y557077D01*
X680616Y557002D01*
X680684Y556929D01*
X680754Y556859D01*
X680827Y556791D01*
X680902Y556726D01*
X680980Y556664D01*
X681060Y556606D01*
X681143Y556550D01*
X681227Y556498D01*
X681314Y556448D01*
X681402Y556403D01*
X681492Y556360D01*
X681584Y556321D01*
X681677Y556286D01*
X681771Y556254D01*
X681866Y556226D01*
X681962Y556201D01*
X682060Y556180D01*
X682158Y556163D01*
X682256Y556150D01*
X682355Y556141D01*
X682455Y556135D01*
X682554Y556133D01*
X689046Y556133D01*
X689145Y556135D01*
X689245Y556141D01*
X689344Y556150D01*
X689442Y556163D01*
X689540Y556180D01*
X689638Y556201D01*
X689734Y556226D01*
X689829Y556254D01*
X689923Y556286D01*
X690016Y556321D01*
X690108Y556360D01*
X690198Y556403D01*
X690286Y556448D01*
X690373Y556498D01*
X690457Y556550D01*
X690540Y556606D01*
X690620Y556664D01*
X690698Y556726D01*
X690773Y556791D01*
X690846Y556859D01*
X690916Y556929D01*
X690984Y557002D01*
X691049Y557077D01*
X691111Y557155D01*
X691169Y557235D01*
X691225Y557318D01*
X691277Y557402D01*
X691327Y557489D01*
X691372Y557577D01*
X691415Y557667D01*
X691454Y557759D01*
X691489Y557851D01*
X691521Y557946D01*
X691549Y558041D01*
X691574Y558137D01*
X691595Y558235D01*
X691612Y558333D01*
X691625Y558431D01*
X691634Y558530D01*
X691640Y558630D01*
X691642Y558729D01*
X691642Y561326D01*
X691642Y569261D02*
X691640Y569368D01*
X691634Y569474D01*
X691624Y569580D01*
X691611Y569686D01*
X691593Y569792D01*
X691572Y569896D01*
X691547Y570000D01*
X691518Y570103D01*
X691486Y570204D01*
X691449Y570304D01*
X691409Y570403D01*
X691366Y570501D01*
X691319Y570597D01*
X691268Y570691D01*
X691214Y570783D01*
X691157Y570873D01*
X691097Y570961D01*
X691033Y571046D01*
X690966Y571129D01*
X690896Y571210D01*
X690824Y571288D01*
X690748Y571364D01*
X690670Y571436D01*
X690589Y571506D01*
X690506Y571573D01*
X690421Y571637D01*
X690333Y571697D01*
X690243Y571754D01*
X690151Y571808D01*
X690057Y571859D01*
X689961Y571906D01*
X689863Y571949D01*
X689764Y571989D01*
X689664Y572026D01*
X689563Y572058D01*
X689460Y572087D01*
X689356Y572112D01*
X689252Y572133D01*
X689146Y572151D01*
X689040Y572164D01*
X688934Y572174D01*
X688828Y572180D01*
X688721Y572182D01*
X691642Y569261D02*
X691640Y569140D01*
X691634Y569019D01*
X691624Y568899D01*
X691611Y568778D01*
X691593Y568659D01*
X691572Y568539D01*
X691547Y568421D01*
X691518Y568304D01*
X691485Y568187D01*
X691449Y568072D01*
X691408Y567958D01*
X691365Y567845D01*
X691317Y567733D01*
X691266Y567624D01*
X691211Y567516D01*
X691153Y567409D01*
X691092Y567305D01*
X691027Y567203D01*
X690959Y567103D01*
X690888Y567005D01*
X690814Y566909D01*
X690737Y566816D01*
X690656Y566726D01*
X690573Y566638D01*
X690487Y566553D01*
X690398Y566470D01*
X690307Y566391D01*
X690213Y566314D01*
X690117Y566241D01*
X690019Y566171D01*
X689918Y566104D01*
X689815Y566040D01*
X689710Y565980D01*
X689603Y565923D01*
X689495Y565869D01*
X689385Y565819D01*
X689273Y565773D01*
X689160Y565730D01*
X689045Y565691D01*
X686449Y571209D02*
X686526Y571288D01*
X686607Y571364D01*
X686690Y571437D01*
X686775Y571507D01*
X686863Y571574D01*
X686953Y571638D01*
X687045Y571698D01*
X687140Y571755D01*
X687236Y571809D01*
X687334Y571860D01*
X687434Y571907D01*
X687536Y571951D01*
X687639Y571991D01*
X687743Y572027D01*
X687849Y572059D01*
X687955Y572088D01*
X688063Y572113D01*
X688171Y572135D01*
X688281Y572152D01*
X688390Y572166D01*
X688500Y572175D01*
X688611Y572181D01*
X688721Y572183D01*
X686449Y571209D02*
X679958Y565691D01*
X679958Y572182D01*
X689046Y577121D02*
X691642Y580367D01*
X679958Y580367D01*
X679958Y583612D02*
X679958Y577121D01*
D13*
X273749Y497768D02*
X267695Y497768D01*
X267600Y497770D01*
X267505Y497776D01*
X267411Y497785D01*
X267317Y497799D01*
X267223Y497816D01*
X267131Y497837D01*
X267039Y497862D01*
X266949Y497891D01*
X266859Y497923D01*
X266771Y497959D01*
X266685Y497999D01*
X266600Y498041D01*
X266517Y498088D01*
X266436Y498138D01*
X266358Y498191D01*
X266281Y498247D01*
X266207Y498306D01*
X266135Y498368D01*
X266066Y498433D01*
X265999Y498501D01*
X265936Y498571D01*
X265875Y498645D01*
X265817Y498720D01*
X265763Y498798D01*
X265711Y498878D01*
X265663Y498960D01*
X265619Y499043D01*
X265577Y499129D01*
X265540Y499216D01*
X265506Y499305D01*
X265475Y499395D01*
X265448Y499486D01*
X265425Y499578D01*
X265406Y499671D01*
X265391Y499765D01*
X265379Y499859D01*
X265371Y499954D01*
X265367Y500049D01*
X265367Y500143D01*
X265371Y500238D01*
X265379Y500333D01*
X265391Y500427D01*
X265406Y500521D01*
X265425Y500614D01*
X265448Y500706D01*
X265475Y500797D01*
X265506Y500887D01*
X265540Y500976D01*
X265577Y501063D01*
X265619Y501149D01*
X265663Y501232D01*
X265711Y501314D01*
X265763Y501394D01*
X265817Y501472D01*
X265875Y501547D01*
X265936Y501621D01*
X265999Y501691D01*
X266066Y501759D01*
X266135Y501824D01*
X266207Y501886D01*
X266281Y501945D01*
X266358Y502001D01*
X266436Y502054D01*
X266517Y502104D01*
X266600Y502151D01*
X266685Y502193D01*
X266771Y502233D01*
X266859Y502269D01*
X266949Y502301D01*
X267039Y502330D01*
X267131Y502355D01*
X267223Y502376D01*
X267317Y502393D01*
X267411Y502407D01*
X267505Y502416D01*
X267600Y502422D01*
X267695Y502424D01*
X267695Y502425D02*
X273749Y502425D01*
X273749Y509778D02*
X273747Y509867D01*
X273741Y509956D01*
X273732Y510044D01*
X273719Y510132D01*
X273702Y510220D01*
X273681Y510306D01*
X273657Y510392D01*
X273629Y510476D01*
X273598Y510560D01*
X273563Y510641D01*
X273525Y510722D01*
X273483Y510800D01*
X273438Y510877D01*
X273390Y510952D01*
X273338Y511024D01*
X273284Y511095D01*
X273226Y511163D01*
X273166Y511228D01*
X273103Y511291D01*
X273038Y511351D01*
X272970Y511409D01*
X272899Y511463D01*
X272827Y511515D01*
X272752Y511563D01*
X272675Y511608D01*
X272597Y511650D01*
X272516Y511688D01*
X272435Y511723D01*
X272351Y511754D01*
X272267Y511782D01*
X272181Y511806D01*
X272095Y511827D01*
X272007Y511844D01*
X271919Y511857D01*
X271831Y511866D01*
X271742Y511872D01*
X271653Y511874D01*
X273748Y509778D02*
X273746Y509675D01*
X273740Y509573D01*
X273730Y509471D01*
X273717Y509369D01*
X273699Y509268D01*
X273678Y509168D01*
X273653Y509068D01*
X273624Y508970D01*
X273591Y508873D01*
X273555Y508777D01*
X273515Y508682D01*
X273471Y508589D01*
X273424Y508498D01*
X273374Y508409D01*
X273320Y508322D01*
X273263Y508236D01*
X273203Y508153D01*
X273139Y508073D01*
X273073Y507995D01*
X273003Y507919D01*
X272931Y507846D01*
X272856Y507776D01*
X272778Y507709D01*
X272698Y507645D01*
X272616Y507584D01*
X272531Y507526D01*
X272444Y507472D01*
X272355Y507420D01*
X272265Y507373D01*
X272172Y507328D01*
X272078Y507288D01*
X271982Y507250D01*
X271885Y507217D01*
X270023Y511175D02*
X270087Y511240D01*
X270154Y511302D01*
X270223Y511362D01*
X270295Y511418D01*
X270368Y511471D01*
X270444Y511522D01*
X270522Y511569D01*
X270602Y511613D01*
X270683Y511654D01*
X270766Y511692D01*
X270851Y511726D01*
X270937Y511757D01*
X271024Y511784D01*
X271112Y511808D01*
X271200Y511828D01*
X271290Y511845D01*
X271380Y511857D01*
X271471Y511867D01*
X271562Y511872D01*
X271653Y511874D01*
X270023Y511175D02*
X265367Y507217D01*
X265367Y511874D01*
M02*
