G04 EAGLE Gerber X2 export*
%TF.Part,Single*%
%TF.FileFunction,Soldermask,Top,1*%
%TF.FilePolarity,Negative*%
%TF.GenerationSoftware,Autodesk,EAGLE,9.6.2*%
%TF.CreationDate,2021-03-19T10:26:59Z*%
G75*
%MOMM*%
%FSLAX34Y34*%
%LPD*%
%INSoldermask Top*%
%AMOC8*
5,1,8,0,0,1.08239X$1,22.5*%
G01*
%ADD10R,1.587500X1.270000*%
%ADD11R,1.111250X1.270000*%
%ADD12R,1.587500X2.222500*%
%ADD13R,1.103200X1.703200*%
%ADD14R,1.703200X1.103200*%
%ADD15R,6.203200X6.203200*%
%ADD16R,2.006200X1.803200*%
%ADD17C,1.727200*%
%ADD18R,1.803200X2.006200*%
%ADD19R,1.203200X1.603200*%
%ADD20R,1.603200X1.203200*%
%ADD21R,1.403200X1.203200*%
%ADD22R,1.371600X1.803400*%
%ADD23R,1.253200X2.403200*%
%ADD24R,1.203200X1.253200*%
%ADD25R,3.803200X1.403200*%
%ADD26R,2.003200X1.803200*%
%ADD27R,2.903200X1.803200*%
%ADD28R,2.403200X1.253200*%
%ADD29R,1.253200X1.203200*%
%ADD30R,1.803200X2.003200*%
%ADD31R,1.803200X2.903200*%
%ADD32C,1.603200*%
%ADD33C,1.503200*%


D10*
X228600Y465138D03*
D11*
X254794Y476250D03*
D12*
X258763Y581025D03*
D13*
X1042300Y485363D03*
X1029600Y485363D03*
X1016900Y485363D03*
X1004200Y485363D03*
X991500Y485363D03*
X978800Y485363D03*
X966100Y485363D03*
X953400Y485363D03*
X940700Y485363D03*
X928000Y485363D03*
X915300Y485363D03*
X902600Y485363D03*
X889900Y485363D03*
X877200Y485363D03*
D14*
X862300Y452513D03*
X862300Y439813D03*
X862300Y427113D03*
X862300Y414413D03*
X862300Y401713D03*
X862300Y389013D03*
X862300Y376313D03*
X862300Y363613D03*
X862300Y350913D03*
X862300Y338213D03*
D13*
X877200Y305363D03*
X889900Y305363D03*
X902600Y305363D03*
X915300Y305363D03*
X928000Y305363D03*
X940700Y305363D03*
X953400Y305363D03*
X966100Y305363D03*
X978800Y305363D03*
X991500Y305363D03*
X1004200Y305363D03*
X1016900Y305363D03*
X1029600Y305363D03*
X1042300Y305363D03*
D15*
X965300Y395363D03*
D16*
X714375Y589030D03*
X714375Y617470D03*
D17*
X799592Y586994D02*
X814832Y586994D01*
X814832Y632206D02*
X799592Y632206D01*
X749808Y586994D02*
X734568Y586994D01*
X734568Y632206D02*
X749808Y632206D01*
X931926Y237300D02*
X931926Y222060D01*
X886714Y222060D02*
X886714Y237300D01*
X931926Y172276D02*
X931926Y157036D01*
X886714Y157036D02*
X886714Y172276D01*
D16*
X444500Y600143D03*
X444500Y628583D03*
D18*
X409643Y549275D03*
X438083Y549275D03*
D19*
X325942Y560396D03*
X335442Y538396D03*
X316442Y538396D03*
D17*
X266383Y201613D02*
X251143Y201613D01*
X251143Y176213D02*
X266383Y176213D01*
X266383Y150813D02*
X251143Y150813D01*
X251143Y125413D02*
X266383Y125413D01*
X266383Y100013D02*
X251143Y100013D01*
X251143Y74613D02*
X266383Y74613D01*
D16*
X690563Y600143D03*
X690563Y628583D03*
D20*
X268400Y625475D03*
X290400Y634975D03*
X290400Y615975D03*
D18*
X319020Y595313D03*
X290580Y595313D03*
D16*
X266877Y594976D03*
X266877Y566536D03*
D20*
X646225Y617513D03*
X646225Y598513D03*
X668225Y608013D03*
D17*
X971868Y136525D02*
X987108Y136525D01*
X987108Y161925D02*
X971868Y161925D01*
X971868Y187325D02*
X987108Y187325D01*
X987108Y212725D02*
X971868Y212725D01*
X971868Y238125D02*
X987108Y238125D01*
X987108Y263525D02*
X971868Y263525D01*
X522288Y535305D02*
X522288Y550545D01*
X547688Y550545D02*
X547688Y535305D01*
X993775Y96520D02*
X993775Y81280D01*
X968375Y81280D02*
X968375Y96520D01*
X942975Y96520D02*
X942975Y81280D01*
X917575Y81280D02*
X917575Y96520D01*
X892175Y96520D02*
X892175Y81280D01*
D19*
X316645Y516416D03*
X326145Y494416D03*
X307145Y494416D03*
D21*
X337663Y612775D03*
X357663Y602775D03*
X357663Y622775D03*
D22*
X251460Y288925D03*
X266700Y288925D03*
X281940Y288925D03*
D23*
X257293Y510251D03*
X229793Y510251D03*
D24*
X243543Y495001D03*
D25*
X411550Y325288D03*
X411550Y345288D03*
X261550Y325288D03*
X411550Y365288D03*
X411550Y385288D03*
X411550Y405288D03*
X411550Y425288D03*
X411550Y445288D03*
X411550Y465288D03*
X261550Y345288D03*
X261550Y365288D03*
X261550Y385288D03*
X261550Y405288D03*
X261550Y425288D03*
X261550Y445288D03*
X261550Y465288D03*
D26*
X769190Y361091D03*
X769190Y333091D03*
D27*
X802858Y343994D03*
X802858Y315994D03*
D28*
X719138Y294225D03*
X719138Y321725D03*
D29*
X703888Y307975D03*
D25*
X525075Y447825D03*
X525075Y427825D03*
X675075Y447825D03*
X525075Y407825D03*
X525075Y387825D03*
X525075Y367825D03*
X525075Y347825D03*
X525075Y327825D03*
X525075Y307825D03*
X675075Y427825D03*
X675075Y407825D03*
X675075Y387825D03*
X675075Y367825D03*
X675075Y347825D03*
X675075Y327825D03*
X675075Y307825D03*
D30*
X570200Y263525D03*
X598200Y263525D03*
D31*
X508288Y261938D03*
X536288Y261938D03*
D18*
X941455Y625475D03*
X969895Y625475D03*
X1027045Y625475D03*
X998605Y625475D03*
X1000193Y595313D03*
X1028633Y595313D03*
X915920Y557213D03*
X887480Y557213D03*
D16*
X724041Y382410D03*
X724041Y353970D03*
D32*
X776309Y292802D03*
X750909Y292802D03*
D17*
X561975Y55245D02*
X561975Y40005D01*
X587375Y40005D02*
X587375Y55245D01*
D30*
X560675Y82550D03*
X588675Y82550D03*
D18*
X558868Y133350D03*
X587308Y133350D03*
D17*
X654050Y55245D02*
X654050Y40005D01*
X679450Y40005D02*
X679450Y55245D01*
D30*
X652750Y82550D03*
X680750Y82550D03*
D18*
X652530Y133350D03*
X680970Y133350D03*
D17*
X809943Y14288D02*
X825183Y14288D01*
X825183Y39688D02*
X809943Y39688D01*
X809943Y65088D02*
X825183Y65088D01*
X825183Y90488D02*
X809943Y90488D01*
X809943Y115888D02*
X825183Y115888D01*
X825183Y141288D02*
X809943Y141288D01*
X748983Y127000D02*
X733743Y127000D01*
X733743Y101600D02*
X748983Y101600D01*
X748983Y76200D02*
X733743Y76200D01*
X733743Y50800D02*
X748983Y50800D01*
X748983Y25400D02*
X733743Y25400D01*
X468313Y40005D02*
X468313Y55245D01*
X493713Y55245D02*
X493713Y40005D01*
D30*
X463838Y80963D03*
X491838Y80963D03*
D18*
X463618Y133350D03*
X492058Y133350D03*
D26*
X871538Y12988D03*
X871538Y40988D03*
D33*
X898525Y12700D03*
X411163Y255588D03*
X464811Y234962D03*
X508786Y463980D03*
X456182Y465261D03*
X303418Y538163D03*
X351068Y497576D03*
X228274Y439750D03*
X228274Y420700D03*
X228274Y401650D03*
X228274Y382600D03*
X228274Y271475D03*
X228274Y254012D03*
X228274Y236550D03*
X742950Y449263D03*
X741363Y490538D03*
X857250Y293688D03*
X869795Y214313D03*
X555625Y287338D03*
X466725Y336550D03*
X473075Y365125D03*
X446088Y365125D03*
X565150Y465138D03*
X1052513Y288925D03*
X446088Y404813D03*
X647241Y279694D03*
X485099Y387350D03*
X446088Y387350D03*
X481013Y534988D03*
X1025157Y566525D03*
X768939Y380796D03*
X768736Y407939D03*
X723423Y484801D03*
X583258Y527086D03*
X359935Y539531D03*
X302667Y301360D03*
X763110Y495621D03*
X765954Y566445D03*
X517525Y590550D03*
X576263Y606425D03*
X412750Y511175D03*
X508000Y238125D03*
X508000Y160338D03*
X622300Y111125D03*
X681038Y111125D03*
X714375Y36513D03*
X569152Y242029D03*
X374746Y501945D03*
X247895Y567044D03*
X979213Y595094D03*
X941388Y555625D03*
X671513Y579382D03*
X962025Y536575D03*
X816071Y553310D03*
X712788Y553157D03*
X914400Y289200D03*
X777875Y109538D03*
X901262Y282636D03*
X796925Y568325D03*
X781050Y484188D03*
X760413Y423168D03*
X231774Y592867D03*
X726501Y507841D03*
X865188Y109538D03*
X846138Y147638D03*
X845983Y223838D03*
X846138Y350838D03*
X706669Y432508D03*
X742950Y-15875D03*
X917575Y26988D03*
X917575Y69850D03*
X792331Y223181D03*
X914400Y539750D03*
X793750Y406400D03*
X794172Y472954D03*
X863460Y622959D03*
X863600Y557213D03*
X820631Y223619D03*
X820738Y376238D03*
X831850Y430213D03*
X954088Y504698D03*
X833769Y212725D03*
X833877Y369888D03*
X846138Y425450D03*
X902320Y501047D03*
X804262Y213219D03*
X806450Y393700D03*
X806450Y458788D03*
X1004888Y503238D03*
X482950Y298886D03*
X682705Y263007D03*
M02*
